<?xml version="1.0" standalone="no"?>
<mlt LC_NUMERIC="C" version="7.6.0" title="Shotcut version 22.03.30" producer="main_bin">
  <profile description="automatic" width="1920" height="1080" progressive="1" sample_aspect_num="1" sample_aspect_den="1" display_aspect_num="16" display_aspect_den="9" frame_rate_num="30" frame_rate_den="1" colorspace="709"/>
  <playlist id="main_bin">
    <property name="xml_retain">1</property>
  </playlist>
  <producer id="black" in="00:00:00.000" out="00:13:51.033">
    <property name="length">00:13:51.067</property>
    <property name="eof">pause</property>
    <property name="resource">0</property>
    <property name="aspect_ratio">1</property>
    <property name="mlt_service">color</property>
    <property name="mlt_image_format">rgba</property>
    <property name="set.test_audio">0</property>
  </producer>
  <playlist id="background">
    <entry producer="black" in="00:00:00.000" out="00:13:51.033"/>
  </playlist>
  <chain id="chain0" out="00:00:20.600">
    <property name="length">00:00:20.633</property>
    <property name="eof">pause</property>
    <property name="resource">/Users/jacob/Downloads/1739010-hd_1920_1080_30fps.mp4</property>
    <property name="mlt_service">avformat-novalidate</property>
    <property name="seekable">1</property>
    <property name="audio_index">1</property>
    <property name="video_index">0</property>
    <property name="mute_on_pause">0</property>
    <property name="shotcut:hash">2b991aba6a8904e3cfc232e886d3e938</property>
    <property name="shotcut:caption">1739010-hd_1920_1080_30fps.mp4</property>
    <property name="xml">was here</property>
    <filter id="filter0" in="00:00:16.500" out="00:00:20.600">
      <property name="noise">55</property>
      <property name="contrast">100</property>
      <property name="brightness">47</property>
      <property name="mlt_service">grain</property>
    </filter>
    <filter id="filter1" in="00:00:16.500" out="00:00:20.600">
      <property name="version">0.3</property>
      <property name="mlt_service">frei0r.saturat0r</property>
      <property name="threads">0</property>
      <property name="0">0</property>
    </filter>
    <filter id="filter2" in="00:00:16.500" out="00:00:20.600">
      <property name="lift_r">-0.656794</property>
      <property name="lift_g">-0.656794</property>
      <property name="lift_b">-0.656794</property>
      <property name="gamma_r">1</property>
      <property name="gamma_g">1</property>
      <property name="gamma_b">1</property>
      <property name="gain_r">1</property>
      <property name="gain_g">1</property>
      <property name="gain_b">1</property>
      <property name="mlt_service">lift_gamma_gain</property>
    </filter>
    <filter id="filter3" in="00:00:16.500" out="00:00:20.600">
      <property name="argument"></property>
      <property name="geometry">192 108 1536 864 1</property>
      <property name="family">Sans</property>
      <property name="size">48</property>
      <property name="weight">400</property>
      <property name="style">normal</property>
      <property name="fgcolour">0x000000ff</property>
      <property name="bgcolour">#00000000</property>
      <property name="olcolour">0x00000000</property>
      <property name="pad">0</property>
      <property name="halign">left</property>
      <property name="valign">top</property>
      <property name="outline">0</property>
      <property name="pixel_ratio">1</property>
      <property name="mlt_service">qtext</property>
      <property name="shotcut:filter">richText</property>
      <property name="html">&lt;!DOCTYPE HTML PUBLIC &quot;-//W3C//DTD HTML 4.0//EN&quot; &quot;http://www.w3.org/TR/REC-html40/strict.dtd&quot;&gt;
&lt;html&gt;&lt;head&gt;&lt;meta name=&quot;qrichtext&quot; content=&quot;1&quot; /&gt;&lt;style type=&quot;text/css&quot;&gt;
p, li { white-space: pre-wrap; }
&lt;/style&gt;&lt;/head&gt;&lt;body style=&quot; font-family:'.AppleSystemUIFont'; font-size:13pt; font-weight:400; font-style:normal;&quot;&gt;
&lt;p align=&quot;center&quot; style=&quot; margin-top:0px; margin-bottom:0px; margin-left:0px; margin-right:0px; -qt-block-indent:0; text-indent:0px;&quot;&gt;&lt;span style=&quot; font-family:'Apple Chancery'; font-size:169pt;&quot;&gt;C-Side Studios&lt;/span&gt;&lt;/p&gt;&lt;/body&gt;&lt;/html&gt;</property>
      <property name="shotcut:animIn">00:00:00.000</property>
      <property name="shotcut:animOut">00:00:00.000</property>
    </filter>
    <filter id="filter4" in="00:00:16.500" out="00:00:20.600">
      <property name="start">1</property>
      <property name="level">00:00:03.300=1;00:00:04.100=0</property>
      <property name="mlt_service">brightness</property>
      <property name="shotcut:filter">fadeOutBrightness</property>
      <property name="alpha">1</property>
      <property name="shotcut:animOut">00:00:00.833</property>
    </filter>
    <filter id="filter5" in="00:00:16.500" out="00:00:20.600">
      <property name="start">1</property>
      <property name="level">00:00:00.000=0;00:00:00.800=1</property>
      <property name="mlt_service">brightness</property>
      <property name="shotcut:filter">fadeInBrightness</property>
      <property name="alpha">1</property>
      <property name="shotcut:animIn">00:00:00.833</property>
    </filter>
  </chain>
  <producer id="producer0" in="00:00:00.000" out="03:59:59.967">
    <property name="length">04:00:00.000</property>
    <property name="eof">pause</property>
    <property name="resource">/Users/jacob/Documents/School/8th Grade (8Se)/Film Studies/DID_U_C_IT/clips/blackscreen.png</property>
    <property name="ttl">1</property>
    <property name="aspect_ratio">1</property>
    <property name="progressive">1</property>
    <property name="seekable">1</property>
    <property name="mlt_service">qimage</property>
    <property name="creation_time">2024-04-18T21:52:04</property>
    <property name="shotcut:caption">blackscreen.png</property>
    <property name="shotcut:hash">02eb36967dd439514cee4af71e69baa3</property>
    <property name="ignore_points">0</property>
    <property name="xml">was here</property>
    <filter id="filter6" out="00:00:01.933">
      <property name="argument"></property>
      <property name="geometry">110 140 1700 800 1</property>
      <property name="family">Sans</property>
      <property name="size">48</property>
      <property name="weight">400</property>
      <property name="style">normal</property>
      <property name="fgcolour">0x000000ff</property>
      <property name="bgcolour">#00000000</property>
      <property name="olcolour">0x00000000</property>
      <property name="pad">0</property>
      <property name="halign">left</property>
      <property name="valign">top</property>
      <property name="outline">0</property>
      <property name="pixel_ratio">1</property>
      <property name="mlt_service">qtext</property>
      <property name="shotcut:filter">richText</property>
      <property name="html">&lt;!DOCTYPE HTML PUBLIC &quot;-//W3C//DTD HTML 4.0//EN&quot; &quot;http://www.w3.org/TR/REC-html40/strict.dtd&quot;&gt;
&lt;html&gt;&lt;head&gt;&lt;meta name=&quot;qrichtext&quot; content=&quot;1&quot; /&gt;&lt;style type=&quot;text/css&quot;&gt;
p, li { white-space: pre-wrap; }
&lt;/style&gt;&lt;/head&gt;&lt;body style=&quot; font-family:'.AppleSystemUIFont'; font-size:13pt; font-weight:400; font-style:normal;&quot;&gt;
&lt;p align=&quot;center&quot; style=&quot; margin-top:0px; margin-bottom:0px; margin-left:0px; margin-right:0px; -qt-block-indent:0; text-indent:0px;&quot;&gt;&lt;span style=&quot; font-family:'Courier New'; font-size:136pt; color:#d1d5d5;&quot;&gt;A&lt;/span&gt;&lt;/p&gt;
&lt;p align=&quot;center&quot; style=&quot; margin-top:0px; margin-bottom:0px; margin-left:0px; margin-right:0px; -qt-block-indent:0; text-indent:0px;&quot;&gt;&lt;span style=&quot; font-family:'Courier New'; font-size:164pt; color:#d1d5d5;&quot;&gt;PUMPKIN-BY-THE-OCEAN&lt;/span&gt;&lt;/p&gt;
&lt;p align=&quot;center&quot; style=&quot; margin-top:0px; margin-bottom:0px; margin-left:0px; margin-right:0px; -qt-block-indent:0; text-indent:0px;&quot;&gt;&lt;span style=&quot; font-family:'Courier New'; font-size:136pt; color:#d1d5d5;&quot;&gt;PRODUCTION&lt;/span&gt;&lt;/p&gt;
&lt;p align=&quot;center&quot; style=&quot;-qt-paragraph-type:empty; margin-top:0px; margin-bottom:0px; margin-left:0px; margin-right:0px; -qt-block-indent:0; text-indent:0px; font-family:'Courier New'; font-size:120pt; color:#d1d5d5;&quot;&gt;&lt;br /&gt;&lt;/p&gt;&lt;/body&gt;&lt;/html&gt;</property>
      <property name="shotcut:animIn">00:00:00.000</property>
      <property name="shotcut:animOut">00:00:00.000</property>
    </filter>
    <filter id="filter7" out="00:00:01.933">
      <property name="start">1</property>
      <property name="level">00:00:00.000=0;00:00:00.300=1</property>
      <property name="mlt_service">brightness</property>
      <property name="shotcut:filter">fadeInBrightness</property>
      <property name="alpha">1</property>
      <property name="shotcut:animIn">00:00:00.333</property>
    </filter>
    <filter id="filter8" out="00:00:01.933">
      <property name="start">1</property>
      <property name="level">00:00:01.633=1;00:00:01.933=0</property>
      <property name="mlt_service">brightness</property>
      <property name="shotcut:filter">fadeOutBrightness</property>
      <property name="alpha">1</property>
      <property name="shotcut:animOut">00:00:00.333</property>
    </filter>
  </producer>
  <producer id="producer1" in="00:00:00.000" out="03:59:59.967">
    <property name="length">04:00:00.000</property>
    <property name="eof">pause</property>
    <property name="resource">/Users/jacob/Documents/School/8th Grade (8Se)/Film Studies/DID_U_C_IT/clips/blackscreen.png</property>
    <property name="ttl">1</property>
    <property name="aspect_ratio">1</property>
    <property name="progressive">1</property>
    <property name="seekable">1</property>
    <property name="mlt_service">qimage</property>
    <property name="creation_time">2024-04-18T21:52:04</property>
    <property name="shotcut:caption">blackscreen.png</property>
    <property name="shotcut:hash">02eb36967dd439514cee4af71e69baa3</property>
    <property name="ignore_points">0</property>
    <property name="xml">was here</property>
    <filter id="filter9" out="00:00:01.933">
      <property name="argument"></property>
      <property name="geometry">110 140 1700 800 1</property>
      <property name="family">Sans</property>
      <property name="size">48</property>
      <property name="weight">400</property>
      <property name="style">normal</property>
      <property name="fgcolour">0x000000ff</property>
      <property name="bgcolour">#00000000</property>
      <property name="olcolour">0x00000000</property>
      <property name="pad">0</property>
      <property name="halign">left</property>
      <property name="valign">top</property>
      <property name="outline">0</property>
      <property name="pixel_ratio">1</property>
      <property name="mlt_service">qtext</property>
      <property name="shotcut:filter">richText</property>
      <property name="html">&lt;!DOCTYPE HTML PUBLIC &quot;-//W3C//DTD HTML 4.0//EN&quot; &quot;http://www.w3.org/TR/REC-html40/strict.dtd&quot;&gt;
&lt;html&gt;&lt;head&gt;&lt;meta name=&quot;qrichtext&quot; content=&quot;1&quot; /&gt;&lt;style type=&quot;text/css&quot;&gt;
p, li { white-space: pre-wrap; }
&lt;/style&gt;&lt;/head&gt;&lt;body style=&quot; font-family:'.AppleSystemUIFont'; font-size:13pt; font-weight:400; font-style:normal;&quot;&gt;
&lt;p align=&quot;center&quot; style=&quot; margin-top:0px; margin-bottom:0px; margin-left:0px; margin-right:0px; -qt-block-indent:0; text-indent:0px;&quot;&gt;&lt;span style=&quot; font-family:'Courier New'; font-size:136pt; color:#d1d5d5;&quot;&gt;DIRECTED BY&lt;/span&gt;&lt;/p&gt;
&lt;p align=&quot;center&quot; style=&quot; margin-top:0px; margin-bottom:0px; margin-left:0px; margin-right:0px; -qt-block-indent:0; text-indent:0px;&quot;&gt;&lt;span style=&quot; font-family:'Courier New'; font-size:164pt; color:#d1d5d5;&quot;&gt;AADRIT TALUKDAR&lt;/span&gt;&lt;/p&gt;
&lt;p align=&quot;center&quot; style=&quot;-qt-paragraph-type:empty; margin-top:0px; margin-bottom:0px; margin-left:0px; margin-right:0px; -qt-block-indent:0; text-indent:0px;&quot;&gt;&lt;br /&gt;&lt;/p&gt;&lt;/body&gt;&lt;/html&gt;</property>
      <property name="shotcut:animIn">00:00:00.000</property>
      <property name="shotcut:animOut">00:00:00.000</property>
    </filter>
    <filter id="filter10" out="00:00:01.933">
      <property name="start">1</property>
      <property name="level">00:00:00.000=0;00:00:00.333=1</property>
      <property name="mlt_service">brightness</property>
      <property name="shotcut:filter">fadeInBrightness</property>
      <property name="alpha">1</property>
      <property name="shotcut:animIn">11</property>
    </filter>
    <filter id="filter11" out="00:00:01.933">
      <property name="start">1</property>
      <property name="level">00:00:01.633=1;00:00:01.933=0</property>
      <property name="mlt_service">brightness</property>
      <property name="shotcut:filter">fadeOutBrightness</property>
      <property name="alpha">1</property>
      <property name="shotcut:animOut">00:00:00.333</property>
    </filter>
    <filter id="filter12" out="00:00:01.933">
      <property name="window">75</property>
      <property name="max_gain">20dB</property>
      <property name="level">00:00:00.000=-60;00:00:00.333=0</property>
      <property name="mlt_service">volume</property>
      <property name="shotcut:filter">fadeInVolume</property>
      <property name="shotcut:animIn">11</property>
    </filter>
  </producer>
  <producer id="producer2" in="00:00:00.000" out="03:59:59.967">
    <property name="length">04:00:00.000</property>
    <property name="eof">pause</property>
    <property name="resource">/Users/jacob/Documents/School/8th Grade (8Se)/Film Studies/DID_U_C_IT/clips/blackscreen.png</property>
    <property name="ttl">1</property>
    <property name="aspect_ratio">1</property>
    <property name="progressive">1</property>
    <property name="seekable">1</property>
    <property name="mlt_service">qimage</property>
    <property name="creation_time">2024-04-18T21:52:04</property>
    <property name="shotcut:caption">blackscreen.png</property>
    <property name="shotcut:hash">02eb36967dd439514cee4af71e69baa3</property>
    <property name="ignore_points">0</property>
    <property name="xml">was here</property>
    <filter id="filter13" out="00:00:01.933">
      <property name="argument"></property>
      <property name="geometry">110 140 1700 800 1</property>
      <property name="family">Sans</property>
      <property name="size">48</property>
      <property name="weight">400</property>
      <property name="style">normal</property>
      <property name="fgcolour">0x000000ff</property>
      <property name="bgcolour">#00000000</property>
      <property name="olcolour">0x00000000</property>
      <property name="pad">0</property>
      <property name="halign">left</property>
      <property name="valign">top</property>
      <property name="outline">0</property>
      <property name="pixel_ratio">1</property>
      <property name="mlt_service">qtext</property>
      <property name="shotcut:filter">richText</property>
      <property name="html">&lt;!DOCTYPE HTML PUBLIC &quot;-//W3C//DTD HTML 4.0//EN&quot; &quot;http://www.w3.org/TR/REC-html40/strict.dtd&quot;&gt;
&lt;html&gt;&lt;head&gt;&lt;meta name=&quot;qrichtext&quot; content=&quot;1&quot; /&gt;&lt;style type=&quot;text/css&quot;&gt;
p, li { white-space: pre-wrap; }
&lt;/style&gt;&lt;/head&gt;&lt;body style=&quot; font-family:'.AppleSystemUIFont'; font-size:13pt; font-weight:400; font-style:normal;&quot;&gt;
&lt;p align=&quot;center&quot; style=&quot; margin-top:0px; margin-bottom:0px; margin-left:0px; margin-right:0px; -qt-block-indent:0; text-indent:0px;&quot;&gt;&lt;span style=&quot; font-family:'Courier New'; font-size:136pt; color:#d1d5d5;&quot;&gt;PRODUCED BY&lt;/span&gt;&lt;/p&gt;
&lt;p align=&quot;center&quot; style=&quot; margin-top:0px; margin-bottom:0px; margin-left:0px; margin-right:0px; -qt-block-indent:0; text-indent:0px;&quot;&gt;&lt;span style=&quot; font-family:'Courier New'; font-size:164pt; color:#d1d5d5;&quot;&gt;JACOB LIU&lt;/span&gt;&lt;/p&gt;
&lt;p align=&quot;center&quot; style=&quot;-qt-paragraph-type:empty; margin-top:0px; margin-bottom:0px; margin-left:0px; margin-right:0px; -qt-block-indent:0; text-indent:0px;&quot;&gt;&lt;br /&gt;&lt;/p&gt;&lt;/body&gt;&lt;/html&gt;</property>
      <property name="shotcut:animIn">00:00:00.000</property>
      <property name="shotcut:animOut">00:00:00.000</property>
    </filter>
    <filter id="filter14" out="00:00:01.933">
      <property name="start">1</property>
      <property name="level">00:00:00.000=0;00:00:00.333=1</property>
      <property name="mlt_service">brightness</property>
      <property name="shotcut:filter">fadeInBrightness</property>
      <property name="alpha">1</property>
      <property name="shotcut:animIn">11</property>
    </filter>
    <filter id="filter15" out="00:00:01.933">
      <property name="start">1</property>
      <property name="level">00:00:01.633=1;00:00:01.933=0</property>
      <property name="mlt_service">brightness</property>
      <property name="shotcut:filter">fadeOutBrightness</property>
      <property name="alpha">1</property>
      <property name="shotcut:animOut">00:00:00.333</property>
    </filter>
    <filter id="filter16" out="00:00:01.933">
      <property name="window">75</property>
      <property name="max_gain">20dB</property>
      <property name="level">00:00:00.000=-60;00:00:00.333=0</property>
      <property name="mlt_service">volume</property>
      <property name="shotcut:filter">fadeInVolume</property>
      <property name="shotcut:animIn">11</property>
    </filter>
  </producer>
  <producer id="producer3" in="00:00:00.000" out="03:59:59.967">
    <property name="length">04:00:00.000</property>
    <property name="eof">pause</property>
    <property name="resource">/Users/jacob/Documents/School/8th Grade (8Se)/Film Studies/DID_U_C_IT/clips/blackscreen.png</property>
    <property name="ttl">1</property>
    <property name="aspect_ratio">1</property>
    <property name="progressive">1</property>
    <property name="seekable">1</property>
    <property name="mlt_service">qimage</property>
    <property name="creation_time">2024-04-18T21:52:04</property>
    <property name="shotcut:caption">blackscreen.png</property>
    <property name="shotcut:hash">02eb36967dd439514cee4af71e69baa3</property>
    <property name="ignore_points">0</property>
    <property name="xml">was here</property>
    <filter id="filter17" out="00:00:01.933">
      <property name="argument"></property>
      <property name="geometry">110 140 1700 800 1</property>
      <property name="family">Sans</property>
      <property name="size">48</property>
      <property name="weight">400</property>
      <property name="style">normal</property>
      <property name="fgcolour">0x000000ff</property>
      <property name="bgcolour">#00000000</property>
      <property name="olcolour">0x00000000</property>
      <property name="pad">0</property>
      <property name="halign">left</property>
      <property name="valign">top</property>
      <property name="outline">0</property>
      <property name="pixel_ratio">1</property>
      <property name="mlt_service">qtext</property>
      <property name="shotcut:filter">richText</property>
      <property name="html">&lt;!DOCTYPE HTML PUBLIC &quot;-//W3C//DTD HTML 4.0//EN&quot; &quot;http://www.w3.org/TR/REC-html40/strict.dtd&quot;&gt;
&lt;html&gt;&lt;head&gt;&lt;meta name=&quot;qrichtext&quot; content=&quot;1&quot; /&gt;&lt;style type=&quot;text/css&quot;&gt;
p, li { white-space: pre-wrap; }
&lt;/style&gt;&lt;/head&gt;&lt;body style=&quot; font-family:'.AppleSystemUIFont'; font-size:13pt; font-weight:400; font-style:normal;&quot;&gt;
&lt;p align=&quot;center&quot; style=&quot; margin-top:0px; margin-bottom:0px; margin-left:0px; margin-right:0px; -qt-block-indent:0; text-indent:0px;&quot;&gt;&lt;span style=&quot; font-family:'Courier New'; font-size:136pt; color:#d1d5d5;&quot;&gt;FEATURING&lt;/span&gt;&lt;/p&gt;
&lt;p align=&quot;center&quot; style=&quot; margin-top:0px; margin-bottom:0px; margin-left:0px; margin-right:0px; -qt-block-indent:0; text-indent:0px;&quot;&gt;&lt;span style=&quot; font-family:'Courier New'; font-size:164pt; color:#d1d5d5;&quot;&gt;SIYU FAN&lt;/span&gt;&lt;/p&gt;
&lt;p align=&quot;center&quot; style=&quot; margin-top:0px; margin-bottom:0px; margin-left:0px; margin-right:0px; -qt-block-indent:0; text-indent:0px;&quot;&gt;&lt;span style=&quot; font-family:'Courier New'; font-size:136pt; color:#d1d5d5;&quot;&gt;AS&lt;/span&gt;&lt;/p&gt;
&lt;p align=&quot;center&quot; style=&quot; margin-top:0px; margin-bottom:0px; margin-left:0px; margin-right:0px; -qt-block-indent:0; text-indent:0px;&quot;&gt;&lt;span style=&quot; font-family:'Courier New'; font-size:164pt; color:#d1d5d5;&quot;&gt;CALLIE&lt;/span&gt;&lt;/p&gt;&lt;/body&gt;&lt;/html&gt;</property>
      <property name="shotcut:animIn">00:00:00.000</property>
      <property name="shotcut:animOut">00:00:00.000</property>
    </filter>
    <filter id="filter18" out="00:00:01.933">
      <property name="start">1</property>
      <property name="level">00:00:00.000=0;00:00:00.300=1</property>
      <property name="mlt_service">brightness</property>
      <property name="shotcut:filter">fadeInBrightness</property>
      <property name="alpha">1</property>
      <property name="shotcut:animIn">00:00:00.333</property>
    </filter>
    <filter id="filter19" out="00:00:01.933">
      <property name="start">1</property>
      <property name="level">00:00:01.667=1;00:00:01.933=0</property>
      <property name="mlt_service">brightness</property>
      <property name="shotcut:filter">fadeOutBrightness</property>
      <property name="alpha">1</property>
      <property name="shotcut:animOut">9</property>
    </filter>
    <filter id="filter20" out="00:00:01.933">
      <property name="window">75</property>
      <property name="max_gain">20dB</property>
      <property name="level">00:00:01.667=0;00:00:01.933=-60</property>
      <property name="mlt_service">volume</property>
      <property name="shotcut:filter">fadeOutVolume</property>
      <property name="shotcut:animOut">9</property>
    </filter>
  </producer>
  <producer id="producer4" in="00:00:00.000" out="03:59:59.967">
    <property name="length">04:00:00.000</property>
    <property name="eof">pause</property>
    <property name="resource">/Users/jacob/Documents/School/8th Grade (8Se)/Film Studies/DID_U_C_IT/clips/blackscreen.png</property>
    <property name="ttl">1</property>
    <property name="aspect_ratio">1</property>
    <property name="progressive">1</property>
    <property name="seekable">1</property>
    <property name="mlt_service">qimage</property>
    <property name="creation_time">2024-04-18T21:52:04</property>
    <property name="shotcut:caption">blackscreen.png</property>
    <property name="shotcut:hash">02eb36967dd439514cee4af71e69baa3</property>
    <property name="ignore_points">0</property>
    <property name="xml">was here</property>
    <filter id="filter21" out="00:00:01.933">
      <property name="argument"></property>
      <property name="geometry">110 140 1700 800 1</property>
      <property name="family">Sans</property>
      <property name="size">48</property>
      <property name="weight">400</property>
      <property name="style">normal</property>
      <property name="fgcolour">0x000000ff</property>
      <property name="bgcolour">#00000000</property>
      <property name="olcolour">0x00000000</property>
      <property name="pad">0</property>
      <property name="halign">left</property>
      <property name="valign">top</property>
      <property name="outline">0</property>
      <property name="pixel_ratio">1</property>
      <property name="mlt_service">qtext</property>
      <property name="shotcut:filter">richText</property>
      <property name="html">&lt;!DOCTYPE HTML PUBLIC &quot;-//W3C//DTD HTML 4.0//EN&quot; &quot;http://www.w3.org/TR/REC-html40/strict.dtd&quot;&gt;
&lt;html&gt;&lt;head&gt;&lt;meta name=&quot;qrichtext&quot; content=&quot;1&quot; /&gt;&lt;style type=&quot;text/css&quot;&gt;
p, li { white-space: pre-wrap; }
&lt;/style&gt;&lt;/head&gt;&lt;body style=&quot; font-family:'.AppleSystemUIFont'; font-size:13pt; font-weight:400; font-style:normal;&quot;&gt;
&lt;p align=&quot;center&quot; style=&quot; margin-top:0px; margin-bottom:0px; margin-left:0px; margin-right:0px; -qt-block-indent:0; text-indent:0px;&quot;&gt;&lt;span style=&quot; font-family:'Courier New'; font-size:164pt; color:#d1d5d5;&quot;&gt;AUSTIN SHI&lt;/span&gt;&lt;/p&gt;
&lt;p align=&quot;center&quot; style=&quot; margin-top:0px; margin-bottom:0px; margin-left:0px; margin-right:0px; -qt-block-indent:0; text-indent:0px;&quot;&gt;&lt;span style=&quot; font-family:'Courier New'; font-size:136pt; color:#d1d5d5;&quot;&gt;AS&lt;/span&gt;&lt;/p&gt;
&lt;p align=&quot;center&quot; style=&quot; margin-top:0px; margin-bottom:0px; margin-left:0px; margin-right:0px; -qt-block-indent:0; text-indent:0px;&quot;&gt;&lt;span style=&quot; font-family:'Courier New'; font-size:164pt; color:#d1d5d5;&quot;&gt;CHRISTIAN&lt;/span&gt;&lt;/p&gt;&lt;/body&gt;&lt;/html&gt;</property>
      <property name="shotcut:animIn">00:00:00.000</property>
      <property name="shotcut:animOut">00:00:00.000</property>
    </filter>
    <filter id="filter22" out="00:00:01.933">
      <property name="start">1</property>
      <property name="level">00:00:00.000=0;00:00:00.300=1</property>
      <property name="mlt_service">brightness</property>
      <property name="shotcut:filter">fadeInBrightness</property>
      <property name="alpha">1</property>
      <property name="shotcut:animIn">00:00:00.333</property>
    </filter>
    <filter id="filter23" out="00:00:01.933">
      <property name="start">1</property>
      <property name="level">00:00:01.667=1;00:00:01.933=0</property>
      <property name="mlt_service">brightness</property>
      <property name="shotcut:filter">fadeOutBrightness</property>
      <property name="alpha">1</property>
      <property name="shotcut:animOut">9</property>
    </filter>
    <filter id="filter24" out="00:00:01.933">
      <property name="window">75</property>
      <property name="max_gain">20dB</property>
      <property name="level">00:00:01.667=0;00:00:01.933=-60</property>
      <property name="mlt_service">volume</property>
      <property name="shotcut:filter">fadeOutVolume</property>
      <property name="shotcut:animOut">9</property>
    </filter>
  </producer>
  <producer id="producer5" in="00:00:00.000" out="03:59:59.967">
    <property name="length">04:00:00.000</property>
    <property name="eof">pause</property>
    <property name="resource">/Users/jacob/Documents/School/8th Grade (8Se)/Film Studies/DID_U_C_IT/clips/blackscreen.png</property>
    <property name="ttl">1</property>
    <property name="aspect_ratio">1</property>
    <property name="progressive">1</property>
    <property name="seekable">1</property>
    <property name="mlt_service">qimage</property>
    <property name="creation_time">2024-04-18T21:52:04</property>
    <property name="shotcut:caption">blackscreen.png</property>
    <property name="shotcut:hash">02eb36967dd439514cee4af71e69baa3</property>
    <property name="ignore_points">0</property>
    <property name="xml">was here</property>
    <filter id="filter25" out="00:00:01.133">
      <property name="argument"></property>
      <property name="geometry">110 140 1700 800 1</property>
      <property name="family">Sans</property>
      <property name="size">48</property>
      <property name="weight">400</property>
      <property name="style">normal</property>
      <property name="fgcolour">0x000000ff</property>
      <property name="bgcolour">#00000000</property>
      <property name="olcolour">0x00000000</property>
      <property name="pad">0</property>
      <property name="halign">left</property>
      <property name="valign">top</property>
      <property name="outline">0</property>
      <property name="pixel_ratio">1</property>
      <property name="mlt_service">qtext</property>
      <property name="shotcut:filter">richText</property>
      <property name="html">&lt;!DOCTYPE HTML PUBLIC &quot;-//W3C//DTD HTML 4.0//EN&quot; &quot;http://www.w3.org/TR/REC-html40/strict.dtd&quot;&gt;
&lt;html&gt;&lt;head&gt;&lt;meta name=&quot;qrichtext&quot; content=&quot;1&quot; /&gt;&lt;style type=&quot;text/css&quot;&gt;
p, li { white-space: pre-wrap; }
&lt;/style&gt;&lt;/head&gt;&lt;body style=&quot; font-family:'.AppleSystemUIFont'; font-size:13pt; font-weight:400; font-style:normal;&quot;&gt;
&lt;p align=&quot;center&quot; style=&quot; margin-top:0px; margin-bottom:0px; margin-left:0px; margin-right:0px; -qt-block-indent:0; text-indent:0px;&quot;&gt;&lt;span style=&quot; font-family:'Courier New'; font-size:164pt; color:#d1d5d5;&quot;&gt;ARYAN TUMMALA&lt;/span&gt;&lt;/p&gt;
&lt;p align=&quot;center&quot; style=&quot; margin-top:0px; margin-bottom:0px; margin-left:0px; margin-right:0px; -qt-block-indent:0; text-indent:0px;&quot;&gt;&lt;span style=&quot; font-family:'Courier New'; font-size:136pt; color:#d1d5d5;&quot;&gt;AS&lt;/span&gt;&lt;/p&gt;
&lt;p align=&quot;center&quot; style=&quot; margin-top:0px; margin-bottom:0px; margin-left:0px; margin-right:0px; -qt-block-indent:0; text-indent:0px;&quot;&gt;&lt;span style=&quot; font-family:'Courier New'; font-size:164pt; color:#d1d5d5;&quot;&gt;&amp;quot;EYEBALLS&amp;quot;&lt;/span&gt;&lt;/p&gt;&lt;/body&gt;&lt;/html&gt;</property>
      <property name="shotcut:animIn">00:00:00.000</property>
      <property name="shotcut:animOut">00:00:00.000</property>
    </filter>
    <filter id="filter26" out="00:00:01.133">
      <property name="start">1</property>
      <property name="level">00:00:00.000=0;00:00:00.300=1</property>
      <property name="mlt_service">brightness</property>
      <property name="shotcut:filter">fadeInBrightness</property>
      <property name="alpha">1</property>
      <property name="shotcut:animIn">00:00:00.333</property>
    </filter>
  </producer>
  <producer id="producer6" in="00:00:00.000" out="03:59:59.967">
    <property name="length">04:00:00.000</property>
    <property name="eof">pause</property>
    <property name="resource">/Users/jacob/Documents/School/8th Grade (8Se)/Film Studies/DID_U_C_IT/clips/blackscreen.png</property>
    <property name="ttl">1</property>
    <property name="aspect_ratio">1</property>
    <property name="progressive">1</property>
    <property name="seekable">1</property>
    <property name="mlt_service">qimage</property>
    <property name="creation_time">2024-04-18T21:52:04</property>
    <property name="shotcut:caption">blackscreen.png</property>
    <property name="shotcut:hash">02eb36967dd439514cee4af71e69baa3</property>
    <property name="ignore_points">0</property>
    <property name="xml">was here</property>
    <filter id="filter27" in="00:00:01.167" out="00:00:01.933">
      <property name="argument"></property>
      <property name="geometry">110 140 1700 800 1</property>
      <property name="family">Sans</property>
      <property name="size">48</property>
      <property name="weight">400</property>
      <property name="style">normal</property>
      <property name="fgcolour">0x000000ff</property>
      <property name="bgcolour">#00000000</property>
      <property name="olcolour">0x00000000</property>
      <property name="pad">0</property>
      <property name="halign">left</property>
      <property name="valign">top</property>
      <property name="outline">0</property>
      <property name="pixel_ratio">1</property>
      <property name="mlt_service">qtext</property>
      <property name="shotcut:filter">richText</property>
      <property name="html">&lt;!DOCTYPE HTML PUBLIC &quot;-//W3C//DTD HTML 4.0//EN&quot; &quot;http://www.w3.org/TR/REC-html40/strict.dtd&quot;&gt;
&lt;html&gt;&lt;head&gt;&lt;meta name=&quot;qrichtext&quot; content=&quot;1&quot; /&gt;&lt;style type=&quot;text/css&quot;&gt;
p, li { white-space: pre-wrap; }
&lt;/style&gt;&lt;/head&gt;&lt;body style=&quot; font-family:'.AppleSystemUIFont'; font-size:13pt; font-weight:400; font-style:normal;&quot;&gt;
&lt;p align=&quot;center&quot; style=&quot; margin-top:0px; margin-bottom:0px; margin-left:0px; margin-right:0px; -qt-block-indent:0; text-indent:0px;&quot;&gt;&lt;span style=&quot; font-family:'Courier New'; font-size:164pt; color:#d1d5d5;&quot;&gt;ARYAN TUMMALA&lt;/span&gt;&lt;/p&gt;
&lt;p align=&quot;center&quot; style=&quot; margin-top:0px; margin-bottom:0px; margin-left:0px; margin-right:0px; -qt-block-indent:0; text-indent:0px;&quot;&gt;&lt;span style=&quot; font-family:'Courier New'; font-size:136pt; color:#d1d5d5;&quot;&gt;AS&lt;/span&gt;&lt;/p&gt;
&lt;p align=&quot;center&quot; style=&quot; margin-top:0px; margin-bottom:0px; margin-left:0px; margin-right:0px; -qt-block-indent:0; text-indent:0px;&quot;&gt;&lt;span style=&quot; font-family:'Courier New'; font-size:164pt; color:#d1d5d5;&quot;&gt;&amp;quot;EYEBALLS&amp;quot;&lt;/span&gt;&lt;/p&gt;&lt;/body&gt;&lt;/html&gt;</property>
      <property name="shotcut:animIn">00:00:00.000</property>
      <property name="shotcut:animOut">00:00:00.000</property>
    </filter>
    <filter id="filter28" in="00:00:01.167" out="00:00:01.933">
      <property name="start">1</property>
      <property name="level">00:00:00.800=1</property>
      <property name="mlt_service">brightness</property>
      <property name="shotcut:filter">fadeOutBrightness</property>
      <property name="alpha">1</property>
      <property name="shotcut:animOut">9</property>
    </filter>
    <filter id="filter29" in="00:00:01.167" out="00:00:01.933">
      <property name="window">75</property>
      <property name="max_gain">20dB</property>
      <property name="level">00:00:01.667=0;00:00:01.933=-60</property>
      <property name="mlt_service">volume</property>
      <property name="shotcut:filter">fadeOutVolume</property>
      <property name="shotcut:animOut">9</property>
    </filter>
  </producer>
  <producer id="producer7" in="00:00:00.000" out="03:59:59.967">
    <property name="length">04:00:00.000</property>
    <property name="eof">pause</property>
    <property name="resource">/Users/jacob/Documents/School/8th Grade (8Se)/Film Studies/DID_U_C_IT/clips/Screenshot 2024-04-19 at 14.35.22.png</property>
    <property name="ttl">1</property>
    <property name="aspect_ratio">1</property>
    <property name="progressive">1</property>
    <property name="seekable">1</property>
    <property name="mlt_service">qimage</property>
    <property name="creation_time">2024-04-19T21:35:28</property>
    <property name="shotcut:caption">Screenshot 2024-04-19 at 14.35.22.png</property>
    <property name="shotcut:hash">66297f5e87b5dfd82eb0d6576984f26f</property>
    <property name="ignore_points">0</property>
    <property name="xml">was here</property>
    <filter id="filter30" out="00:00:00.467">
      <property name="background">color:#00000000</property>
      <property name="mlt_service">affine</property>
      <property name="shotcut:filter">affineSizePosition</property>
      <property name="transition.fill">1</property>
      <property name="transition.distort">0</property>
      <property name="transition.rect">-94.8688 -54 2109.11 1188 1</property>
      <property name="transition.valign">middle</property>
      <property name="transition.halign">center</property>
      <property name="shotcut:animIn">00:00:00.000</property>
      <property name="shotcut:animOut">00:00:00.000</property>
      <property name="transition.threads">0</property>
      <property name="transition.fix_rotate_x">0</property>
    </filter>
  </producer>
  <producer id="producer8" in="00:00:00.000" out="03:59:59.967">
    <property name="length">04:00:00.000</property>
    <property name="eof">pause</property>
    <property name="resource">/Users/jacob/Documents/School/8th Grade (8Se)/Film Studies/DID_U_C_IT/clips/Screenshot 2024-04-19 at 14.36.27.png</property>
    <property name="ttl">1</property>
    <property name="aspect_ratio">1</property>
    <property name="progressive">1</property>
    <property name="seekable">1</property>
    <property name="mlt_service">qimage</property>
    <property name="creation_time">2024-04-19T21:36:33</property>
    <property name="shotcut:hash">89308b4c52d368aadbc5a4291a99c56e</property>
    <property name="shotcut:caption">Screenshot 2024-04-19 at 14.36.27.png</property>
    <property name="xml">was here</property>
    <filter id="filter31" out="00:00:00.300">
      <property name="background">color:#00000000</property>
      <property name="mlt_service">affine</property>
      <property name="shotcut:filter">affineSizePosition</property>
      <property name="transition.fill">1</property>
      <property name="transition.distort">0</property>
      <property name="transition.rect">-94.8688 -54 2109.11 1188 1</property>
      <property name="transition.valign">middle</property>
      <property name="transition.halign">center</property>
      <property name="shotcut:animIn">00:00:00.000</property>
      <property name="shotcut:animOut">00:00:00.000</property>
      <property name="transition.threads">0</property>
      <property name="transition.fix_rotate_x">0</property>
    </filter>
  </producer>
  <producer id="producer9" in="00:00:00.000" out="03:59:59.967">
    <property name="length">04:00:00.000</property>
    <property name="eof">pause</property>
    <property name="resource">/Users/jacob/Documents/School/8th Grade (8Se)/Film Studies/DID_U_C_IT/clips/Screenshot 2024-04-19 at 14.36.33.png</property>
    <property name="ttl">1</property>
    <property name="aspect_ratio">1</property>
    <property name="progressive">1</property>
    <property name="seekable">1</property>
    <property name="mlt_service">qimage</property>
    <property name="creation_time">2024-04-19T21:36:39</property>
    <property name="shotcut:hash">50374eb80f57fb1e72cdfb47aee80167</property>
    <property name="shotcut:caption">Screenshot 2024-04-19 at 14.36.33.png</property>
    <property name="xml">was here</property>
    <filter id="filter32" out="00:00:00.500">
      <property name="background">color:#00000000</property>
      <property name="mlt_service">affine</property>
      <property name="shotcut:filter">affineSizePosition</property>
      <property name="transition.fill">1</property>
      <property name="transition.distort">0</property>
      <property name="transition.rect">-94.8688 -54 2109.11 1188 1</property>
      <property name="transition.valign">middle</property>
      <property name="transition.halign">center</property>
      <property name="shotcut:animIn">00:00:00.000</property>
      <property name="shotcut:animOut">00:00:00.000</property>
      <property name="transition.threads">0</property>
      <property name="transition.fix_rotate_x">0</property>
    </filter>
  </producer>
  <producer id="producer10" in="00:00:00.000" out="03:59:59.967">
    <property name="length">04:00:00.000</property>
    <property name="eof">pause</property>
    <property name="resource">/Users/jacob/Documents/School/8th Grade (8Se)/Film Studies/DID_U_C_IT/clips/Screenshot 2024-04-19 at 14.36.39.png</property>
    <property name="ttl">1</property>
    <property name="aspect_ratio">1</property>
    <property name="progressive">1</property>
    <property name="seekable">1</property>
    <property name="mlt_service">qimage</property>
    <property name="creation_time">2024-04-19T21:36:45</property>
    <property name="shotcut:hash">45fa49530dbe53ed9f11a8517992320b</property>
    <property name="shotcut:caption">Screenshot 2024-04-19 at 14.36.39.png</property>
    <property name="xml">was here</property>
    <filter id="filter33" out="00:00:00.400">
      <property name="background">color:#00000000</property>
      <property name="mlt_service">affine</property>
      <property name="shotcut:filter">affineSizePosition</property>
      <property name="transition.fill">1</property>
      <property name="transition.distort">0</property>
      <property name="transition.rect">-94.8688 -54 2109.11 1188 1</property>
      <property name="transition.valign">middle</property>
      <property name="transition.halign">center</property>
      <property name="shotcut:animIn">00:00:00.000</property>
      <property name="shotcut:animOut">00:00:00.000</property>
      <property name="transition.threads">0</property>
      <property name="transition.fix_rotate_x">0</property>
    </filter>
  </producer>
  <producer id="producer11" in="00:00:00.000" out="03:59:59.967">
    <property name="length">04:00:00.000</property>
    <property name="eof">pause</property>
    <property name="resource">/Users/jacob/Documents/School/8th Grade (8Se)/Film Studies/DID_U_C_IT/clips/Screenshot 2024-04-19 at 14.36.45.png</property>
    <property name="ttl">1</property>
    <property name="aspect_ratio">1</property>
    <property name="progressive">1</property>
    <property name="seekable">1</property>
    <property name="mlt_service">qimage</property>
    <property name="creation_time">2024-04-19T21:36:51</property>
    <property name="shotcut:hash">af53037c7ca0bb1087327edb269c0f26</property>
    <property name="shotcut:caption">Screenshot 2024-04-19 at 14.36.45.png</property>
    <property name="xml">was here</property>
    <filter id="filter34" out="00:00:01.533">
      <property name="background">color:#00000000</property>
      <property name="mlt_service">affine</property>
      <property name="shotcut:filter">affineSizePosition</property>
      <property name="transition.fill">1</property>
      <property name="transition.distort">0</property>
      <property name="transition.rect">-94.8688 -54 2109.11 1188 1</property>
      <property name="transition.valign">middle</property>
      <property name="transition.halign">center</property>
      <property name="shotcut:animIn">00:00:00.000</property>
      <property name="shotcut:animOut">00:00:00.000</property>
      <property name="transition.threads">0</property>
      <property name="transition.fix_rotate_x">0</property>
    </filter>
  </producer>
  <chain id="chain1" out="00:01:46.300">
    <property name="length">00:01:46.333</property>
    <property name="eof">pause</property>
    <property name="resource">/Users/jacob/Documents/School/8th Grade (8Se)/Film Studies/DID_U_C_IT/clips/works_doc_interview_1.MOV</property>
    <property name="mlt_service">avformat-novalidate</property>
    <property name="seekable">1</property>
    <property name="audio_index">1</property>
    <property name="video_index">0</property>
    <property name="mute_on_pause">0</property>
    <property name="shotcut:hash">d1b4bf81cb59d25cf9a4a4c28e0a3668</property>
    <property name="shotcut:caption">works_doc_interview_1.MOV</property>
    <property name="xml">was here</property>
    <filter id="filter35" in="00:00:04.167" out="00:01:45.067">
      <property name="lift_r">-0.0290074</property>
      <property name="lift_g">-0.0290074</property>
      <property name="lift_b">-0.0290074</property>
      <property name="gamma_r">1.041</property>
      <property name="gamma_g">0.741985</property>
      <property name="gamma_b">0.793988</property>
      <property name="gain_r">1</property>
      <property name="gain_g">1</property>
      <property name="gain_b">1</property>
      <property name="mlt_service">lift_gamma_gain</property>
    </filter>
  </chain>
  <chain id="chain2" out="00:00:42.867">
    <property name="length">00:00:42.900</property>
    <property name="eof">pause</property>
    <property name="resource">/Users/jacob/Documents/School/8th Grade (8Se)/Film Studies/DID_U_C_IT/clips/INFILM_working_lilcharles_interview.MOV</property>
    <property name="mlt_service">avformat-novalidate</property>
    <property name="seekable">1</property>
    <property name="audio_index">1</property>
    <property name="video_index">0</property>
    <property name="mute_on_pause">0</property>
    <property name="shotcut:hash">49744587310b9b0a0a4c3b6ede8a39be</property>
    <property name="ignore_points">0</property>
    <property name="shotcut:caption">INFILM_working_lilcharles_interview.MOV</property>
    <property name="xml">was here</property>
    <filter id="filter36" in="00:00:00.533" out="00:00:41.533">
      <property name="lift_r">-0.218921</property>
      <property name="lift_g">-0.218921</property>
      <property name="lift_b">-0.218921</property>
      <property name="gamma_r">1.00002</property>
      <property name="gamma_g">0.681987</property>
      <property name="gamma_b">0.711986</property>
      <property name="gain_r">1</property>
      <property name="gain_g">1</property>
      <property name="gain_b">1</property>
      <property name="mlt_service">lift_gamma_gain</property>
    </filter>
  </chain>
  <chain id="chain3" out="00:01:37.533">
    <property name="length">00:01:37.567</property>
    <property name="eof">pause</property>
    <property name="resource">/Users/jacob/Documents/School/8th Grade (8Se)/Film Studies/DID_U_C_IT/clips/INFILM_works_crazy_interview_1.MOV</property>
    <property name="mlt_service">avformat-novalidate</property>
    <property name="seekable">1</property>
    <property name="audio_index">1</property>
    <property name="video_index">0</property>
    <property name="mute_on_pause">0</property>
    <property name="shotcut:hash">3f073d5af4e3a12eb0fbdc24ca56eae8</property>
    <property name="shotcut:caption">INFILM_works_crazy_interview_1.MOV</property>
    <property name="xml">was here</property>
    <filter id="filter37" in="00:00:04.533" out="00:01:37.533">
      <property name="start">1</property>
      <property name="level">00:01:30.033=1;00:01:33.000=0</property>
      <property name="mlt_service">brightness</property>
      <property name="shotcut:filter">fadeOutBrightness</property>
      <property name="alpha">1</property>
      <property name="shotcut:animOut">00:00:03.000</property>
    </filter>
    <filter id="filter38" in="00:00:04.533" out="00:01:37.533">
      <property name="lift_r">0</property>
      <property name="lift_g">0</property>
      <property name="lift_b">0</property>
      <property name="gamma_r">0.913008</property>
      <property name="gamma_g">0.624186</property>
      <property name="gamma_b">0.660197</property>
      <property name="gain_r">1</property>
      <property name="gain_g">1</property>
      <property name="gain_b">1</property>
      <property name="mlt_service">lift_gamma_gain</property>
    </filter>
    <filter id="filter39" in="00:00:04.533" out="00:01:37.533">
      <property name="window">75</property>
      <property name="max_gain">20dB</property>
      <property name="level">00:01:31.033=0;00:01:33.000=-60</property>
      <property name="mlt_service">volume</property>
      <property name="shotcut:filter">fadeOutVolume</property>
      <property name="shotcut:animOut">00:00:02.000</property>
    </filter>
  </chain>
  <chain id="chain4" out="00:02:04.800">
    <property name="length">00:02:04.833</property>
    <property name="eof">pause</property>
    <property name="resource">/Users/jacob/Documents/School/8th Grade (8Se)/Film Studies/DID_U_C_IT/clips/working_entrance1_1.MOV</property>
    <property name="mlt_service">avformat-novalidate</property>
    <property name="seekable">1</property>
    <property name="audio_index">1</property>
    <property name="video_index">0</property>
    <property name="mute_on_pause">0</property>
    <property name="shotcut:hash">e2308df4560f27dbfad9515e45b92e18</property>
    <property name="shotcut:caption">working_entrance1_1.MOV</property>
    <property name="xml">was here</property>
    <filter id="filter40" in="00:00:05.400" out="00:01:16.200">
      <property name="lift_r">1.5259e-05</property>
      <property name="lift_g">1.5259e-05</property>
      <property name="lift_b">1.5259e-05</property>
      <property name="gamma_r">1.00002</property>
      <property name="gamma_g">0.765545</property>
      <property name="gamma_b">0.784405</property>
      <property name="gain_r">1.00003</property>
      <property name="gain_g">1.00003</property>
      <property name="gain_b">1.00003</property>
      <property name="mlt_service">lift_gamma_gain</property>
    </filter>
    <filter id="filter41" in="00:00:05.400" out="00:01:16.200">
      <property name="lift_r">0</property>
      <property name="lift_g">0</property>
      <property name="lift_b">0</property>
      <property name="gamma_r">1.12</property>
      <property name="gamma_g">1.12</property>
      <property name="gamma_b">1.12</property>
      <property name="gain_r">0.88</property>
      <property name="gain_g">0.88</property>
      <property name="gain_b">0.88</property>
      <property name="mlt_service">lift_gamma_gain</property>
      <property name="shotcut:filter">contrast</property>
    </filter>
  </chain>
  <chain id="chain5" out="00:00:19.967">
    <property name="length">00:00:20.000</property>
    <property name="eof">pause</property>
    <property name="resource">/Users/jacob/Documents/School/8th Grade (8Se)/Film Studies/DID_U_C_IT/clips/6923433-sd_960_540_30fps.mp4</property>
    <property name="mlt_service">avformat-novalidate</property>
    <property name="seekable">1</property>
    <property name="audio_index">-1</property>
    <property name="video_index">0</property>
    <property name="mute_on_pause">0</property>
    <property name="shotcut:hash">0069d9bb23ce18bbe36509c22d296fe0</property>
    <property name="shotcut:caption">6923433-sd_960_540_30fps.mp4</property>
    <property name="xml">was here</property>
  </chain>
  <chain id="chain6" out="00:04:19.967">
    <property name="length">00:04:20.000</property>
    <property name="eof">pause</property>
    <property name="resource">/Users/jacob/Documents/School/8th Grade (8Se)/Film Studies/DID_U_C_IT/clips/working_entrance2_2.MOV</property>
    <property name="mlt_service">avformat-novalidate</property>
    <property name="seekable">1</property>
    <property name="audio_index">1</property>
    <property name="video_index">0</property>
    <property name="mute_on_pause">0</property>
    <property name="shotcut:hash">4eccfdbdd54231e46417883559fe9a46</property>
    <property name="shotcut:caption">working_entrance2_2.MOV</property>
    <property name="xml">was here</property>
    <filter id="filter42" in="00:00:08.200" out="00:04:20.200">
      <property name="start">1</property>
      <property name="level">00:00:00.000=0;00:00:00.467=1</property>
      <property name="mlt_service">brightness</property>
      <property name="shotcut:filter">fadeInBrightness</property>
      <property name="alpha">1</property>
      <property name="shotcut:animIn">00:00:00.500</property>
    </filter>
    <filter id="filter43" in="00:00:08.200" out="00:04:20.200">
      <property name="lift_r">0</property>
      <property name="lift_g">0</property>
      <property name="lift_b">0</property>
      <property name="gamma_r">1.16</property>
      <property name="gamma_g">1.16</property>
      <property name="gamma_b">1.16</property>
      <property name="gain_r">0.84</property>
      <property name="gain_g">0.84</property>
      <property name="gain_b">0.84</property>
      <property name="mlt_service">lift_gamma_gain</property>
      <property name="shotcut:filter">contrast</property>
    </filter>
    <filter id="filter44" in="00:00:08.200" out="00:04:20.200">
      <property name="lift_r">0</property>
      <property name="lift_g">0</property>
      <property name="lift_b">0</property>
      <property name="gamma_r">1.00002</property>
      <property name="gamma_g">0.742229</property>
      <property name="gamma_b">0.766918</property>
      <property name="gain_r">1</property>
      <property name="gain_g">1</property>
      <property name="gain_b">1</property>
      <property name="mlt_service">lift_gamma_gain</property>
    </filter>
  </chain>
  <chain id="chain7" out="00:03:02.667">
    <property name="length">00:03:02.700</property>
    <property name="eof">pause</property>
    <property name="resource">/Users/jacob/Documents/School/8th Grade (8Se)/Film Studies/DID_U_C_IT/clips/working_entrance3.MOV</property>
    <property name="mlt_service">avformat-novalidate</property>
    <property name="seekable">1</property>
    <property name="audio_index">1</property>
    <property name="video_index">0</property>
    <property name="mute_on_pause">0</property>
    <property name="shotcut:hash">2b77e82dc7e1edc290c88381cbe8e68b</property>
    <property name="shotcut:caption">working_entrance3.MOV</property>
    <property name="xml">was here</property>
    <filter id="filter45" in="00:00:06.000" out="00:02:58.133">
      <property name="lift_r">-0.136095</property>
      <property name="lift_g">-0.136095</property>
      <property name="lift_b">-0.136095</property>
      <property name="gamma_r">1.00002</property>
      <property name="gamma_g">0.772015</property>
      <property name="gamma_b">0.823987</property>
      <property name="gain_r">1</property>
      <property name="gain_g">1</property>
      <property name="gain_b">1</property>
      <property name="mlt_service">lift_gamma_gain</property>
    </filter>
  </chain>
  <tractor id="tractor0" in="00:00:00.000" out="00:00:00.000">
    <property name="shotcut:transition">lumaMix</property>
    <track producer="chain6" in="00:04:19.733" out="00:04:19.733"/>
    <track producer="chain7" in="00:00:06.000" out="00:00:06.000"/>
    <transition id="transition0">
      <property name="a_track">0</property>
      <property name="b_track">1</property>
      <property name="factory">loader</property>
      <property name="mlt_service">luma</property>
      <property name="alpha_over">1</property>
    </transition>
    <transition id="transition1">
      <property name="a_track">0</property>
      <property name="b_track">1</property>
      <property name="mlt_service">mix</property>
      <property name="start">-1</property>
      <property name="accepts_blanks">1</property>
    </transition>
  </tractor>
  <producer id="producer12" in="00:00:00.000" out="00:01:31.300">
    <property name="length">00:01:31.333</property>
    <property name="eof">pause</property>
    <property name="resource">2:/Users/jacob/Documents/School/8th Grade (8Se)/Film Studies/DID_U_C_IT/clips/working_entrance3.MOV</property>
    <property name="aspect_ratio">1</property>
    <property name="seekable">1</property>
    <property name="audio_index">-1</property>
    <property name="video_index">0</property>
    <property name="mute_on_pause">1</property>
    <property name="warp_speed">2</property>
    <property name="warp_resource">/Users/jacob/Documents/School/8th Grade (8Se)/Film Studies/DID_U_C_IT/clips/working_entrance3.MOV</property>
    <property name="mlt_service">timewarp</property>
    <property name="shotcut:producer">avformat</property>
    <property name="video_delay">0</property>
    <property name="shotcut:hash">2b77e82dc7e1edc290c88381cbe8e68b</property>
    <property name="shotcut:caption">working_entrance3.MOV (2x)</property>
    <property name="xml">was here</property>
    <property name="shotcut:defaultAudioIndex">1</property>
    <filter id="filter46" in="00:01:28.900" out="00:01:29.267">
      <property name="lift_r">-0.619013</property>
      <property name="lift_g">-0.619013</property>
      <property name="lift_b">-0.619013</property>
      <property name="gamma_r">1.00002</property>
      <property name="gamma_g">0.743999</property>
      <property name="gamma_b">0.780987</property>
      <property name="gain_r">1</property>
      <property name="gain_g">1</property>
      <property name="gain_b">1</property>
      <property name="mlt_service">lift_gamma_gain</property>
    </filter>
  </producer>
  <chain id="chain9" out="00:00:19.967">
    <property name="length">00:00:20.000</property>
    <property name="eof">pause</property>
    <property name="resource">/Users/jacob/Documents/School/8th Grade (8Se)/Film Studies/DID_U_C_IT/clips/6923433-sd_960_540_30fps.mp4</property>
    <property name="mlt_service">avformat-novalidate</property>
    <property name="seekable">1</property>
    <property name="audio_index">-1</property>
    <property name="video_index">0</property>
    <property name="mute_on_pause">0</property>
    <property name="shotcut:hash">0069d9bb23ce18bbe36509c22d296fe0</property>
    <property name="shotcut:caption">6923433-sd_960_540_30fps.mp4</property>
    <property name="xml">was here</property>
  </chain>
  <chain id="chain8" out="00:00:22.967">
    <property name="length">00:00:23.000</property>
    <property name="eof">pause</property>
    <property name="resource">/Users/jacob/Documents/School/8th Grade (8Se)/Film Studies/DID_U_C_IT/clips/working_diducit.MOV</property>
    <property name="mlt_service">avformat-novalidate</property>
    <property name="seekable">1</property>
    <property name="audio_index">1</property>
    <property name="video_index">0</property>
    <property name="mute_on_pause">0</property>
    <property name="shotcut:hash">2d30dfa6932c2f436b33ff0adf43822f</property>
    <property name="shotcut:caption">working_diducit.MOV</property>
    <property name="xml">was here</property>
    <filter id="filter47" in="00:00:03.267" out="00:00:20.433">
      <property name="lift_r">-0.0650797</property>
      <property name="lift_g">-0.0760967</property>
      <property name="lift_b">-0.0760967</property>
      <property name="gamma_r">1.00002</property>
      <property name="gamma_g">0.765545</property>
      <property name="gamma_b">0.784405</property>
      <property name="gain_r">1</property>
      <property name="gain_g">1</property>
      <property name="gain_b">1</property>
      <property name="mlt_service">lift_gamma_gain</property>
    </filter>
  </chain>
  <producer id="producer13" in="00:00:00.000" out="03:59:59.967">
    <property name="length">04:00:00.000</property>
    <property name="eof">pause</property>
    <property name="resource">/Users/jacob/Documents/School/8th Grade (8Se)/Film Studies/DID_U_C_IT/clips/blackscreen.png</property>
    <property name="ttl">1</property>
    <property name="aspect_ratio">1</property>
    <property name="progressive">1</property>
    <property name="seekable">1</property>
    <property name="mlt_service">qimage</property>
    <property name="creation_time">2024-04-18T21:52:04</property>
    <property name="shotcut:caption">blackscreen.png</property>
    <property name="shotcut:hash">02eb36967dd439514cee4af71e69baa3</property>
    <property name="ignore_points">0</property>
    <property name="xml">was here</property>
    <filter id="filter49" in="00:00:00.667" out="00:00:02.300">
      <property name="argument"></property>
      <property name="geometry">110 140 1700 800 1</property>
      <property name="family">Sans</property>
      <property name="size">48</property>
      <property name="weight">400</property>
      <property name="style">normal</property>
      <property name="fgcolour">0x000000ff</property>
      <property name="bgcolour">#00000000</property>
      <property name="olcolour">0x00000000</property>
      <property name="pad">0</property>
      <property name="halign">left</property>
      <property name="valign">top</property>
      <property name="outline">0</property>
      <property name="pixel_ratio">1</property>
      <property name="mlt_service">qtext</property>
      <property name="shotcut:filter">richText</property>
      <property name="html">&lt;!DOCTYPE HTML PUBLIC &quot;-//W3C//DTD HTML 4.0//EN&quot; &quot;http://www.w3.org/TR/REC-html40/strict.dtd&quot;&gt;
&lt;html&gt;&lt;head&gt;&lt;meta name=&quot;qrichtext&quot; content=&quot;1&quot; /&gt;&lt;style type=&quot;text/css&quot;&gt;
p, li { white-space: pre-wrap; }
&lt;/style&gt;&lt;/head&gt;&lt;body style=&quot; font-family:'.AppleSystemUIFont'; font-size:13pt; font-weight:400; font-style:normal;&quot;&gt;
&lt;p align=&quot;center&quot; style=&quot; margin-top:0px; margin-bottom:0px; margin-left:0px; margin-right:0px; -qt-block-indent:0; text-indent:0px;&quot;&gt;&lt;span style=&quot; font-family:'Courier New'; font-size:136pt; color:#d1d5d5;&quot;&gt;DIRECTED BY&lt;/span&gt;&lt;/p&gt;
&lt;p align=&quot;center&quot; style=&quot; margin-top:0px; margin-bottom:0px; margin-left:0px; margin-right:0px; -qt-block-indent:0; text-indent:0px;&quot;&gt;&lt;span style=&quot; font-family:'Courier New'; font-size:164pt; color:#d1d5d5;&quot;&gt;AADRIT TALUKDAR&lt;/span&gt;&lt;/p&gt;
&lt;p align=&quot;center&quot; style=&quot;-qt-paragraph-type:empty; margin-top:0px; margin-bottom:0px; margin-left:0px; margin-right:0px; -qt-block-indent:0; text-indent:0px;&quot;&gt;&lt;br /&gt;&lt;/p&gt;&lt;/body&gt;&lt;/html&gt;</property>
      <property name="shotcut:animIn">00:00:00.000</property>
      <property name="shotcut:animOut">00:00:00.000</property>
    </filter>
    <filter id="filter51" in="00:00:00.667" out="00:00:02.300">
      <property name="start">1</property>
      <property name="level">00:00:01.667=1</property>
      <property name="mlt_service">brightness</property>
      <property name="shotcut:filter">fadeOutBrightness</property>
      <property name="alpha">1</property>
      <property name="shotcut:animOut">00:00:00.333</property>
    </filter>
  </producer>
  <producer id="producer14" in="00:00:00.000" out="03:59:59.967">
    <property name="length">04:00:00.000</property>
    <property name="eof">pause</property>
    <property name="resource">/Users/jacob/Documents/School/8th Grade (8Se)/Film Studies/DID_U_C_IT/clips/blackscreen.png</property>
    <property name="ttl">1</property>
    <property name="aspect_ratio">1</property>
    <property name="progressive">1</property>
    <property name="seekable">1</property>
    <property name="mlt_service">qimage</property>
    <property name="creation_time">2024-04-18T21:52:04</property>
    <property name="shotcut:caption">blackscreen.png</property>
    <property name="shotcut:hash">02eb36967dd439514cee4af71e69baa3</property>
    <property name="ignore_points">0</property>
    <property name="xml">was here</property>
    <filter id="filter53" out="00:00:02.300">
      <property name="argument"></property>
      <property name="geometry">110 140 1700 800 1</property>
      <property name="family">Sans</property>
      <property name="size">48</property>
      <property name="weight">400</property>
      <property name="style">normal</property>
      <property name="fgcolour">0x000000ff</property>
      <property name="bgcolour">#00000000</property>
      <property name="olcolour">0x00000000</property>
      <property name="pad">0</property>
      <property name="halign">left</property>
      <property name="valign">top</property>
      <property name="outline">0</property>
      <property name="pixel_ratio">1</property>
      <property name="mlt_service">qtext</property>
      <property name="shotcut:filter">richText</property>
      <property name="html">&lt;!DOCTYPE HTML PUBLIC &quot;-//W3C//DTD HTML 4.0//EN&quot; &quot;http://www.w3.org/TR/REC-html40/strict.dtd&quot;&gt;
&lt;html&gt;&lt;head&gt;&lt;meta name=&quot;qrichtext&quot; content=&quot;1&quot; /&gt;&lt;style type=&quot;text/css&quot;&gt;
p, li { white-space: pre-wrap; }
&lt;/style&gt;&lt;/head&gt;&lt;body style=&quot; font-family:'.AppleSystemUIFont'; font-size:13pt; font-weight:400; font-style:normal;&quot;&gt;
&lt;p align=&quot;center&quot; style=&quot; margin-top:0px; margin-bottom:0px; margin-left:0px; margin-right:0px; -qt-block-indent:0; text-indent:0px;&quot;&gt;&lt;span style=&quot; font-family:'Courier New'; font-size:136pt; color:#d1d5d5;&quot;&gt;PRODUCED BY&lt;/span&gt;&lt;/p&gt;
&lt;p align=&quot;center&quot; style=&quot; margin-top:0px; margin-bottom:0px; margin-left:0px; margin-right:0px; -qt-block-indent:0; text-indent:0px;&quot;&gt;&lt;span style=&quot; font-family:'Courier New'; font-size:164pt; color:#d1d5d5;&quot;&gt;JACOB LIU&lt;/span&gt;&lt;/p&gt;
&lt;p align=&quot;center&quot; style=&quot;-qt-paragraph-type:empty; margin-top:0px; margin-bottom:0px; margin-left:0px; margin-right:0px; -qt-block-indent:0; text-indent:0px;&quot;&gt;&lt;br /&gt;&lt;/p&gt;&lt;/body&gt;&lt;/html&gt;</property>
      <property name="shotcut:animIn">00:00:00.000</property>
      <property name="shotcut:animOut">00:00:00.000</property>
    </filter>
    <filter id="filter54" out="00:00:02.300">
      <property name="start">1</property>
      <property name="level">00:00:00.000=0;00:00:00.333=1</property>
      <property name="mlt_service">brightness</property>
      <property name="shotcut:filter">fadeInBrightness</property>
      <property name="alpha">1</property>
      <property name="shotcut:animIn">11</property>
    </filter>
    <filter id="filter55" out="00:00:02.300">
      <property name="start">1</property>
      <property name="level">00:00:02.000=1;00:00:02.300=0</property>
      <property name="mlt_service">brightness</property>
      <property name="shotcut:filter">fadeOutBrightness</property>
      <property name="alpha">1</property>
      <property name="shotcut:animOut">00:00:00.333</property>
    </filter>
    <filter id="filter56" out="00:00:02.300">
      <property name="window">75</property>
      <property name="max_gain">20dB</property>
      <property name="level">00:00:00.000=-60;00:00:00.333=0</property>
      <property name="mlt_service">volume</property>
      <property name="shotcut:filter">fadeInVolume</property>
      <property name="shotcut:animIn">11</property>
    </filter>
  </producer>
  <producer id="producer15" in="00:00:00.000" out="03:59:59.967">
    <property name="length">04:00:00.000</property>
    <property name="eof">pause</property>
    <property name="resource">/Users/jacob/Documents/School/8th Grade (8Se)/Film Studies/DID_U_C_IT/clips/blackscreen.png</property>
    <property name="ttl">1</property>
    <property name="aspect_ratio">1</property>
    <property name="progressive">1</property>
    <property name="seekable">1</property>
    <property name="mlt_service">qimage</property>
    <property name="creation_time">2024-04-18T21:52:04</property>
    <property name="shotcut:caption">blackscreen.png</property>
    <property name="shotcut:hash">02eb36967dd439514cee4af71e69baa3</property>
    <property name="ignore_points">0</property>
    <property name="xml">was here</property>
    <filter id="filter57" out="00:00:02.300">
      <property name="argument"></property>
      <property name="geometry">110 140 1700 800 1</property>
      <property name="family">Sans</property>
      <property name="size">48</property>
      <property name="weight">400</property>
      <property name="style">normal</property>
      <property name="fgcolour">0x000000ff</property>
      <property name="bgcolour">#00000000</property>
      <property name="olcolour">0x00000000</property>
      <property name="pad">0</property>
      <property name="halign">left</property>
      <property name="valign">top</property>
      <property name="outline">0</property>
      <property name="pixel_ratio">1</property>
      <property name="mlt_service">qtext</property>
      <property name="shotcut:filter">richText</property>
      <property name="html">&lt;!DOCTYPE HTML PUBLIC &quot;-//W3C//DTD HTML 4.0//EN&quot; &quot;http://www.w3.org/TR/REC-html40/strict.dtd&quot;&gt;
&lt;html&gt;&lt;head&gt;&lt;meta name=&quot;qrichtext&quot; content=&quot;1&quot; /&gt;&lt;style type=&quot;text/css&quot;&gt;
p, li { white-space: pre-wrap; }
&lt;/style&gt;&lt;/head&gt;&lt;body style=&quot; font-family:'.AppleSystemUIFont'; font-size:13pt; font-weight:400; font-style:normal;&quot;&gt;
&lt;p align=&quot;center&quot; style=&quot;-qt-paragraph-type:empty; margin-top:0px; margin-bottom:0px; margin-left:0px; margin-right:0px; -qt-block-indent:0; text-indent:0px;&quot;&gt;&lt;br /&gt;&lt;/p&gt;
&lt;p align=&quot;center&quot; style=&quot; margin-top:0px; margin-bottom:0px; margin-left:0px; margin-right:0px; -qt-block-indent:0; text-indent:0px;&quot;&gt;&lt;span style=&quot; font-family:'Courier New'; font-size:164pt; color:#d1d5d5;&quot;&gt;SIYU FAN&lt;/span&gt;&lt;/p&gt;
&lt;p align=&quot;center&quot; style=&quot; margin-top:0px; margin-bottom:0px; margin-left:0px; margin-right:0px; -qt-block-indent:0; text-indent:0px;&quot;&gt;&lt;span style=&quot; font-family:'Courier New'; font-size:136pt; color:#d1d5d5;&quot;&gt;AS&lt;/span&gt;&lt;/p&gt;
&lt;p align=&quot;center&quot; style=&quot; margin-top:0px; margin-bottom:0px; margin-left:0px; margin-right:0px; -qt-block-indent:0; text-indent:0px;&quot;&gt;&lt;span style=&quot; font-family:'Courier New'; font-size:164pt; color:#d1d5d5;&quot;&gt;CALLIE&lt;/span&gt;&lt;/p&gt;&lt;/body&gt;&lt;/html&gt;</property>
      <property name="shotcut:animIn">00:00:00.000</property>
      <property name="shotcut:animOut">00:00:00.000</property>
    </filter>
    <filter id="filter58" out="00:00:02.300">
      <property name="start">1</property>
      <property name="level">00:00:00.000=0;00:00:00.300=1</property>
      <property name="mlt_service">brightness</property>
      <property name="shotcut:filter">fadeInBrightness</property>
      <property name="alpha">1</property>
      <property name="shotcut:animIn">00:00:00.333</property>
    </filter>
    <filter id="filter59" out="00:00:02.300">
      <property name="start">1</property>
      <property name="level">00:00:02.033=1;00:00:02.300=0</property>
      <property name="mlt_service">brightness</property>
      <property name="shotcut:filter">fadeOutBrightness</property>
      <property name="alpha">1</property>
      <property name="shotcut:animOut">9</property>
    </filter>
    <filter id="filter60" out="00:00:02.300">
      <property name="window">75</property>
      <property name="max_gain">20dB</property>
      <property name="level">00:00:02.033=0;00:00:02.300=-60</property>
      <property name="mlt_service">volume</property>
      <property name="shotcut:filter">fadeOutVolume</property>
      <property name="shotcut:animOut">9</property>
    </filter>
  </producer>
  <producer id="producer16" in="00:00:00.000" out="03:59:59.967">
    <property name="length">04:00:00.000</property>
    <property name="eof">pause</property>
    <property name="resource">/Users/jacob/Documents/School/8th Grade (8Se)/Film Studies/DID_U_C_IT/clips/blackscreen.png</property>
    <property name="ttl">1</property>
    <property name="aspect_ratio">1</property>
    <property name="progressive">1</property>
    <property name="seekable">1</property>
    <property name="mlt_service">qimage</property>
    <property name="creation_time">2024-04-18T21:52:04</property>
    <property name="shotcut:caption">blackscreen.png</property>
    <property name="shotcut:hash">02eb36967dd439514cee4af71e69baa3</property>
    <property name="ignore_points">0</property>
    <property name="xml">was here</property>
    <filter id="filter61" out="00:00:02.300">
      <property name="argument"></property>
      <property name="geometry">110 140 1700 800 1</property>
      <property name="family">Sans</property>
      <property name="size">48</property>
      <property name="weight">400</property>
      <property name="style">normal</property>
      <property name="fgcolour">0x000000ff</property>
      <property name="bgcolour">#00000000</property>
      <property name="olcolour">0x00000000</property>
      <property name="pad">0</property>
      <property name="halign">left</property>
      <property name="valign">top</property>
      <property name="outline">0</property>
      <property name="pixel_ratio">1</property>
      <property name="mlt_service">qtext</property>
      <property name="shotcut:filter">richText</property>
      <property name="html">&lt;!DOCTYPE HTML PUBLIC &quot;-//W3C//DTD HTML 4.0//EN&quot; &quot;http://www.w3.org/TR/REC-html40/strict.dtd&quot;&gt;
&lt;html&gt;&lt;head&gt;&lt;meta name=&quot;qrichtext&quot; content=&quot;1&quot; /&gt;&lt;style type=&quot;text/css&quot;&gt;
p, li { white-space: pre-wrap; }
&lt;/style&gt;&lt;/head&gt;&lt;body style=&quot; font-family:'.AppleSystemUIFont'; font-size:13pt; font-weight:400; font-style:normal;&quot;&gt;
&lt;p align=&quot;center&quot; style=&quot; margin-top:0px; margin-bottom:0px; margin-left:0px; margin-right:0px; -qt-block-indent:0; text-indent:0px;&quot;&gt;&lt;span style=&quot; font-family:'Courier New'; font-size:164pt; color:#d1d5d5;&quot;&gt;AUSTIN SHI&lt;/span&gt;&lt;/p&gt;
&lt;p align=&quot;center&quot; style=&quot; margin-top:0px; margin-bottom:0px; margin-left:0px; margin-right:0px; -qt-block-indent:0; text-indent:0px;&quot;&gt;&lt;span style=&quot; font-family:'Courier New'; font-size:136pt; color:#d1d5d5;&quot;&gt;AS&lt;/span&gt;&lt;/p&gt;
&lt;p align=&quot;center&quot; style=&quot; margin-top:0px; margin-bottom:0px; margin-left:0px; margin-right:0px; -qt-block-indent:0; text-indent:0px;&quot;&gt;&lt;span style=&quot; font-family:'Courier New'; font-size:164pt; color:#d1d5d5;&quot;&gt;CHRISTIAN&lt;/span&gt;&lt;/p&gt;&lt;/body&gt;&lt;/html&gt;</property>
      <property name="shotcut:animIn">00:00:00.000</property>
      <property name="shotcut:animOut">00:00:00.000</property>
    </filter>
    <filter id="filter62" out="00:00:02.300">
      <property name="start">1</property>
      <property name="level">00:00:00.000=0;00:00:00.300=1</property>
      <property name="mlt_service">brightness</property>
      <property name="shotcut:filter">fadeInBrightness</property>
      <property name="alpha">1</property>
      <property name="shotcut:animIn">00:00:00.333</property>
    </filter>
    <filter id="filter63" out="00:00:02.300">
      <property name="start">1</property>
      <property name="level">00:00:02.033=1;00:00:02.300=0</property>
      <property name="mlt_service">brightness</property>
      <property name="shotcut:filter">fadeOutBrightness</property>
      <property name="alpha">1</property>
      <property name="shotcut:animOut">9</property>
    </filter>
    <filter id="filter64" out="00:00:02.300">
      <property name="window">75</property>
      <property name="max_gain">20dB</property>
      <property name="level">00:00:02.033=0;00:00:02.300=-60</property>
      <property name="mlt_service">volume</property>
      <property name="shotcut:filter">fadeOutVolume</property>
      <property name="shotcut:animOut">9</property>
    </filter>
  </producer>
  <producer id="producer17" in="00:00:00.000" out="03:59:59.967">
    <property name="length">04:00:00.000</property>
    <property name="eof">pause</property>
    <property name="resource">/Users/jacob/Documents/School/8th Grade (8Se)/Film Studies/DID_U_C_IT/clips/blackscreen.png</property>
    <property name="ttl">1</property>
    <property name="aspect_ratio">1</property>
    <property name="progressive">1</property>
    <property name="seekable">1</property>
    <property name="mlt_service">qimage</property>
    <property name="creation_time">2024-04-18T21:52:04</property>
    <property name="shotcut:caption">blackscreen.png</property>
    <property name="shotcut:hash">02eb36967dd439514cee4af71e69baa3</property>
    <property name="ignore_points">0</property>
    <property name="xml">was here</property>
    <filter id="filter65" out="00:00:01.133">
      <property name="argument"></property>
      <property name="geometry">110 140 1700 800 1</property>
      <property name="family">Sans</property>
      <property name="size">48</property>
      <property name="weight">400</property>
      <property name="style">normal</property>
      <property name="fgcolour">0x000000ff</property>
      <property name="bgcolour">#00000000</property>
      <property name="olcolour">0x00000000</property>
      <property name="pad">0</property>
      <property name="halign">left</property>
      <property name="valign">top</property>
      <property name="outline">0</property>
      <property name="pixel_ratio">1</property>
      <property name="mlt_service">qtext</property>
      <property name="shotcut:filter">richText</property>
      <property name="html">&lt;!DOCTYPE HTML PUBLIC &quot;-//W3C//DTD HTML 4.0//EN&quot; &quot;http://www.w3.org/TR/REC-html40/strict.dtd&quot;&gt;
&lt;html&gt;&lt;head&gt;&lt;meta name=&quot;qrichtext&quot; content=&quot;1&quot; /&gt;&lt;style type=&quot;text/css&quot;&gt;
p, li { white-space: pre-wrap; }
&lt;/style&gt;&lt;/head&gt;&lt;body style=&quot; font-family:'.AppleSystemUIFont'; font-size:13pt; font-weight:400; font-style:normal;&quot;&gt;
&lt;p align=&quot;center&quot; style=&quot; margin-top:0px; margin-bottom:0px; margin-left:0px; margin-right:0px; -qt-block-indent:0; text-indent:0px;&quot;&gt;&lt;span style=&quot; font-family:'Courier New'; font-size:164pt; color:#d1d5d5;&quot;&gt;ARYAN TUMMALA&lt;/span&gt;&lt;/p&gt;
&lt;p align=&quot;center&quot; style=&quot; margin-top:0px; margin-bottom:0px; margin-left:0px; margin-right:0px; -qt-block-indent:0; text-indent:0px;&quot;&gt;&lt;span style=&quot; font-family:'Courier New'; font-size:136pt; color:#d1d5d5;&quot;&gt;AS&lt;/span&gt;&lt;/p&gt;
&lt;p align=&quot;center&quot; style=&quot; margin-top:0px; margin-bottom:0px; margin-left:0px; margin-right:0px; -qt-block-indent:0; text-indent:0px;&quot;&gt;&lt;span style=&quot; font-family:'Courier New'; font-size:164pt; color:#d1d5d5;&quot;&gt;&amp;quot;EYEBALLS&amp;quot;&lt;/span&gt;&lt;/p&gt;&lt;/body&gt;&lt;/html&gt;</property>
      <property name="shotcut:animIn">00:00:00.000</property>
      <property name="shotcut:animOut">00:00:00.000</property>
    </filter>
    <filter id="filter66" out="00:00:01.133">
      <property name="start">1</property>
      <property name="level">00:00:00.000=0;00:00:00.300=1</property>
      <property name="mlt_service">brightness</property>
      <property name="shotcut:filter">fadeInBrightness</property>
      <property name="alpha">1</property>
      <property name="shotcut:animIn">10</property>
    </filter>
    <filter id="filter67" out="00:00:01.133">
      <property name="window">75</property>
      <property name="max_gain">20dB</property>
      <property name="level">00:00:00.000=-60;00:00:00.300=0</property>
      <property name="mlt_service">volume</property>
      <property name="shotcut:filter">fadeInVolume</property>
      <property name="shotcut:animIn">10</property>
    </filter>
  </producer>
  <producer id="producer18" in="00:00:00.000" out="03:59:59.967">
    <property name="length">04:00:00.000</property>
    <property name="eof">pause</property>
    <property name="resource">/Users/jacob/Documents/School/8th Grade (8Se)/Film Studies/DID_U_C_IT/clips/blackscreen.png</property>
    <property name="ttl">1</property>
    <property name="aspect_ratio">1</property>
    <property name="progressive">1</property>
    <property name="seekable">1</property>
    <property name="mlt_service">qimage</property>
    <property name="creation_time">2024-04-18T21:52:04</property>
    <property name="shotcut:caption">blackscreen.png</property>
    <property name="shotcut:hash">02eb36967dd439514cee4af71e69baa3</property>
    <property name="ignore_points">0</property>
    <property name="xml">was here</property>
    <filter id="filter68" in="00:00:01.167" out="00:00:02.267">
      <property name="argument"></property>
      <property name="geometry">110 140 1700 800 1</property>
      <property name="family">Sans</property>
      <property name="size">48</property>
      <property name="weight">400</property>
      <property name="style">normal</property>
      <property name="fgcolour">0x000000ff</property>
      <property name="bgcolour">#00000000</property>
      <property name="olcolour">0x00000000</property>
      <property name="pad">0</property>
      <property name="halign">left</property>
      <property name="valign">top</property>
      <property name="outline">0</property>
      <property name="pixel_ratio">1</property>
      <property name="mlt_service">qtext</property>
      <property name="shotcut:filter">richText</property>
      <property name="html">&lt;!DOCTYPE HTML PUBLIC &quot;-//W3C//DTD HTML 4.0//EN&quot; &quot;http://www.w3.org/TR/REC-html40/strict.dtd&quot;&gt;
&lt;html&gt;&lt;head&gt;&lt;meta name=&quot;qrichtext&quot; content=&quot;1&quot; /&gt;&lt;style type=&quot;text/css&quot;&gt;
p, li { white-space: pre-wrap; }
&lt;/style&gt;&lt;/head&gt;&lt;body style=&quot; font-family:'.AppleSystemUIFont'; font-size:13pt; font-weight:400; font-style:normal;&quot;&gt;
&lt;p align=&quot;center&quot; style=&quot; margin-top:0px; margin-bottom:0px; margin-left:0px; margin-right:0px; -qt-block-indent:0; text-indent:0px;&quot;&gt;&lt;span style=&quot; font-family:'Courier New'; font-size:164pt; color:#d1d5d5;&quot;&gt;ARYAN TUMMALA&lt;/span&gt;&lt;/p&gt;
&lt;p align=&quot;center&quot; style=&quot; margin-top:0px; margin-bottom:0px; margin-left:0px; margin-right:0px; -qt-block-indent:0; text-indent:0px;&quot;&gt;&lt;span style=&quot; font-family:'Courier New'; font-size:136pt; color:#d1d5d5;&quot;&gt;AS&lt;/span&gt;&lt;/p&gt;
&lt;p align=&quot;center&quot; style=&quot; margin-top:0px; margin-bottom:0px; margin-left:0px; margin-right:0px; -qt-block-indent:0; text-indent:0px;&quot;&gt;&lt;span style=&quot; font-family:'Courier New'; font-size:164pt; color:#d1d5d5;&quot;&gt;&amp;quot;EYEBALLS&amp;quot;&lt;/span&gt;&lt;/p&gt;&lt;/body&gt;&lt;/html&gt;</property>
      <property name="shotcut:animIn">00:00:00.000</property>
      <property name="shotcut:animOut">00:00:00.000</property>
    </filter>
    <filter id="filter69" in="00:00:01.167" out="00:00:02.267">
      <property name="start">1</property>
      <property name="level">00:00:00.833=1;00:00:01.100=0</property>
      <property name="mlt_service">brightness</property>
      <property name="shotcut:filter">fadeOutBrightness</property>
      <property name="alpha">1</property>
      <property name="shotcut:animOut">9</property>
    </filter>
    <filter id="filter70" in="00:00:01.167" out="00:00:02.267">
      <property name="window">75</property>
      <property name="max_gain">20dB</property>
      <property name="level">00:00:00.833=0;00:00:01.100=-60</property>
      <property name="mlt_service">volume</property>
      <property name="shotcut:filter">fadeOutVolume</property>
      <property name="shotcut:animOut">9</property>
    </filter>
  </producer>
  <producer id="producer19" in="00:00:00.000" out="03:59:59.967">
    <property name="length">04:00:00.000</property>
    <property name="eof">pause</property>
    <property name="resource">/Users/jacob/Documents/School/8th Grade (8Se)/Film Studies/DID_U_C_IT/clips/blackscreen.png</property>
    <property name="ttl">1</property>
    <property name="aspect_ratio">1</property>
    <property name="progressive">1</property>
    <property name="seekable">1</property>
    <property name="mlt_service">qimage</property>
    <property name="creation_time">2024-04-18T21:52:04</property>
    <property name="shotcut:caption">blackscreen.png</property>
    <property name="shotcut:hash">02eb36967dd439514cee4af71e69baa3</property>
    <property name="ignore_points">0</property>
    <property name="xml">was here</property>
    <filter id="filter48" out="00:00:02.300">
      <property name="argument"></property>
      <property name="geometry">32 52 1820 955 1</property>
      <property name="family">Sans</property>
      <property name="size">48</property>
      <property name="weight">400</property>
      <property name="style">normal</property>
      <property name="fgcolour">0x000000ff</property>
      <property name="bgcolour">#00000000</property>
      <property name="olcolour">0x00000000</property>
      <property name="pad">0</property>
      <property name="halign">left</property>
      <property name="valign">top</property>
      <property name="outline">0</property>
      <property name="pixel_ratio">1</property>
      <property name="mlt_service">qtext</property>
      <property name="shotcut:filter">richText</property>
      <property name="html">&lt;!DOCTYPE HTML PUBLIC &quot;-//W3C//DTD HTML 4.0//EN&quot; &quot;http://www.w3.org/TR/REC-html40/strict.dtd&quot;&gt;
&lt;html&gt;&lt;head&gt;&lt;meta name=&quot;qrichtext&quot; content=&quot;1&quot; /&gt;&lt;style type=&quot;text/css&quot;&gt;
p, li { white-space: pre-wrap; }
&lt;/style&gt;&lt;/head&gt;&lt;body style=&quot; font-family:'.AppleSystemUIFont'; font-size:13pt; font-weight:400; font-style:normal;&quot;&gt;
&lt;p align=&quot;center&quot; style=&quot; margin-top:0px; margin-bottom:0px; margin-left:0px; margin-right:0px; -qt-block-indent:0; text-indent:0px;&quot;&gt;&lt;span style=&quot; font-family:'Courier New'; font-size:120pt; color:#d1d5d5;&quot;&gt;AKHIL GUNDALA&lt;/span&gt;&lt;span style=&quot; font-family:'Courier New'; font-size:80pt; color:#d1d5d5;&quot;&gt; LIL CHARLES&lt;/span&gt;&lt;/p&gt;
&lt;p align=&quot;center&quot; style=&quot; margin-top:0px; margin-bottom:0px; margin-left:0px; margin-right:0px; -qt-block-indent:0; text-indent:0px;&quot;&gt;&lt;span style=&quot; font-family:'Courier New'; font-size:120pt; color:#d1d5d5;&quot;&gt;MS.GANZ&lt;/span&gt;&lt;span style=&quot; font-family:'Courier New'; font-size:80pt; color:#d1d5d5;&quot;&gt; CASTING&lt;/span&gt;&lt;/p&gt;
&lt;p align=&quot;center&quot; style=&quot; margin-top:0px; margin-bottom:0px; margin-left:0px; margin-right:0px; -qt-block-indent:0; text-indent:0px;&quot;&gt;&lt;span style=&quot; font-family:'Courier New'; font-size:120pt; color:#d1d5d5;&quot;&gt;ARYAN TUMMALA&lt;/span&gt;&lt;span style=&quot; font-family:'Courier New'; font-size:80pt; color:#d1d5d5;&quot;&gt; MUSIC DESIGN&lt;/span&gt;&lt;/p&gt;
&lt;p align=&quot;center&quot; style=&quot; margin-top:0px; margin-bottom:0px; margin-left:0px; margin-right:0px; -qt-block-indent:0; text-indent:0px;&quot;&gt;&lt;span style=&quot; font-family:'Courier New'; font-size:120pt; color:#d1d5d5;&quot;&gt;AADRIT TALUKDAR&lt;/span&gt;&lt;span style=&quot; font-family:'Courier New'; font-size:80pt; color:#d1d5d5;&quot;&gt; CAMERAMAN&lt;/span&gt;&lt;/p&gt;
&lt;p align=&quot;center&quot; style=&quot; margin-top:0px; margin-bottom:0px; margin-left:0px; margin-right:0px; -qt-block-indent:0; text-indent:0px;&quot;&gt;&lt;span style=&quot; font-family:'Courier New'; font-size:120pt; color:#d1d5d5;&quot;&gt;JACOB LIU&lt;/span&gt;&lt;span style=&quot; font-family:'Courier New'; font-size:80pt; color:#d1d5d5;&quot;&gt; EDITING&lt;/span&gt;&lt;/p&gt;
&lt;p align=&quot;center&quot; style=&quot;-qt-paragraph-type:empty; margin-top:0px; margin-bottom:0px; margin-left:0px; margin-right:0px; -qt-block-indent:0; text-indent:0px; font-family:'Courier New'; font-size:80pt; color:#d1d5d5;&quot;&gt;&lt;br /&gt;&lt;/p&gt;
&lt;p align=&quot;center&quot; style=&quot;-qt-paragraph-type:empty; margin-top:0px; margin-bottom:0px; margin-left:0px; margin-right:0px; -qt-block-indent:0; text-indent:0px; font-family:'Courier New'; font-size:80pt; color:#d1d5d5;&quot;&gt;&lt;br /&gt;&lt;/p&gt;&lt;/body&gt;&lt;/html&gt;</property>
      <property name="shotcut:animIn">00:00:00.000</property>
      <property name="shotcut:animOut">00:00:00.000</property>
    </filter>
    <filter id="filter50" out="00:00:02.300">
      <property name="start">1</property>
      <property name="level">00:00:00.000=0;00:00:00.300=1</property>
      <property name="mlt_service">brightness</property>
      <property name="shotcut:filter">fadeInBrightness</property>
      <property name="alpha">1</property>
      <property name="shotcut:animIn">00:00:00.333</property>
    </filter>
    <filter id="filter52" out="00:00:02.300">
      <property name="start">1</property>
      <property name="level">00:00:02.033=1;00:00:02.300=0</property>
      <property name="mlt_service">brightness</property>
      <property name="shotcut:filter">fadeOutBrightness</property>
      <property name="alpha">1</property>
      <property name="shotcut:animOut">9</property>
    </filter>
    <filter id="filter71" out="00:00:02.300">
      <property name="window">75</property>
      <property name="max_gain">20dB</property>
      <property name="level">00:00:02.033=0;00:00:02.300=-60</property>
      <property name="mlt_service">volume</property>
      <property name="shotcut:filter">fadeOutVolume</property>
      <property name="shotcut:animOut">9</property>
    </filter>
  </producer>
  <playlist id="playlist0">
    <property name="shotcut:video">1</property>
    <property name="shotcut:name">V1</property>
    <entry producer="chain0" in="00:00:16.500" out="00:00:20.600"/>
    <entry producer="producer0" in="00:00:00.000" out="00:00:01.933"/>
    <entry producer="producer1" in="00:00:00.000" out="00:00:01.933"/>
    <entry producer="producer2" in="00:00:00.000" out="00:00:01.933"/>
    <entry producer="producer3" in="00:00:00.000" out="00:00:01.933"/>
    <entry producer="producer4" in="00:00:00.000" out="00:00:01.933"/>
    <entry producer="producer5" in="00:00:00.000" out="00:00:01.133"/>
    <entry producer="producer6" in="00:00:01.167" out="00:00:01.933"/>
    <entry producer="producer7" in="00:00:00.000" out="00:00:00.467"/>
    <entry producer="producer8" in="00:00:00.000" out="00:00:00.300"/>
    <entry producer="producer9" in="00:00:00.000" out="00:00:00.500"/>
    <entry producer="producer10" in="00:00:00.000" out="00:00:00.400"/>
    <entry producer="producer11" in="00:00:00.000" out="00:00:01.533"/>
    <blank length="00:00:00.067"/>
    <entry producer="chain1" in="00:00:04.167" out="00:01:45.067"/>
    <entry producer="chain2" in="00:00:00.600" out="00:00:41.533"/>
    <entry producer="chain3" in="00:00:04.533" out="00:01:37.533"/>
    <entry producer="chain4" in="00:00:05.400" out="00:01:16.200"/>
    <entry producer="chain5" in="00:00:00.000" out="00:00:00.367"/>
    <blank length="00:00:48.133"/>
    <entry producer="chain6" in="00:00:08.200" out="00:04:19.700"/>
    <entry producer="tractor0" in="00:00:00.000" out="00:00:00.000"/>
    <entry producer="chain7" in="00:00:06.033" out="00:02:58.133"/>
    <blank length="00:00:00.067"/>
    <entry producer="producer12" in="00:01:28.900" out="00:01:29.267"/>
    <entry producer="chain9" in="00:00:00.000" out="00:00:02.667"/>
    <entry producer="chain8" in="00:00:03.267" out="00:00:20.433"/>
    <blank length="00:00:00.133"/>
    <entry producer="producer13" in="00:00:00.767" out="00:00:02.300"/>
    <entry producer="producer14" in="00:00:00.000" out="00:00:02.300"/>
    <entry producer="producer15" in="00:00:00.000" out="00:00:02.300"/>
    <entry producer="producer16" in="00:00:00.000" out="00:00:02.300"/>
    <entry producer="producer17" in="00:00:00.000" out="00:00:01.133"/>
    <entry producer="producer18" in="00:00:01.167" out="00:00:02.267"/>
    <entry producer="producer19" in="00:00:00.000" out="00:00:02.300"/>
  </playlist>
  <playlist id="playlist1">
    <property name="shotcut:video">1</property>
    <property name="shotcut:name">V2</property>
    <blank length="00:00:00.033"/>
  </playlist>
  <chain id="chain45" out="00:04:06.767">
    <property name="length">00:04:06.800</property>
    <property name="eof">pause</property>
    <property name="resource">/Users/jacob/Documents/School/8th Grade (8Se)/Film Studies/DID_U_C_IT/clips/Theme_EndCreds_Party_Interview_IntroCredits_Blooper_Buildup.mp3</property>
    <property name="mlt_service">avformat-novalidate</property>
    <property name="seekable">1</property>
    <property name="audio_index">0</property>
    <property name="video_index">-1</property>
    <property name="mute_on_pause">0</property>
    <property name="shotcut:hash">6a89b9daef74e5e3a9ba217a83d7721f</property>
    <property name="shotcut:caption">Theme_EndCreds_Party_Interview_IntroCredits_Blooper_Buildup.mp3</property>
    <property name="xml">was here</property>
    <filter id="filter72" in="00:02:48.000" out="00:02:51.333">
      <property name="window">75</property>
      <property name="max_gain">20dB</property>
      <property name="level">00:00:02.933=0;00:00:03.333=-60</property>
      <property name="mlt_service">volume</property>
      <property name="shotcut:filter">fadeOutVolume</property>
      <property name="shotcut:animOut">13</property>
    </filter>
  </chain>
  <chain id="chain13" out="00:02:04.800">
    <property name="length">00:02:04.833</property>
    <property name="eof">pause</property>
    <property name="resource">/Users/jacob/Documents/School/8th Grade (8Se)/Film Studies/DID_U_C_IT/clips/working_entrance1_1.MOV</property>
    <property name="mlt_service">avformat-novalidate</property>
    <property name="seekable">1</property>
    <property name="audio_index">1</property>
    <property name="video_index">-1</property>
    <property name="mute_on_pause">0</property>
    <property name="shotcut:hash">e2308df4560f27dbfad9515e45b92e18</property>
    <property name="shotcut:caption">working_entrance1_1.MOV</property>
    <property name="shotcut:defaultAudioIndex">1</property>
    <property name="xml">was here</property>
    <filter id="filter73" in="00:01:16.300" out="00:02:04.800">
      <property name="window">75</property>
      <property name="max_gain">20dB</property>
      <property name="level">00:00:47.867=0;00:00:48.500=-60</property>
      <property name="mlt_service">volume</property>
      <property name="shotcut:filter">fadeOutVolume</property>
      <property name="shotcut:animOut">00:00:00.667</property>
    </filter>
    <filter id="filter74" in="00:01:16.300" out="00:02:04.800">
      <property name="window">75</property>
      <property name="max_gain">20dB</property>
      <property name="level">-3</property>
      <property name="mlt_service">volume</property>
    </filter>
  </chain>
  <chain id="chain10" out="00:00:13.667">
    <property name="length">00:00:13.700</property>
    <property name="eof">pause</property>
    <property name="resource">/Users/jacob/Documents/School/8th Grade (8Se)/Film Studies/DID_U_C_IT/clips/IMG_1694 2.MOV</property>
    <property name="mlt_service">avformat-novalidate</property>
    <property name="seekable">1</property>
    <property name="audio_index">1</property>
    <property name="video_index">0</property>
    <property name="mute_on_pause">0</property>
    <property name="shotcut:hash">ea6e0a932af0f7b0810b541714589417</property>
    <property name="shotcut:caption">IMG_1694 2.MOV</property>
    <property name="xml">was here</property>
    <filter id="filter75" in="00:00:06.333" out="00:00:07.367">
      <property name="window">75</property>
      <property name="max_gain">20dB</property>
      <property name="level">24</property>
      <property name="mlt_service">volume</property>
    </filter>
  </chain>
  <chain id="chain11" out="00:00:13.667">
    <property name="length">00:00:13.700</property>
    <property name="eof">pause</property>
    <property name="resource">IMG_1694 2 - Reversed1.mp4</property>
    <property name="mlt_service">avformat-novalidate</property>
    <property name="seekable">1</property>
    <property name="audio_index">1</property>
    <property name="video_index">0</property>
    <property name="mute_on_pause">0</property>
    <property name="shotcut:hash">ad251d4c384f8311e6d78a3345b18f67</property>
    <property name="shotcut:originalIn">00:00:06.333</property>
    <property name="shotcut:originalOut">00:00:07.400</property>
    <property name="shotcut:resource">/Users/jacob/Documents/School/8th Grade (8Se)/Film Studies/DID_U_C_IT/clips/IMG_1694 2.MOV</property>
    <property name="shotcut:caption">IMG_1694 2 - Reversed1.mp4</property>
    <property name="xml">was here</property>
    <filter id="filter76" in="00:00:06.233" out="00:00:07.300">
      <property name="window">75</property>
      <property name="max_gain">20dB</property>
      <property name="level">24</property>
      <property name="mlt_service">volume</property>
    </filter>
  </chain>
  <chain id="chain14" out="00:01:16.467">
    <property name="length">00:01:16.500</property>
    <property name="eof">pause</property>
    <property name="resource">/Users/jacob/Documents/School/8th Grade (8Se)/Film Studies/DID_U_C_IT/clips/Theme_EndCreds_PartyMusic.mp3</property>
    <property name="mlt_service">avformat-novalidate</property>
    <property name="seekable">1</property>
    <property name="audio_index">0</property>
    <property name="video_index">-1</property>
    <property name="mute_on_pause">0</property>
    <property name="shotcut:hash">27348aa37efd2e57461794b6e0737a31</property>
    <property name="shotcut:caption">Theme_EndCreds_PartyMusic.mp3</property>
    <property name="xml">was here</property>
    <filter id="filter77" in="00:00:37.800" out="00:00:52.167">
      <property name="window">75</property>
      <property name="max_gain">20dB</property>
      <property name="level">00:00:14.033=0;00:00:14.367=-60</property>
      <property name="mlt_service">volume</property>
      <property name="shotcut:filter">fadeOutVolume</property>
      <property name="shotcut:animOut">11</property>
    </filter>
    <filter id="filter78" in="00:00:37.800" out="00:00:52.167">
      <property name="window">75</property>
      <property name="max_gain">20dB</property>
      <property name="level">00:00:00.000=-60;00:00:02.700=0</property>
      <property name="mlt_service">volume</property>
      <property name="shotcut:filter">fadeInVolume</property>
      <property name="shotcut:animIn">82</property>
    </filter>
    <filter id="filter79" in="00:00:37.800" out="00:00:52.167">
      <property name="window">75</property>
      <property name="max_gain">20dB</property>
      <property name="level">-20.8</property>
      <property name="mlt_service">volume</property>
    </filter>
    <filter id="filter80" in="00:00:37.800" out="00:00:52.167">
      <property name="mlt_service">ladspa.1204</property>
      <property name="shotcut:filter">parametricEq</property>
      <property name="0">0</property>
      <property name="1">20</property>
      <property name="2">0.5</property>
      <property name="3">0</property>
      <property name="4">1911.6</property>
      <property name="5">1</property>
      <property name="6">0</property>
      <property name="7">700</property>
      <property name="8">1</property>
      <property name="9">0</property>
      <property name="10">5000</property>
      <property name="11">1</property>
      <property name="12">0</property>
      <property name="13">15000</property>
      <property name="14">0.5</property>
      <property name="instances">2</property>
    </filter>
    <filter id="filter81" in="00:00:37.800" out="00:00:52.167">
      <property name="mlt_service">ladspa.1204</property>
      <property name="shotcut:filter">3BandEq</property>
      <property name="0">0</property>
      <property name="1">200</property>
      <property name="2">0.5</property>
      <property name="3">0</property>
      <property name="4">1000</property>
      <property name="5">1</property>
      <property name="6">-17.9</property>
      <property name="7">1000</property>
      <property name="8">1</property>
      <property name="9">0</property>
      <property name="10">1000</property>
      <property name="11">1</property>
      <property name="12">-19.6</property>
      <property name="13">5000</property>
      <property name="14">0.5</property>
      <property name=".dummy"></property>
      <property name="instances">2</property>
    </filter>
  </chain>
  <playlist id="playlist2">
    <property name="shotcut:audio">1</property>
    <property name="shotcut:name">A1</property>
    <blank length="00:00:15.967"/>
    <entry producer="chain45" in="00:02:48.000" out="00:02:51.333"/>
    <blank length="00:05:05.767"/>
    <entry producer="chain13" in="00:01:16.300" out="00:02:04.800"/>
    <blank length="00:01:38.633"/>
    <entry producer="chain10" in="00:00:06.333" out="00:00:07.367"/>
    <entry producer="chain11" in="00:00:06.233" out="00:00:07.300"/>
    <blank length="00:05:42.233"/>
    <entry producer="chain14" in="00:00:37.800" out="00:00:52.167"/>
  </playlist>
  <chain id="chain12" out="00:04:06.767">
    <property name="length">00:04:06.800</property>
    <property name="eof">pause</property>
    <property name="resource">/Users/jacob/Documents/School/8th Grade (8Se)/Film Studies/DID_U_C_IT/clips/Theme_EndCreds_Party_Interview_IntroCredits_Blooper_Buildup.mp3</property>
    <property name="mlt_service">avformat-novalidate</property>
    <property name="seekable">1</property>
    <property name="audio_index">0</property>
    <property name="video_index">-1</property>
    <property name="mute_on_pause">0</property>
    <property name="shotcut:hash">6a89b9daef74e5e3a9ba217a83d7721f</property>
    <property name="shotcut:caption">Theme_EndCreds_Party_Interview_IntroCredits_Blooper_Buildup.mp3</property>
    <property name="xml">was here</property>
  </chain>
  <chain id="chain15" out="00:01:16.467">
    <property name="length">00:01:16.500</property>
    <property name="eof">pause</property>
    <property name="resource">/Users/jacob/Documents/School/8th Grade (8Se)/Film Studies/DID_U_C_IT/clips/Theme_EndCreds_PartyMusic.mp3</property>
    <property name="mlt_service">avformat-novalidate</property>
    <property name="seekable">1</property>
    <property name="audio_index">0</property>
    <property name="video_index">-1</property>
    <property name="mute_on_pause">0</property>
    <property name="shotcut:hash">27348aa37efd2e57461794b6e0737a31</property>
    <property name="shotcut:caption">Theme_EndCreds_PartyMusic.mp3</property>
    <property name="xml">was here</property>
    <filter id="filter82" out="00:00:05.867">
      <property name="window">75</property>
      <property name="max_gain">20dB</property>
      <property name="level">-6</property>
      <property name="mlt_service">volume</property>
    </filter>
    <filter id="filter83" out="00:00:05.867">
      <property name="mlt_service">ladspa.1204</property>
      <property name="shotcut:filter">parametricEq</property>
      <property name="0">0</property>
      <property name="1">20</property>
      <property name="2">0.5</property>
      <property name="3">0</property>
      <property name="4">1911.6</property>
      <property name="5">1</property>
      <property name="6">0</property>
      <property name="7">700</property>
      <property name="8">1</property>
      <property name="9">0</property>
      <property name="10">5000</property>
      <property name="11">1</property>
      <property name="12">0</property>
      <property name="13">15000</property>
      <property name="14">0.5</property>
      <property name="instances">2</property>
    </filter>
    <filter id="filter84" out="00:00:05.867">
      <property name="mlt_service">ladspa.1204</property>
      <property name="shotcut:filter">3BandEq</property>
      <property name="0">0</property>
      <property name="1">200</property>
      <property name="2">0.5</property>
      <property name="3">0</property>
      <property name="4">1000</property>
      <property name="5">1</property>
      <property name="6">-17.9</property>
      <property name="7">1000</property>
      <property name="8">1</property>
      <property name="9">0</property>
      <property name="10">1000</property>
      <property name="11">1</property>
      <property name="12">-19.6</property>
      <property name="13">5000</property>
      <property name="14">0.5</property>
      <property name=".dummy"></property>
      <property name="instances">2</property>
    </filter>
  </chain>
  <chain id="chain16" out="00:01:16.467">
    <property name="length">00:01:16.500</property>
    <property name="eof">pause</property>
    <property name="resource">/Users/jacob/Documents/School/8th Grade (8Se)/Film Studies/DID_U_C_IT/clips/Theme_EndCreds_PartyMusic.mp3</property>
    <property name="mlt_service">avformat-novalidate</property>
    <property name="seekable">1</property>
    <property name="audio_index">0</property>
    <property name="video_index">-1</property>
    <property name="mute_on_pause">0</property>
    <property name="shotcut:hash">27348aa37efd2e57461794b6e0737a31</property>
    <property name="shotcut:caption">Theme_EndCreds_PartyMusic.mp3</property>
    <property name="xml">was here</property>
    <filter id="filter85" out="00:00:05.867">
      <property name="window">75</property>
      <property name="max_gain">20dB</property>
      <property name="level">0</property>
      <property name="mlt_service">volume</property>
    </filter>
    <filter id="filter86" out="00:00:05.867">
      <property name="mlt_service">ladspa.1204</property>
      <property name="shotcut:filter">parametricEq</property>
      <property name="0">0</property>
      <property name="1">20</property>
      <property name="2">0.5</property>
      <property name="3">0</property>
      <property name="4">1911.6</property>
      <property name="5">1</property>
      <property name="6">0</property>
      <property name="7">700</property>
      <property name="8">1</property>
      <property name="9">0</property>
      <property name="10">5000</property>
      <property name="11">1</property>
      <property name="12">0</property>
      <property name="13">15000</property>
      <property name="14">0.5</property>
      <property name="instances">2</property>
    </filter>
    <filter id="filter87" out="00:00:05.867">
      <property name="mlt_service">ladspa.1204</property>
      <property name="shotcut:filter">3BandEq</property>
      <property name="0">0</property>
      <property name="1">200</property>
      <property name="2">0.5</property>
      <property name="3">0</property>
      <property name="4">1000</property>
      <property name="5">1</property>
      <property name="6">-17.9</property>
      <property name="7">1000</property>
      <property name="8">1</property>
      <property name="9">0</property>
      <property name="10">1000</property>
      <property name="11">1</property>
      <property name="12">-19.6</property>
      <property name="13">5000</property>
      <property name="14">0.5</property>
      <property name=".dummy"></property>
      <property name="instances">2</property>
    </filter>
  </chain>
  <chain id="chain17" out="00:01:16.467">
    <property name="length">00:01:16.500</property>
    <property name="eof">pause</property>
    <property name="resource">/Users/jacob/Documents/School/8th Grade (8Se)/Film Studies/DID_U_C_IT/clips/Theme_EndCreds_PartyMusic.mp3</property>
    <property name="mlt_service">avformat-novalidate</property>
    <property name="seekable">1</property>
    <property name="audio_index">0</property>
    <property name="video_index">-1</property>
    <property name="mute_on_pause">0</property>
    <property name="shotcut:hash">27348aa37efd2e57461794b6e0737a31</property>
    <property name="shotcut:caption">Theme_EndCreds_PartyMusic.mp3</property>
    <property name="xml">was here</property>
    <filter id="filter88" out="00:00:05.867">
      <property name="window">75</property>
      <property name="max_gain">20dB</property>
      <property name="level">0</property>
      <property name="mlt_service">volume</property>
    </filter>
    <filter id="filter89" out="00:00:05.867">
      <property name="mlt_service">ladspa.1204</property>
      <property name="shotcut:filter">parametricEq</property>
      <property name="0">0</property>
      <property name="1">20</property>
      <property name="2">0.5</property>
      <property name="3">0</property>
      <property name="4">1911.6</property>
      <property name="5">1</property>
      <property name="6">0</property>
      <property name="7">700</property>
      <property name="8">1</property>
      <property name="9">0</property>
      <property name="10">5000</property>
      <property name="11">1</property>
      <property name="12">0</property>
      <property name="13">15000</property>
      <property name="14">0.5</property>
      <property name="instances">2</property>
    </filter>
    <filter id="filter90" out="00:00:05.867">
      <property name="mlt_service">ladspa.1204</property>
      <property name="shotcut:filter">3BandEq</property>
      <property name="0">0</property>
      <property name="1">200</property>
      <property name="2">0.5</property>
      <property name="3">0</property>
      <property name="4">1000</property>
      <property name="5">1</property>
      <property name="6">-17.9</property>
      <property name="7">1000</property>
      <property name="8">1</property>
      <property name="9">0</property>
      <property name="10">1000</property>
      <property name="11">1</property>
      <property name="12">-19.6</property>
      <property name="13">5000</property>
      <property name="14">0.5</property>
      <property name=".dummy"></property>
      <property name="instances">2</property>
    </filter>
  </chain>
  <chain id="chain18" out="00:01:16.467">
    <property name="length">00:01:16.500</property>
    <property name="eof">pause</property>
    <property name="resource">/Users/jacob/Documents/School/8th Grade (8Se)/Film Studies/DID_U_C_IT/clips/Theme_EndCreds_PartyMusic.mp3</property>
    <property name="mlt_service">avformat-novalidate</property>
    <property name="seekable">1</property>
    <property name="audio_index">0</property>
    <property name="video_index">-1</property>
    <property name="mute_on_pause">0</property>
    <property name="shotcut:hash">27348aa37efd2e57461794b6e0737a31</property>
    <property name="shotcut:caption">Theme_EndCreds_PartyMusic.mp3</property>
    <property name="xml">was here</property>
    <filter id="filter91" out="00:00:05.867">
      <property name="window">75</property>
      <property name="max_gain">20dB</property>
      <property name="level">1</property>
      <property name="mlt_service">volume</property>
    </filter>
    <filter id="filter92" out="00:00:05.867">
      <property name="mlt_service">ladspa.1204</property>
      <property name="shotcut:filter">parametricEq</property>
      <property name="0">0</property>
      <property name="1">20</property>
      <property name="2">0.5</property>
      <property name="3">0</property>
      <property name="4">1911.6</property>
      <property name="5">1</property>
      <property name="6">0</property>
      <property name="7">700</property>
      <property name="8">1</property>
      <property name="9">0</property>
      <property name="10">5000</property>
      <property name="11">1</property>
      <property name="12">0</property>
      <property name="13">15000</property>
      <property name="14">0.5</property>
      <property name="instances">2</property>
    </filter>
    <filter id="filter93" out="00:00:05.867">
      <property name="mlt_service">ladspa.1204</property>
      <property name="shotcut:filter">3BandEq</property>
      <property name="0">0</property>
      <property name="1">200</property>
      <property name="2">0.5</property>
      <property name="3">0</property>
      <property name="4">1000</property>
      <property name="5">1</property>
      <property name="6">-17.9</property>
      <property name="7">1000</property>
      <property name="8">1</property>
      <property name="9">0</property>
      <property name="10">1000</property>
      <property name="11">1</property>
      <property name="12">-19.6</property>
      <property name="13">5000</property>
      <property name="14">0.5</property>
      <property name=".dummy"></property>
      <property name="instances">2</property>
    </filter>
  </chain>
  <chain id="chain19" out="00:01:16.467">
    <property name="length">00:01:16.500</property>
    <property name="eof">pause</property>
    <property name="resource">/Users/jacob/Documents/School/8th Grade (8Se)/Film Studies/DID_U_C_IT/clips/Theme_EndCreds_PartyMusic.mp3</property>
    <property name="mlt_service">avformat-novalidate</property>
    <property name="seekable">1</property>
    <property name="audio_index">0</property>
    <property name="video_index">-1</property>
    <property name="mute_on_pause">0</property>
    <property name="shotcut:hash">27348aa37efd2e57461794b6e0737a31</property>
    <property name="shotcut:caption">Theme_EndCreds_PartyMusic.mp3</property>
    <property name="xml">was here</property>
    <filter id="filter94" out="00:00:05.867">
      <property name="window">75</property>
      <property name="max_gain">20dB</property>
      <property name="level">1</property>
      <property name="mlt_service">volume</property>
    </filter>
    <filter id="filter95" out="00:00:05.867">
      <property name="mlt_service">ladspa.1204</property>
      <property name="shotcut:filter">parametricEq</property>
      <property name="0">0</property>
      <property name="1">20</property>
      <property name="2">0.5</property>
      <property name="3">0</property>
      <property name="4">1911.6</property>
      <property name="5">1</property>
      <property name="6">0</property>
      <property name="7">700</property>
      <property name="8">1</property>
      <property name="9">0</property>
      <property name="10">5000</property>
      <property name="11">1</property>
      <property name="12">0</property>
      <property name="13">15000</property>
      <property name="14">0.5</property>
      <property name="instances">2</property>
    </filter>
    <filter id="filter96" out="00:00:05.867">
      <property name="mlt_service">ladspa.1204</property>
      <property name="shotcut:filter">3BandEq</property>
      <property name="0">0</property>
      <property name="1">200</property>
      <property name="2">0.5</property>
      <property name="3">0</property>
      <property name="4">1000</property>
      <property name="5">1</property>
      <property name="6">-17.9</property>
      <property name="7">1000</property>
      <property name="8">1</property>
      <property name="9">0</property>
      <property name="10">1000</property>
      <property name="11">1</property>
      <property name="12">-19.6</property>
      <property name="13">5000</property>
      <property name="14">0.5</property>
      <property name=".dummy"></property>
      <property name="instances">2</property>
    </filter>
  </chain>
  <chain id="chain20" out="00:01:16.467">
    <property name="length">00:01:16.500</property>
    <property name="eof">pause</property>
    <property name="resource">/Users/jacob/Documents/School/8th Grade (8Se)/Film Studies/DID_U_C_IT/clips/Theme_EndCreds_PartyMusic.mp3</property>
    <property name="mlt_service">avformat-novalidate</property>
    <property name="seekable">1</property>
    <property name="audio_index">0</property>
    <property name="video_index">-1</property>
    <property name="mute_on_pause">0</property>
    <property name="shotcut:hash">27348aa37efd2e57461794b6e0737a31</property>
    <property name="shotcut:caption">Theme_EndCreds_PartyMusic.mp3</property>
    <property name="xml">was here</property>
    <filter id="filter97" out="00:00:01.433">
      <property name="window">75</property>
      <property name="max_gain">20dB</property>
      <property name="level">20</property>
      <property name="mlt_service">volume</property>
    </filter>
    <filter id="filter98" out="00:00:01.433">
      <property name="mlt_service">ladspa.1204</property>
      <property name="shotcut:filter">parametricEq</property>
      <property name="0">0</property>
      <property name="1">20</property>
      <property name="2">0.5</property>
      <property name="3">0</property>
      <property name="4">1911.6</property>
      <property name="5">1</property>
      <property name="6">0</property>
      <property name="7">700</property>
      <property name="8">1</property>
      <property name="9">0</property>
      <property name="10">5000</property>
      <property name="11">1</property>
      <property name="12">0</property>
      <property name="13">15000</property>
      <property name="14">0.5</property>
      <property name="instances">2</property>
    </filter>
    <filter id="filter99" out="00:00:01.433">
      <property name="mlt_service">ladspa.1204</property>
      <property name="shotcut:filter">3BandEq</property>
      <property name="0">0</property>
      <property name="1">200</property>
      <property name="2">0.5</property>
      <property name="3">0</property>
      <property name="4">1000</property>
      <property name="5">1</property>
      <property name="6">-17.9</property>
      <property name="7">1000</property>
      <property name="8">1</property>
      <property name="9">0</property>
      <property name="10">1000</property>
      <property name="11">1</property>
      <property name="12">-19.6</property>
      <property name="13">5000</property>
      <property name="14">0.5</property>
      <property name=".dummy"></property>
      <property name="instances">2</property>
    </filter>
  </chain>
  <chain id="chain21" out="00:01:16.467">
    <property name="length">00:01:16.500</property>
    <property name="eof">pause</property>
    <property name="resource">/Users/jacob/Documents/School/8th Grade (8Se)/Film Studies/DID_U_C_IT/clips/Theme_EndCreds_PartyMusic.mp3</property>
    <property name="mlt_service">avformat-novalidate</property>
    <property name="seekable">1</property>
    <property name="audio_index">0</property>
    <property name="video_index">-1</property>
    <property name="mute_on_pause">0</property>
    <property name="shotcut:hash">27348aa37efd2e57461794b6e0737a31</property>
    <property name="shotcut:caption">Theme_EndCreds_PartyMusic.mp3</property>
    <property name="xml">was here</property>
    <filter id="filter100" in="00:00:01.467" out="00:00:05.867">
      <property name="window">75</property>
      <property name="max_gain">20dB</property>
      <property name="level">6</property>
      <property name="mlt_service">volume</property>
    </filter>
    <filter id="filter101" in="00:00:01.467" out="00:00:05.867">
      <property name="mlt_service">ladspa.1204</property>
      <property name="shotcut:filter">parametricEq</property>
      <property name="0">0</property>
      <property name="1">20</property>
      <property name="2">0.5</property>
      <property name="3">0</property>
      <property name="4">1911.6</property>
      <property name="5">1</property>
      <property name="6">0</property>
      <property name="7">700</property>
      <property name="8">1</property>
      <property name="9">0</property>
      <property name="10">5000</property>
      <property name="11">1</property>
      <property name="12">0</property>
      <property name="13">15000</property>
      <property name="14">0.5</property>
      <property name="instances">2</property>
    </filter>
    <filter id="filter102" in="00:00:01.467" out="00:00:05.867">
      <property name="mlt_service">ladspa.1204</property>
      <property name="shotcut:filter">3BandEq</property>
      <property name="0">0</property>
      <property name="1">200</property>
      <property name="2">0.5</property>
      <property name="3">0</property>
      <property name="4">1000</property>
      <property name="5">1</property>
      <property name="6">-17.9</property>
      <property name="7">1000</property>
      <property name="8">1</property>
      <property name="9">0</property>
      <property name="10">1000</property>
      <property name="11">1</property>
      <property name="12">-19.6</property>
      <property name="13">5000</property>
      <property name="14">0.5</property>
      <property name=".dummy"></property>
      <property name="instances">2</property>
    </filter>
  </chain>
  <chain id="chain22" out="00:01:16.467">
    <property name="length">00:01:16.500</property>
    <property name="eof">pause</property>
    <property name="resource">/Users/jacob/Documents/School/8th Grade (8Se)/Film Studies/DID_U_C_IT/clips/Theme_EndCreds_PartyMusic.mp3</property>
    <property name="mlt_service">avformat-novalidate</property>
    <property name="seekable">1</property>
    <property name="audio_index">0</property>
    <property name="video_index">-1</property>
    <property name="mute_on_pause">0</property>
    <property name="shotcut:hash">27348aa37efd2e57461794b6e0737a31</property>
    <property name="shotcut:caption">Theme_EndCreds_PartyMusic.mp3</property>
    <property name="xml">was here</property>
    <filter id="filter103" out="00:00:05.867">
      <property name="window">75</property>
      <property name="max_gain">20dB</property>
      <property name="level">6</property>
      <property name="mlt_service">volume</property>
    </filter>
    <filter id="filter104" out="00:00:05.867">
      <property name="mlt_service">ladspa.1204</property>
      <property name="shotcut:filter">parametricEq</property>
      <property name="0">0</property>
      <property name="1">20</property>
      <property name="2">0.5</property>
      <property name="3">0</property>
      <property name="4">1911.6</property>
      <property name="5">1</property>
      <property name="6">0</property>
      <property name="7">700</property>
      <property name="8">1</property>
      <property name="9">0</property>
      <property name="10">5000</property>
      <property name="11">1</property>
      <property name="12">0</property>
      <property name="13">15000</property>
      <property name="14">0.5</property>
      <property name="instances">2</property>
    </filter>
    <filter id="filter105" out="00:00:05.867">
      <property name="mlt_service">ladspa.1204</property>
      <property name="shotcut:filter">3BandEq</property>
      <property name="0">0</property>
      <property name="1">200</property>
      <property name="2">0.5</property>
      <property name="3">0</property>
      <property name="4">1000</property>
      <property name="5">1</property>
      <property name="6">-17.9</property>
      <property name="7">1000</property>
      <property name="8">1</property>
      <property name="9">0</property>
      <property name="10">1000</property>
      <property name="11">1</property>
      <property name="12">-19.6</property>
      <property name="13">5000</property>
      <property name="14">0.5</property>
      <property name=".dummy"></property>
      <property name="instances">2</property>
    </filter>
  </chain>
  <chain id="chain23" out="00:01:16.467">
    <property name="length">00:01:16.500</property>
    <property name="eof">pause</property>
    <property name="resource">/Users/jacob/Documents/School/8th Grade (8Se)/Film Studies/DID_U_C_IT/clips/Theme_EndCreds_PartyMusic.mp3</property>
    <property name="mlt_service">avformat-novalidate</property>
    <property name="seekable">1</property>
    <property name="audio_index">0</property>
    <property name="video_index">-1</property>
    <property name="mute_on_pause">0</property>
    <property name="shotcut:hash">27348aa37efd2e57461794b6e0737a31</property>
    <property name="shotcut:caption">Theme_EndCreds_PartyMusic.mp3</property>
    <property name="xml">was here</property>
    <filter id="filter106" out="00:00:05.867">
      <property name="window">75</property>
      <property name="max_gain">20dB</property>
      <property name="level">6</property>
      <property name="mlt_service">volume</property>
    </filter>
    <filter id="filter107" out="00:00:05.867">
      <property name="mlt_service">ladspa.1204</property>
      <property name="shotcut:filter">parametricEq</property>
      <property name="0">0</property>
      <property name="1">20</property>
      <property name="2">0.5</property>
      <property name="3">0</property>
      <property name="4">1911.6</property>
      <property name="5">1</property>
      <property name="6">0</property>
      <property name="7">700</property>
      <property name="8">1</property>
      <property name="9">0</property>
      <property name="10">5000</property>
      <property name="11">1</property>
      <property name="12">0</property>
      <property name="13">15000</property>
      <property name="14">0.5</property>
      <property name="instances">2</property>
    </filter>
    <filter id="filter108" out="00:00:05.867">
      <property name="mlt_service">ladspa.1204</property>
      <property name="shotcut:filter">3BandEq</property>
      <property name="0">0</property>
      <property name="1">200</property>
      <property name="2">0.5</property>
      <property name="3">0</property>
      <property name="4">1000</property>
      <property name="5">1</property>
      <property name="6">-17.9</property>
      <property name="7">1000</property>
      <property name="8">1</property>
      <property name="9">0</property>
      <property name="10">1000</property>
      <property name="11">1</property>
      <property name="12">-19.6</property>
      <property name="13">5000</property>
      <property name="14">0.5</property>
      <property name=".dummy"></property>
      <property name="instances">2</property>
    </filter>
  </chain>
  <chain id="chain24" out="00:01:16.467">
    <property name="length">00:01:16.500</property>
    <property name="eof">pause</property>
    <property name="resource">/Users/jacob/Documents/School/8th Grade (8Se)/Film Studies/DID_U_C_IT/clips/Theme_EndCreds_PartyMusic.mp3</property>
    <property name="mlt_service">avformat-novalidate</property>
    <property name="seekable">1</property>
    <property name="audio_index">0</property>
    <property name="video_index">-1</property>
    <property name="mute_on_pause">0</property>
    <property name="shotcut:hash">27348aa37efd2e57461794b6e0737a31</property>
    <property name="shotcut:caption">Theme_EndCreds_PartyMusic.mp3</property>
    <property name="xml">was here</property>
    <filter id="filter109" out="00:00:05.867">
      <property name="window">75</property>
      <property name="max_gain">20dB</property>
      <property name="level">6</property>
      <property name="mlt_service">volume</property>
    </filter>
    <filter id="filter110" out="00:00:05.867">
      <property name="mlt_service">ladspa.1204</property>
      <property name="shotcut:filter">parametricEq</property>
      <property name="0">0</property>
      <property name="1">20</property>
      <property name="2">0.5</property>
      <property name="3">0</property>
      <property name="4">1911.6</property>
      <property name="5">1</property>
      <property name="6">0</property>
      <property name="7">700</property>
      <property name="8">1</property>
      <property name="9">0</property>
      <property name="10">5000</property>
      <property name="11">1</property>
      <property name="12">0</property>
      <property name="13">15000</property>
      <property name="14">0.5</property>
      <property name="instances">2</property>
    </filter>
    <filter id="filter111" out="00:00:05.867">
      <property name="mlt_service">ladspa.1204</property>
      <property name="shotcut:filter">3BandEq</property>
      <property name="0">0</property>
      <property name="1">200</property>
      <property name="2">0.5</property>
      <property name="3">0</property>
      <property name="4">1000</property>
      <property name="5">1</property>
      <property name="6">-17.9</property>
      <property name="7">1000</property>
      <property name="8">1</property>
      <property name="9">0</property>
      <property name="10">1000</property>
      <property name="11">1</property>
      <property name="12">-19.6</property>
      <property name="13">5000</property>
      <property name="14">0.5</property>
      <property name=".dummy"></property>
      <property name="instances">2</property>
    </filter>
  </chain>
  <chain id="chain25" out="00:01:16.467">
    <property name="length">00:01:16.500</property>
    <property name="eof">pause</property>
    <property name="resource">/Users/jacob/Documents/School/8th Grade (8Se)/Film Studies/DID_U_C_IT/clips/Theme_EndCreds_PartyMusic.mp3</property>
    <property name="mlt_service">avformat-novalidate</property>
    <property name="seekable">1</property>
    <property name="audio_index">0</property>
    <property name="video_index">-1</property>
    <property name="mute_on_pause">0</property>
    <property name="shotcut:hash">27348aa37efd2e57461794b6e0737a31</property>
    <property name="shotcut:caption">Theme_EndCreds_PartyMusic.mp3</property>
    <property name="xml">was here</property>
    <filter id="filter112" out="00:00:05.867">
      <property name="window">75</property>
      <property name="max_gain">20dB</property>
      <property name="level">3</property>
      <property name="mlt_service">volume</property>
    </filter>
    <filter id="filter113" out="00:00:05.867">
      <property name="mlt_service">ladspa.1204</property>
      <property name="shotcut:filter">parametricEq</property>
      <property name="0">0</property>
      <property name="1">20</property>
      <property name="2">0.5</property>
      <property name="3">0</property>
      <property name="4">1911.6</property>
      <property name="5">1</property>
      <property name="6">0</property>
      <property name="7">700</property>
      <property name="8">1</property>
      <property name="9">0</property>
      <property name="10">5000</property>
      <property name="11">1</property>
      <property name="12">0</property>
      <property name="13">15000</property>
      <property name="14">0.5</property>
      <property name="instances">2</property>
    </filter>
    <filter id="filter114" out="00:00:05.867">
      <property name="mlt_service">ladspa.1204</property>
      <property name="shotcut:filter">3BandEq</property>
      <property name="0">0</property>
      <property name="1">200</property>
      <property name="2">0.5</property>
      <property name="3">0</property>
      <property name="4">1000</property>
      <property name="5">1</property>
      <property name="6">-17.9</property>
      <property name="7">1000</property>
      <property name="8">1</property>
      <property name="9">0</property>
      <property name="10">1000</property>
      <property name="11">1</property>
      <property name="12">-19.6</property>
      <property name="13">5000</property>
      <property name="14">0.5</property>
      <property name=".dummy"></property>
      <property name="instances">2</property>
    </filter>
  </chain>
  <chain id="chain26" out="00:01:16.467">
    <property name="length">00:01:16.500</property>
    <property name="eof">pause</property>
    <property name="resource">/Users/jacob/Documents/School/8th Grade (8Se)/Film Studies/DID_U_C_IT/clips/Theme_EndCreds_PartyMusic.mp3</property>
    <property name="mlt_service">avformat-novalidate</property>
    <property name="seekable">1</property>
    <property name="audio_index">0</property>
    <property name="video_index">-1</property>
    <property name="mute_on_pause">0</property>
    <property name="shotcut:hash">27348aa37efd2e57461794b6e0737a31</property>
    <property name="shotcut:caption">Theme_EndCreds_PartyMusic.mp3</property>
    <property name="xml">was here</property>
    <filter id="filter115" out="00:00:05.867">
      <property name="window">75</property>
      <property name="max_gain">20dB</property>
      <property name="level">1</property>
      <property name="mlt_service">volume</property>
    </filter>
    <filter id="filter116" out="00:00:05.867">
      <property name="mlt_service">ladspa.1204</property>
      <property name="shotcut:filter">parametricEq</property>
      <property name="0">0</property>
      <property name="1">20</property>
      <property name="2">0.5</property>
      <property name="3">0</property>
      <property name="4">1911.6</property>
      <property name="5">1</property>
      <property name="6">0</property>
      <property name="7">700</property>
      <property name="8">1</property>
      <property name="9">0</property>
      <property name="10">5000</property>
      <property name="11">1</property>
      <property name="12">0</property>
      <property name="13">15000</property>
      <property name="14">0.5</property>
      <property name="instances">2</property>
    </filter>
    <filter id="filter117" out="00:00:05.867">
      <property name="mlt_service">ladspa.1204</property>
      <property name="shotcut:filter">3BandEq</property>
      <property name="0">0</property>
      <property name="1">200</property>
      <property name="2">0.5</property>
      <property name="3">0</property>
      <property name="4">1000</property>
      <property name="5">1</property>
      <property name="6">-17.9</property>
      <property name="7">1000</property>
      <property name="8">1</property>
      <property name="9">0</property>
      <property name="10">1000</property>
      <property name="11">1</property>
      <property name="12">-19.6</property>
      <property name="13">5000</property>
      <property name="14">0.5</property>
      <property name=".dummy"></property>
      <property name="instances">2</property>
    </filter>
  </chain>
  <chain id="chain27" out="00:01:16.467">
    <property name="length">00:01:16.500</property>
    <property name="eof">pause</property>
    <property name="resource">/Users/jacob/Documents/School/8th Grade (8Se)/Film Studies/DID_U_C_IT/clips/Theme_EndCreds_PartyMusic.mp3</property>
    <property name="mlt_service">avformat-novalidate</property>
    <property name="seekable">1</property>
    <property name="audio_index">0</property>
    <property name="video_index">-1</property>
    <property name="mute_on_pause">0</property>
    <property name="shotcut:hash">27348aa37efd2e57461794b6e0737a31</property>
    <property name="shotcut:caption">Theme_EndCreds_PartyMusic.mp3</property>
    <property name="xml">was here</property>
    <filter id="filter118" out="00:00:07.867">
      <property name="window">75</property>
      <property name="max_gain">20dB</property>
      <property name="level">6</property>
      <property name="mlt_service">volume</property>
    </filter>
    <filter id="filter119" out="00:00:07.867">
      <property name="mlt_service">ladspa.1204</property>
      <property name="shotcut:filter">parametricEq</property>
      <property name="0">0</property>
      <property name="1">20</property>
      <property name="2">0.5</property>
      <property name="3">0</property>
      <property name="4">1911.6</property>
      <property name="5">1</property>
      <property name="6">0</property>
      <property name="7">700</property>
      <property name="8">1</property>
      <property name="9">0</property>
      <property name="10">5000</property>
      <property name="11">1</property>
      <property name="12">0</property>
      <property name="13">15000</property>
      <property name="14">0.5</property>
      <property name="instances">2</property>
    </filter>
    <filter id="filter120" out="00:00:07.867">
      <property name="mlt_service">ladspa.1204</property>
      <property name="shotcut:filter">3BandEq</property>
      <property name="0">0</property>
      <property name="1">200</property>
      <property name="2">0.5</property>
      <property name="3">0</property>
      <property name="4">1000</property>
      <property name="5">1</property>
      <property name="6">-17.9</property>
      <property name="7">1000</property>
      <property name="8">1</property>
      <property name="9">0</property>
      <property name="10">1000</property>
      <property name="11">1</property>
      <property name="12">-19.6</property>
      <property name="13">5000</property>
      <property name="14">0.5</property>
      <property name=".dummy"></property>
      <property name="instances">2</property>
    </filter>
    <filter id="filter121" out="00:00:07.867">
      <property name="window">75</property>
      <property name="max_gain">20dB</property>
      <property name="level">00:00:06.000=0;00:00:07.867=-60</property>
      <property name="mlt_service">volume</property>
      <property name="shotcut:filter">fadeOutVolume</property>
      <property name="shotcut:animOut">57</property>
    </filter>
  </chain>
  <chain id="chain28" out="00:01:16.467">
    <property name="length">00:01:16.500</property>
    <property name="eof">pause</property>
    <property name="resource">/Users/jacob/Documents/School/8th Grade (8Se)/Film Studies/DID_U_C_IT/clips/Theme_EndCreds_PartyMusic.mp3</property>
    <property name="mlt_service">avformat-novalidate</property>
    <property name="seekable">1</property>
    <property name="audio_index">0</property>
    <property name="video_index">-1</property>
    <property name="mute_on_pause">0</property>
    <property name="shotcut:hash">27348aa37efd2e57461794b6e0737a31</property>
    <property name="shotcut:caption">Theme_EndCreds_PartyMusic.mp3</property>
    <property name="xml">was here</property>
    <filter id="filter122" out="00:00:05.867">
      <property name="window">75</property>
      <property name="max_gain">20dB</property>
      <property name="level">0</property>
      <property name="mlt_service">volume</property>
    </filter>
    <filter id="filter123" out="00:00:05.867">
      <property name="mlt_service">ladspa.1204</property>
      <property name="shotcut:filter">parametricEq</property>
      <property name="0">0</property>
      <property name="1">20</property>
      <property name="2">0.5</property>
      <property name="3">0</property>
      <property name="4">1911.6</property>
      <property name="5">1</property>
      <property name="6">0</property>
      <property name="7">700</property>
      <property name="8">1</property>
      <property name="9">0</property>
      <property name="10">5000</property>
      <property name="11">1</property>
      <property name="12">0</property>
      <property name="13">15000</property>
      <property name="14">0.5</property>
      <property name="instances">2</property>
    </filter>
    <filter id="filter124" out="00:00:05.867">
      <property name="mlt_service">ladspa.1204</property>
      <property name="shotcut:filter">3BandEq</property>
      <property name="0">0</property>
      <property name="1">200</property>
      <property name="2">0.5</property>
      <property name="3">0</property>
      <property name="4">1000</property>
      <property name="5">1</property>
      <property name="6">-17.9</property>
      <property name="7">1000</property>
      <property name="8">1</property>
      <property name="9">0</property>
      <property name="10">1000</property>
      <property name="11">1</property>
      <property name="12">-19.6</property>
      <property name="13">5000</property>
      <property name="14">0.5</property>
      <property name=".dummy"></property>
      <property name="instances">2</property>
    </filter>
  </chain>
  <chain id="chain29" out="00:01:16.467">
    <property name="length">00:01:16.500</property>
    <property name="eof">pause</property>
    <property name="resource">/Users/jacob/Documents/School/8th Grade (8Se)/Film Studies/DID_U_C_IT/clips/Theme_EndCreds_PartyMusic.mp3</property>
    <property name="mlt_service">avformat-novalidate</property>
    <property name="seekable">1</property>
    <property name="audio_index">0</property>
    <property name="video_index">-1</property>
    <property name="mute_on_pause">0</property>
    <property name="shotcut:hash">27348aa37efd2e57461794b6e0737a31</property>
    <property name="shotcut:caption">Theme_EndCreds_PartyMusic.mp3</property>
    <property name="xml">was here</property>
    <filter id="filter125" out="00:00:05.867">
      <property name="window">75</property>
      <property name="max_gain">20dB</property>
      <property name="level">0</property>
      <property name="mlt_service">volume</property>
    </filter>
    <filter id="filter126" out="00:00:05.867">
      <property name="mlt_service">ladspa.1204</property>
      <property name="shotcut:filter">parametricEq</property>
      <property name="0">0</property>
      <property name="1">20</property>
      <property name="2">0.5</property>
      <property name="3">0</property>
      <property name="4">1911.6</property>
      <property name="5">1</property>
      <property name="6">0</property>
      <property name="7">700</property>
      <property name="8">1</property>
      <property name="9">0</property>
      <property name="10">5000</property>
      <property name="11">1</property>
      <property name="12">0</property>
      <property name="13">15000</property>
      <property name="14">0.5</property>
      <property name="instances">2</property>
    </filter>
    <filter id="filter127" out="00:00:05.867">
      <property name="mlt_service">ladspa.1204</property>
      <property name="shotcut:filter">3BandEq</property>
      <property name="0">0</property>
      <property name="1">200</property>
      <property name="2">0.5</property>
      <property name="3">0</property>
      <property name="4">1000</property>
      <property name="5">1</property>
      <property name="6">-17.9</property>
      <property name="7">1000</property>
      <property name="8">1</property>
      <property name="9">0</property>
      <property name="10">1000</property>
      <property name="11">1</property>
      <property name="12">-19.6</property>
      <property name="13">5000</property>
      <property name="14">0.5</property>
      <property name=".dummy"></property>
      <property name="instances">2</property>
    </filter>
  </chain>
  <chain id="chain30" out="00:01:16.467">
    <property name="length">00:01:16.500</property>
    <property name="eof">pause</property>
    <property name="resource">/Users/jacob/Documents/School/8th Grade (8Se)/Film Studies/DID_U_C_IT/clips/Theme_EndCreds_PartyMusic.mp3</property>
    <property name="mlt_service">avformat-novalidate</property>
    <property name="seekable">1</property>
    <property name="audio_index">0</property>
    <property name="video_index">-1</property>
    <property name="mute_on_pause">0</property>
    <property name="shotcut:hash">27348aa37efd2e57461794b6e0737a31</property>
    <property name="shotcut:caption">Theme_EndCreds_PartyMusic.mp3</property>
    <property name="xml">was here</property>
    <filter id="filter128" out="00:00:05.867">
      <property name="window">75</property>
      <property name="max_gain">20dB</property>
      <property name="level">0</property>
      <property name="mlt_service">volume</property>
    </filter>
    <filter id="filter129" out="00:00:05.867">
      <property name="mlt_service">ladspa.1204</property>
      <property name="shotcut:filter">parametricEq</property>
      <property name="0">0</property>
      <property name="1">20</property>
      <property name="2">0.5</property>
      <property name="3">0</property>
      <property name="4">1911.6</property>
      <property name="5">1</property>
      <property name="6">0</property>
      <property name="7">700</property>
      <property name="8">1</property>
      <property name="9">0</property>
      <property name="10">5000</property>
      <property name="11">1</property>
      <property name="12">0</property>
      <property name="13">15000</property>
      <property name="14">0.5</property>
      <property name="instances">2</property>
    </filter>
    <filter id="filter130" out="00:00:05.867">
      <property name="mlt_service">ladspa.1204</property>
      <property name="shotcut:filter">3BandEq</property>
      <property name="0">0</property>
      <property name="1">200</property>
      <property name="2">0.5</property>
      <property name="3">0</property>
      <property name="4">1000</property>
      <property name="5">1</property>
      <property name="6">-17.9</property>
      <property name="7">1000</property>
      <property name="8">1</property>
      <property name="9">0</property>
      <property name="10">1000</property>
      <property name="11">1</property>
      <property name="12">-19.6</property>
      <property name="13">5000</property>
      <property name="14">0.5</property>
      <property name=".dummy"></property>
      <property name="instances">2</property>
    </filter>
  </chain>
  <chain id="chain31" out="00:01:16.467">
    <property name="length">00:01:16.500</property>
    <property name="eof">pause</property>
    <property name="resource">/Users/jacob/Documents/School/8th Grade (8Se)/Film Studies/DID_U_C_IT/clips/Theme_EndCreds_PartyMusic.mp3</property>
    <property name="mlt_service">avformat-novalidate</property>
    <property name="seekable">1</property>
    <property name="audio_index">0</property>
    <property name="video_index">-1</property>
    <property name="mute_on_pause">0</property>
    <property name="shotcut:hash">27348aa37efd2e57461794b6e0737a31</property>
    <property name="shotcut:caption">Theme_EndCreds_PartyMusic.mp3</property>
    <property name="xml">was here</property>
    <filter id="filter131" out="00:00:05.867">
      <property name="window">75</property>
      <property name="max_gain">20dB</property>
      <property name="level">0</property>
      <property name="mlt_service">volume</property>
    </filter>
    <filter id="filter132" out="00:00:05.867">
      <property name="mlt_service">ladspa.1204</property>
      <property name="shotcut:filter">parametricEq</property>
      <property name="0">0</property>
      <property name="1">20</property>
      <property name="2">0.5</property>
      <property name="3">0</property>
      <property name="4">1911.6</property>
      <property name="5">1</property>
      <property name="6">0</property>
      <property name="7">700</property>
      <property name="8">1</property>
      <property name="9">0</property>
      <property name="10">5000</property>
      <property name="11">1</property>
      <property name="12">0</property>
      <property name="13">15000</property>
      <property name="14">0.5</property>
      <property name="instances">2</property>
    </filter>
    <filter id="filter133" out="00:00:05.867">
      <property name="mlt_service">ladspa.1204</property>
      <property name="shotcut:filter">3BandEq</property>
      <property name="0">0</property>
      <property name="1">200</property>
      <property name="2">0.5</property>
      <property name="3">0</property>
      <property name="4">1000</property>
      <property name="5">1</property>
      <property name="6">-17.9</property>
      <property name="7">1000</property>
      <property name="8">1</property>
      <property name="9">0</property>
      <property name="10">1000</property>
      <property name="11">1</property>
      <property name="12">-19.6</property>
      <property name="13">5000</property>
      <property name="14">0.5</property>
      <property name=".dummy"></property>
      <property name="instances">2</property>
    </filter>
  </chain>
  <chain id="chain32" out="00:01:16.467">
    <property name="length">00:01:16.500</property>
    <property name="eof">pause</property>
    <property name="resource">/Users/jacob/Documents/School/8th Grade (8Se)/Film Studies/DID_U_C_IT/clips/Theme_EndCreds_PartyMusic.mp3</property>
    <property name="mlt_service">avformat-novalidate</property>
    <property name="seekable">1</property>
    <property name="audio_index">0</property>
    <property name="video_index">-1</property>
    <property name="mute_on_pause">0</property>
    <property name="shotcut:hash">27348aa37efd2e57461794b6e0737a31</property>
    <property name="shotcut:caption">Theme_EndCreds_PartyMusic.mp3</property>
    <property name="xml">was here</property>
    <filter id="filter134" out="00:00:05.867">
      <property name="window">75</property>
      <property name="max_gain">20dB</property>
      <property name="level">0</property>
      <property name="mlt_service">volume</property>
    </filter>
    <filter id="filter135" out="00:00:05.867">
      <property name="mlt_service">ladspa.1204</property>
      <property name="shotcut:filter">parametricEq</property>
      <property name="0">0</property>
      <property name="1">20</property>
      <property name="2">0.5</property>
      <property name="3">0</property>
      <property name="4">1911.6</property>
      <property name="5">1</property>
      <property name="6">0</property>
      <property name="7">700</property>
      <property name="8">1</property>
      <property name="9">0</property>
      <property name="10">5000</property>
      <property name="11">1</property>
      <property name="12">0</property>
      <property name="13">15000</property>
      <property name="14">0.5</property>
      <property name="instances">2</property>
    </filter>
    <filter id="filter136" out="00:00:05.867">
      <property name="mlt_service">ladspa.1204</property>
      <property name="shotcut:filter">3BandEq</property>
      <property name="0">0</property>
      <property name="1">200</property>
      <property name="2">0.5</property>
      <property name="3">0</property>
      <property name="4">1000</property>
      <property name="5">1</property>
      <property name="6">-17.9</property>
      <property name="7">1000</property>
      <property name="8">1</property>
      <property name="9">0</property>
      <property name="10">1000</property>
      <property name="11">1</property>
      <property name="12">-19.6</property>
      <property name="13">5000</property>
      <property name="14">0.5</property>
      <property name=".dummy"></property>
      <property name="instances">2</property>
    </filter>
  </chain>
  <chain id="chain33" out="00:01:16.467">
    <property name="length">00:01:16.500</property>
    <property name="eof">pause</property>
    <property name="resource">/Users/jacob/Documents/School/8th Grade (8Se)/Film Studies/DID_U_C_IT/clips/Theme_EndCreds_PartyMusic.mp3</property>
    <property name="mlt_service">avformat-novalidate</property>
    <property name="seekable">1</property>
    <property name="audio_index">0</property>
    <property name="video_index">-1</property>
    <property name="mute_on_pause">0</property>
    <property name="shotcut:hash">27348aa37efd2e57461794b6e0737a31</property>
    <property name="shotcut:caption">Theme_EndCreds_PartyMusic.mp3</property>
    <property name="xml">was here</property>
    <filter id="filter137" out="00:00:05.867">
      <property name="window">75</property>
      <property name="max_gain">20dB</property>
      <property name="level">0</property>
      <property name="mlt_service">volume</property>
    </filter>
    <filter id="filter138" out="00:00:05.867">
      <property name="mlt_service">ladspa.1204</property>
      <property name="shotcut:filter">parametricEq</property>
      <property name="0">0</property>
      <property name="1">20</property>
      <property name="2">0.5</property>
      <property name="3">0</property>
      <property name="4">1911.6</property>
      <property name="5">1</property>
      <property name="6">0</property>
      <property name="7">700</property>
      <property name="8">1</property>
      <property name="9">0</property>
      <property name="10">5000</property>
      <property name="11">1</property>
      <property name="12">0</property>
      <property name="13">15000</property>
      <property name="14">0.5</property>
      <property name="instances">2</property>
    </filter>
    <filter id="filter139" out="00:00:05.867">
      <property name="mlt_service">ladspa.1204</property>
      <property name="shotcut:filter">3BandEq</property>
      <property name="0">0</property>
      <property name="1">200</property>
      <property name="2">0.5</property>
      <property name="3">0</property>
      <property name="4">1000</property>
      <property name="5">1</property>
      <property name="6">-17.9</property>
      <property name="7">1000</property>
      <property name="8">1</property>
      <property name="9">0</property>
      <property name="10">1000</property>
      <property name="11">1</property>
      <property name="12">-19.6</property>
      <property name="13">5000</property>
      <property name="14">0.5</property>
      <property name=".dummy"></property>
      <property name="instances">2</property>
    </filter>
  </chain>
  <chain id="chain34" out="00:01:16.467">
    <property name="length">00:01:16.500</property>
    <property name="eof">pause</property>
    <property name="resource">/Users/jacob/Documents/School/8th Grade (8Se)/Film Studies/DID_U_C_IT/clips/Theme_EndCreds_PartyMusic.mp3</property>
    <property name="mlt_service">avformat-novalidate</property>
    <property name="seekable">1</property>
    <property name="audio_index">0</property>
    <property name="video_index">-1</property>
    <property name="mute_on_pause">0</property>
    <property name="shotcut:hash">27348aa37efd2e57461794b6e0737a31</property>
    <property name="shotcut:caption">Theme_EndCreds_PartyMusic.mp3</property>
    <property name="xml">was here</property>
    <filter id="filter140" out="00:00:05.867">
      <property name="window">75</property>
      <property name="max_gain">20dB</property>
      <property name="level">0</property>
      <property name="mlt_service">volume</property>
    </filter>
    <filter id="filter141" out="00:00:05.867">
      <property name="mlt_service">ladspa.1204</property>
      <property name="shotcut:filter">parametricEq</property>
      <property name="0">0</property>
      <property name="1">20</property>
      <property name="2">0.5</property>
      <property name="3">0</property>
      <property name="4">1911.6</property>
      <property name="5">1</property>
      <property name="6">0</property>
      <property name="7">700</property>
      <property name="8">1</property>
      <property name="9">0</property>
      <property name="10">5000</property>
      <property name="11">1</property>
      <property name="12">0</property>
      <property name="13">15000</property>
      <property name="14">0.5</property>
      <property name="instances">2</property>
    </filter>
    <filter id="filter142" out="00:00:05.867">
      <property name="mlt_service">ladspa.1204</property>
      <property name="shotcut:filter">3BandEq</property>
      <property name="0">0</property>
      <property name="1">200</property>
      <property name="2">0.5</property>
      <property name="3">0</property>
      <property name="4">1000</property>
      <property name="5">1</property>
      <property name="6">-17.9</property>
      <property name="7">1000</property>
      <property name="8">1</property>
      <property name="9">0</property>
      <property name="10">1000</property>
      <property name="11">1</property>
      <property name="12">-19.6</property>
      <property name="13">5000</property>
      <property name="14">0.5</property>
      <property name=".dummy"></property>
      <property name="instances">2</property>
    </filter>
  </chain>
  <chain id="chain35" out="00:01:16.467">
    <property name="length">00:01:16.500</property>
    <property name="eof">pause</property>
    <property name="resource">/Users/jacob/Documents/School/8th Grade (8Se)/Film Studies/DID_U_C_IT/clips/Theme_EndCreds_PartyMusic.mp3</property>
    <property name="mlt_service">avformat-novalidate</property>
    <property name="seekable">1</property>
    <property name="audio_index">0</property>
    <property name="video_index">-1</property>
    <property name="mute_on_pause">0</property>
    <property name="shotcut:hash">27348aa37efd2e57461794b6e0737a31</property>
    <property name="shotcut:caption">Theme_EndCreds_PartyMusic.mp3</property>
    <property name="xml">was here</property>
    <filter id="filter143" out="00:00:05.867">
      <property name="window">75</property>
      <property name="max_gain">20dB</property>
      <property name="level">0</property>
      <property name="mlt_service">volume</property>
    </filter>
    <filter id="filter144" out="00:00:05.867">
      <property name="mlt_service">ladspa.1204</property>
      <property name="shotcut:filter">parametricEq</property>
      <property name="0">0</property>
      <property name="1">20</property>
      <property name="2">0.5</property>
      <property name="3">0</property>
      <property name="4">1911.6</property>
      <property name="5">1</property>
      <property name="6">0</property>
      <property name="7">700</property>
      <property name="8">1</property>
      <property name="9">0</property>
      <property name="10">5000</property>
      <property name="11">1</property>
      <property name="12">0</property>
      <property name="13">15000</property>
      <property name="14">0.5</property>
      <property name="instances">2</property>
    </filter>
    <filter id="filter145" out="00:00:05.867">
      <property name="mlt_service">ladspa.1204</property>
      <property name="shotcut:filter">3BandEq</property>
      <property name="0">0</property>
      <property name="1">200</property>
      <property name="2">0.5</property>
      <property name="3">0</property>
      <property name="4">1000</property>
      <property name="5">1</property>
      <property name="6">-17.9</property>
      <property name="7">1000</property>
      <property name="8">1</property>
      <property name="9">0</property>
      <property name="10">1000</property>
      <property name="11">1</property>
      <property name="12">-19.6</property>
      <property name="13">5000</property>
      <property name="14">0.5</property>
      <property name=".dummy"></property>
      <property name="instances">2</property>
    </filter>
  </chain>
  <chain id="chain36" out="00:01:16.467">
    <property name="length">00:01:16.500</property>
    <property name="eof">pause</property>
    <property name="resource">/Users/jacob/Documents/School/8th Grade (8Se)/Film Studies/DID_U_C_IT/clips/Theme_EndCreds_PartyMusic.mp3</property>
    <property name="mlt_service">avformat-novalidate</property>
    <property name="seekable">1</property>
    <property name="audio_index">0</property>
    <property name="video_index">-1</property>
    <property name="mute_on_pause">0</property>
    <property name="shotcut:hash">27348aa37efd2e57461794b6e0737a31</property>
    <property name="shotcut:caption">Theme_EndCreds_PartyMusic.mp3</property>
    <property name="xml">was here</property>
    <filter id="filter146" out="00:00:05.867">
      <property name="window">75</property>
      <property name="max_gain">20dB</property>
      <property name="level">0</property>
      <property name="mlt_service">volume</property>
    </filter>
    <filter id="filter147" out="00:00:05.867">
      <property name="mlt_service">ladspa.1204</property>
      <property name="shotcut:filter">parametricEq</property>
      <property name="0">0</property>
      <property name="1">20</property>
      <property name="2">0.5</property>
      <property name="3">0</property>
      <property name="4">1911.6</property>
      <property name="5">1</property>
      <property name="6">0</property>
      <property name="7">700</property>
      <property name="8">1</property>
      <property name="9">0</property>
      <property name="10">5000</property>
      <property name="11">1</property>
      <property name="12">0</property>
      <property name="13">15000</property>
      <property name="14">0.5</property>
      <property name="instances">2</property>
    </filter>
    <filter id="filter148" out="00:00:05.867">
      <property name="mlt_service">ladspa.1204</property>
      <property name="shotcut:filter">3BandEq</property>
      <property name="0">0</property>
      <property name="1">200</property>
      <property name="2">0.5</property>
      <property name="3">0</property>
      <property name="4">1000</property>
      <property name="5">1</property>
      <property name="6">-17.9</property>
      <property name="7">1000</property>
      <property name="8">1</property>
      <property name="9">0</property>
      <property name="10">1000</property>
      <property name="11">1</property>
      <property name="12">-19.6</property>
      <property name="13">5000</property>
      <property name="14">0.5</property>
      <property name=".dummy"></property>
      <property name="instances">2</property>
    </filter>
  </chain>
  <chain id="chain37" out="00:01:16.467">
    <property name="length">00:01:16.500</property>
    <property name="eof">pause</property>
    <property name="resource">/Users/jacob/Documents/School/8th Grade (8Se)/Film Studies/DID_U_C_IT/clips/Theme_EndCreds_PartyMusic.mp3</property>
    <property name="mlt_service">avformat-novalidate</property>
    <property name="seekable">1</property>
    <property name="audio_index">0</property>
    <property name="video_index">-1</property>
    <property name="mute_on_pause">0</property>
    <property name="shotcut:hash">27348aa37efd2e57461794b6e0737a31</property>
    <property name="shotcut:caption">Theme_EndCreds_PartyMusic.mp3</property>
    <property name="xml">was here</property>
    <filter id="filter149" out="00:00:05.867">
      <property name="window">75</property>
      <property name="max_gain">20dB</property>
      <property name="level">0</property>
      <property name="mlt_service">volume</property>
    </filter>
    <filter id="filter150" out="00:00:05.867">
      <property name="mlt_service">ladspa.1204</property>
      <property name="shotcut:filter">parametricEq</property>
      <property name="0">0</property>
      <property name="1">20</property>
      <property name="2">0.5</property>
      <property name="3">0</property>
      <property name="4">1911.6</property>
      <property name="5">1</property>
      <property name="6">0</property>
      <property name="7">700</property>
      <property name="8">1</property>
      <property name="9">0</property>
      <property name="10">5000</property>
      <property name="11">1</property>
      <property name="12">0</property>
      <property name="13">15000</property>
      <property name="14">0.5</property>
      <property name="instances">2</property>
    </filter>
    <filter id="filter151" out="00:00:05.867">
      <property name="mlt_service">ladspa.1204</property>
      <property name="shotcut:filter">3BandEq</property>
      <property name="0">0</property>
      <property name="1">200</property>
      <property name="2">0.5</property>
      <property name="3">0</property>
      <property name="4">1000</property>
      <property name="5">1</property>
      <property name="6">-17.9</property>
      <property name="7">1000</property>
      <property name="8">1</property>
      <property name="9">0</property>
      <property name="10">1000</property>
      <property name="11">1</property>
      <property name="12">-19.6</property>
      <property name="13">5000</property>
      <property name="14">0.5</property>
      <property name=".dummy"></property>
      <property name="instances">2</property>
    </filter>
  </chain>
  <chain id="chain38" out="00:01:16.467">
    <property name="length">00:01:16.500</property>
    <property name="eof">pause</property>
    <property name="resource">/Users/jacob/Documents/School/8th Grade (8Se)/Film Studies/DID_U_C_IT/clips/Theme_EndCreds_PartyMusic.mp3</property>
    <property name="mlt_service">avformat-novalidate</property>
    <property name="seekable">1</property>
    <property name="audio_index">0</property>
    <property name="video_index">-1</property>
    <property name="mute_on_pause">0</property>
    <property name="shotcut:hash">27348aa37efd2e57461794b6e0737a31</property>
    <property name="shotcut:caption">Theme_EndCreds_PartyMusic.mp3</property>
    <property name="xml">was here</property>
    <filter id="filter152" out="00:00:05.867">
      <property name="window">75</property>
      <property name="max_gain">20dB</property>
      <property name="level">0</property>
      <property name="mlt_service">volume</property>
    </filter>
    <filter id="filter153" out="00:00:05.867">
      <property name="mlt_service">ladspa.1204</property>
      <property name="shotcut:filter">parametricEq</property>
      <property name="0">0</property>
      <property name="1">20</property>
      <property name="2">0.5</property>
      <property name="3">0</property>
      <property name="4">1911.6</property>
      <property name="5">1</property>
      <property name="6">0</property>
      <property name="7">700</property>
      <property name="8">1</property>
      <property name="9">0</property>
      <property name="10">5000</property>
      <property name="11">1</property>
      <property name="12">0</property>
      <property name="13">15000</property>
      <property name="14">0.5</property>
      <property name="instances">2</property>
    </filter>
    <filter id="filter154" out="00:00:05.867">
      <property name="mlt_service">ladspa.1204</property>
      <property name="shotcut:filter">3BandEq</property>
      <property name="0">0</property>
      <property name="1">200</property>
      <property name="2">0.5</property>
      <property name="3">0</property>
      <property name="4">1000</property>
      <property name="5">1</property>
      <property name="6">-17.9</property>
      <property name="7">1000</property>
      <property name="8">1</property>
      <property name="9">0</property>
      <property name="10">1000</property>
      <property name="11">1</property>
      <property name="12">-19.6</property>
      <property name="13">5000</property>
      <property name="14">0.5</property>
      <property name=".dummy"></property>
      <property name="instances">2</property>
    </filter>
  </chain>
  <chain id="chain39" out="00:01:16.467">
    <property name="length">00:01:16.500</property>
    <property name="eof">pause</property>
    <property name="resource">/Users/jacob/Documents/School/8th Grade (8Se)/Film Studies/DID_U_C_IT/clips/Theme_EndCreds_PartyMusic.mp3</property>
    <property name="mlt_service">avformat-novalidate</property>
    <property name="seekable">1</property>
    <property name="audio_index">0</property>
    <property name="video_index">-1</property>
    <property name="mute_on_pause">0</property>
    <property name="shotcut:hash">27348aa37efd2e57461794b6e0737a31</property>
    <property name="shotcut:caption">Theme_EndCreds_PartyMusic.mp3</property>
    <property name="xml">was here</property>
    <filter id="filter155" out="00:00:05.867">
      <property name="window">75</property>
      <property name="max_gain">20dB</property>
      <property name="level">0</property>
      <property name="mlt_service">volume</property>
    </filter>
    <filter id="filter156" out="00:00:05.867">
      <property name="mlt_service">ladspa.1204</property>
      <property name="shotcut:filter">parametricEq</property>
      <property name="0">0</property>
      <property name="1">20</property>
      <property name="2">0.5</property>
      <property name="3">0</property>
      <property name="4">1911.6</property>
      <property name="5">1</property>
      <property name="6">0</property>
      <property name="7">700</property>
      <property name="8">1</property>
      <property name="9">0</property>
      <property name="10">5000</property>
      <property name="11">1</property>
      <property name="12">0</property>
      <property name="13">15000</property>
      <property name="14">0.5</property>
      <property name="instances">2</property>
    </filter>
    <filter id="filter157" out="00:00:05.867">
      <property name="mlt_service">ladspa.1204</property>
      <property name="shotcut:filter">3BandEq</property>
      <property name="0">0</property>
      <property name="1">200</property>
      <property name="2">0.5</property>
      <property name="3">0</property>
      <property name="4">1000</property>
      <property name="5">1</property>
      <property name="6">-17.9</property>
      <property name="7">1000</property>
      <property name="8">1</property>
      <property name="9">0</property>
      <property name="10">1000</property>
      <property name="11">1</property>
      <property name="12">-19.6</property>
      <property name="13">5000</property>
      <property name="14">0.5</property>
      <property name=".dummy"></property>
      <property name="instances">2</property>
    </filter>
  </chain>
  <chain id="chain40" out="00:01:16.467">
    <property name="length">00:01:16.500</property>
    <property name="eof">pause</property>
    <property name="resource">/Users/jacob/Documents/School/8th Grade (8Se)/Film Studies/DID_U_C_IT/clips/Theme_EndCreds_PartyMusic.mp3</property>
    <property name="mlt_service">avformat-novalidate</property>
    <property name="seekable">1</property>
    <property name="audio_index">0</property>
    <property name="video_index">-1</property>
    <property name="mute_on_pause">0</property>
    <property name="shotcut:hash">27348aa37efd2e57461794b6e0737a31</property>
    <property name="shotcut:caption">Theme_EndCreds_PartyMusic.mp3</property>
    <property name="xml">was here</property>
    <filter id="filter158" in="00:00:00.067" out="00:00:10.633">
      <property name="window">75</property>
      <property name="max_gain">20dB</property>
      <property name="level">0</property>
      <property name="mlt_service">volume</property>
    </filter>
    <filter id="filter159" in="00:00:00.067" out="00:00:10.633">
      <property name="mlt_service">ladspa.1204</property>
      <property name="shotcut:filter">parametricEq</property>
      <property name="0">0</property>
      <property name="1">20</property>
      <property name="2">0.5</property>
      <property name="3">0</property>
      <property name="4">1911.6</property>
      <property name="5">1</property>
      <property name="6">0</property>
      <property name="7">700</property>
      <property name="8">1</property>
      <property name="9">0</property>
      <property name="10">5000</property>
      <property name="11">1</property>
      <property name="12">0</property>
      <property name="13">15000</property>
      <property name="14">0.5</property>
      <property name="instances">2</property>
    </filter>
    <filter id="filter160" in="00:00:00.067" out="00:00:10.633">
      <property name="mlt_service">ladspa.1204</property>
      <property name="shotcut:filter">3BandEq</property>
      <property name="0">0</property>
      <property name="1">200</property>
      <property name="2">0.5</property>
      <property name="3">0</property>
      <property name="4">1000</property>
      <property name="5">1</property>
      <property name="6">-17.9</property>
      <property name="7">1000</property>
      <property name="8">1</property>
      <property name="9">0</property>
      <property name="10">1000</property>
      <property name="11">1</property>
      <property name="12">-19.6</property>
      <property name="13">5000</property>
      <property name="14">0.5</property>
      <property name=".dummy"></property>
      <property name="instances">2</property>
    </filter>
  </chain>
  <chain id="chain41" out="00:01:16.467">
    <property name="length">00:01:16.500</property>
    <property name="eof">pause</property>
    <property name="resource">/Users/jacob/Documents/School/8th Grade (8Se)/Film Studies/DID_U_C_IT/clips/Theme_EndCreds_PartyMusic.mp3</property>
    <property name="mlt_service">avformat-novalidate</property>
    <property name="seekable">1</property>
    <property name="audio_index">0</property>
    <property name="video_index">-1</property>
    <property name="mute_on_pause">0</property>
    <property name="shotcut:hash">27348aa37efd2e57461794b6e0737a31</property>
    <property name="shotcut:caption">Theme_EndCreds_PartyMusic.mp3</property>
    <property name="xml">was here</property>
    <filter id="filter161" out="00:00:01.867">
      <property name="window">75</property>
      <property name="max_gain">20dB</property>
      <property name="level">14</property>
      <property name="mlt_service">volume</property>
    </filter>
    <filter id="filter162" out="00:00:01.867">
      <property name="mlt_service">ladspa.1204</property>
      <property name="shotcut:filter">parametricEq</property>
      <property name="0">0</property>
      <property name="1">20</property>
      <property name="2">0.5</property>
      <property name="3">0</property>
      <property name="4">1911.6</property>
      <property name="5">1</property>
      <property name="6">0</property>
      <property name="7">700</property>
      <property name="8">1</property>
      <property name="9">0</property>
      <property name="10">5000</property>
      <property name="11">1</property>
      <property name="12">0</property>
      <property name="13">15000</property>
      <property name="14">0.5</property>
      <property name="instances">2</property>
    </filter>
    <filter id="filter163" out="00:00:01.867">
      <property name="mlt_service">ladspa.1204</property>
      <property name="shotcut:filter">3BandEq</property>
      <property name="0">0</property>
      <property name="1">200</property>
      <property name="2">0.5</property>
      <property name="3">0</property>
      <property name="4">1000</property>
      <property name="5">1</property>
      <property name="6">-17.9</property>
      <property name="7">1000</property>
      <property name="8">1</property>
      <property name="9">0</property>
      <property name="10">1000</property>
      <property name="11">1</property>
      <property name="12">-19.6</property>
      <property name="13">5000</property>
      <property name="14">0.5</property>
      <property name=".dummy"></property>
      <property name="instances">2</property>
    </filter>
  </chain>
  <chain id="chain42" out="00:01:16.467">
    <property name="length">00:01:16.500</property>
    <property name="eof">pause</property>
    <property name="resource">/Users/jacob/Documents/School/8th Grade (8Se)/Film Studies/DID_U_C_IT/clips/Theme_EndCreds_PartyMusic.mp3</property>
    <property name="mlt_service">avformat-novalidate</property>
    <property name="seekable">1</property>
    <property name="audio_index">0</property>
    <property name="video_index">-1</property>
    <property name="mute_on_pause">0</property>
    <property name="shotcut:hash">27348aa37efd2e57461794b6e0737a31</property>
    <property name="shotcut:caption">Theme_EndCreds_PartyMusic.mp3</property>
    <property name="xml">was here</property>
    <filter id="filter164" in="00:00:01.900" out="00:00:07.567">
      <property name="window">75</property>
      <property name="max_gain">20dB</property>
      <property name="level">6</property>
      <property name="mlt_service">volume</property>
    </filter>
    <filter id="filter165" in="00:00:01.900" out="00:00:07.567">
      <property name="mlt_service">ladspa.1204</property>
      <property name="shotcut:filter">parametricEq</property>
      <property name="0">0</property>
      <property name="1">20</property>
      <property name="2">0.5</property>
      <property name="3">0</property>
      <property name="4">1911.6</property>
      <property name="5">1</property>
      <property name="6">0</property>
      <property name="7">700</property>
      <property name="8">1</property>
      <property name="9">0</property>
      <property name="10">5000</property>
      <property name="11">1</property>
      <property name="12">0</property>
      <property name="13">15000</property>
      <property name="14">0.5</property>
      <property name="instances">2</property>
    </filter>
    <filter id="filter166" in="00:00:01.900" out="00:00:07.567">
      <property name="mlt_service">ladspa.1204</property>
      <property name="shotcut:filter">3BandEq</property>
      <property name="0">0</property>
      <property name="1">200</property>
      <property name="2">0.5</property>
      <property name="3">0</property>
      <property name="4">1000</property>
      <property name="5">1</property>
      <property name="6">-17.9</property>
      <property name="7">1000</property>
      <property name="8">1</property>
      <property name="9">0</property>
      <property name="10">1000</property>
      <property name="11">1</property>
      <property name="12">-19.6</property>
      <property name="13">5000</property>
      <property name="14">0.5</property>
      <property name=".dummy"></property>
      <property name="instances">2</property>
    </filter>
  </chain>
  <chain id="chain43" out="00:01:16.467">
    <property name="length">00:01:16.500</property>
    <property name="eof">pause</property>
    <property name="resource">/Users/jacob/Documents/School/8th Grade (8Se)/Film Studies/DID_U_C_IT/clips/Theme_EndCreds_PartyMusic.mp3</property>
    <property name="mlt_service">avformat-novalidate</property>
    <property name="seekable">1</property>
    <property name="audio_index">0</property>
    <property name="video_index">-1</property>
    <property name="mute_on_pause">0</property>
    <property name="shotcut:hash">27348aa37efd2e57461794b6e0737a31</property>
    <property name="shotcut:caption">Theme_EndCreds_PartyMusic.mp3</property>
    <property name="xml">was here</property>
    <filter id="filter167" in="00:00:01.900" out="00:00:07.600">
      <property name="window">75</property>
      <property name="max_gain">20dB</property>
      <property name="level">6</property>
      <property name="mlt_service">volume</property>
    </filter>
    <filter id="filter168" in="00:00:01.900" out="00:00:07.600">
      <property name="mlt_service">ladspa.1204</property>
      <property name="shotcut:filter">parametricEq</property>
      <property name="0">0</property>
      <property name="1">20</property>
      <property name="2">0.5</property>
      <property name="3">0</property>
      <property name="4">1911.6</property>
      <property name="5">1</property>
      <property name="6">0</property>
      <property name="7">700</property>
      <property name="8">1</property>
      <property name="9">0</property>
      <property name="10">5000</property>
      <property name="11">1</property>
      <property name="12">0</property>
      <property name="13">15000</property>
      <property name="14">0.5</property>
      <property name="instances">2</property>
    </filter>
    <filter id="filter169" in="00:00:01.900" out="00:00:07.600">
      <property name="mlt_service">ladspa.1204</property>
      <property name="shotcut:filter">3BandEq</property>
      <property name="0">0</property>
      <property name="1">200</property>
      <property name="2">0.5</property>
      <property name="3">0</property>
      <property name="4">1000</property>
      <property name="5">1</property>
      <property name="6">-17.9</property>
      <property name="7">1000</property>
      <property name="8">1</property>
      <property name="9">0</property>
      <property name="10">1000</property>
      <property name="11">1</property>
      <property name="12">-19.6</property>
      <property name="13">5000</property>
      <property name="14">0.5</property>
      <property name=".dummy"></property>
      <property name="instances">2</property>
    </filter>
  </chain>
  <chain id="chain44" out="00:01:16.467">
    <property name="length">00:01:16.500</property>
    <property name="eof">pause</property>
    <property name="resource">/Users/jacob/Documents/School/8th Grade (8Se)/Film Studies/DID_U_C_IT/clips/Theme_EndCreds_PartyMusic.mp3</property>
    <property name="mlt_service">avformat-novalidate</property>
    <property name="seekable">1</property>
    <property name="audio_index">0</property>
    <property name="video_index">-1</property>
    <property name="mute_on_pause">0</property>
    <property name="shotcut:hash">27348aa37efd2e57461794b6e0737a31</property>
    <property name="shotcut:caption">Theme_EndCreds_PartyMusic.mp3</property>
    <property name="xml">was here</property>
    <filter id="filter170" in="00:00:01.900" out="00:00:07.967">
      <property name="window">75</property>
      <property name="max_gain">20dB</property>
      <property name="level">6</property>
      <property name="mlt_service">volume</property>
    </filter>
    <filter id="filter171" in="00:00:01.900" out="00:00:07.967">
      <property name="mlt_service">ladspa.1204</property>
      <property name="shotcut:filter">parametricEq</property>
      <property name="0">0</property>
      <property name="1">20</property>
      <property name="2">0.5</property>
      <property name="3">0</property>
      <property name="4">1911.6</property>
      <property name="5">1</property>
      <property name="6">0</property>
      <property name="7">700</property>
      <property name="8">1</property>
      <property name="9">0</property>
      <property name="10">5000</property>
      <property name="11">1</property>
      <property name="12">0</property>
      <property name="13">15000</property>
      <property name="14">0.5</property>
      <property name="instances">2</property>
    </filter>
    <filter id="filter172" in="00:00:01.900" out="00:00:07.967">
      <property name="mlt_service">ladspa.1204</property>
      <property name="shotcut:filter">3BandEq</property>
      <property name="0">0</property>
      <property name="1">200</property>
      <property name="2">0.5</property>
      <property name="3">0</property>
      <property name="4">1000</property>
      <property name="5">1</property>
      <property name="6">-17.9</property>
      <property name="7">1000</property>
      <property name="8">1</property>
      <property name="9">0</property>
      <property name="10">1000</property>
      <property name="11">1</property>
      <property name="12">-19.6</property>
      <property name="13">5000</property>
      <property name="14">0.5</property>
      <property name=".dummy"></property>
      <property name="instances">2</property>
    </filter>
  </chain>
  <chain id="chain46" out="00:01:16.467">
    <property name="length">00:01:16.500</property>
    <property name="eof">pause</property>
    <property name="resource">/Users/jacob/Documents/School/8th Grade (8Se)/Film Studies/DID_U_C_IT/clips/Theme_EndCreds_PartyMusic.mp3</property>
    <property name="mlt_service">avformat-novalidate</property>
    <property name="seekable">1</property>
    <property name="audio_index">0</property>
    <property name="video_index">-1</property>
    <property name="mute_on_pause">0</property>
    <property name="shotcut:hash">27348aa37efd2e57461794b6e0737a31</property>
    <property name="shotcut:caption">Theme_EndCreds_PartyMusic.mp3</property>
    <property name="xml">was here</property>
    <filter id="filter173" out="00:00:05.867">
      <property name="window">75</property>
      <property name="max_gain">20dB</property>
      <property name="level">2</property>
      <property name="mlt_service">volume</property>
    </filter>
    <filter id="filter174" out="00:00:05.867">
      <property name="mlt_service">ladspa.1204</property>
      <property name="shotcut:filter">parametricEq</property>
      <property name="0">0</property>
      <property name="1">20</property>
      <property name="2">0.5</property>
      <property name="3">0</property>
      <property name="4">1911.6</property>
      <property name="5">1</property>
      <property name="6">0</property>
      <property name="7">700</property>
      <property name="8">1</property>
      <property name="9">0</property>
      <property name="10">5000</property>
      <property name="11">1</property>
      <property name="12">0</property>
      <property name="13">15000</property>
      <property name="14">0.5</property>
      <property name="instances">2</property>
    </filter>
    <filter id="filter175" out="00:00:05.867">
      <property name="mlt_service">ladspa.1204</property>
      <property name="shotcut:filter">3BandEq</property>
      <property name="0">0</property>
      <property name="1">200</property>
      <property name="2">0.5</property>
      <property name="3">0</property>
      <property name="4">1000</property>
      <property name="5">1</property>
      <property name="6">-17.9</property>
      <property name="7">1000</property>
      <property name="8">1</property>
      <property name="9">0</property>
      <property name="10">1000</property>
      <property name="11">1</property>
      <property name="12">-19.6</property>
      <property name="13">5000</property>
      <property name="14">0.5</property>
      <property name=".dummy"></property>
      <property name="instances">2</property>
    </filter>
  </chain>
  <chain id="chain58" out="00:01:16.467">
    <property name="length">00:01:16.500</property>
    <property name="eof">pause</property>
    <property name="resource">/Users/jacob/Documents/School/8th Grade (8Se)/Film Studies/DID_U_C_IT/clips/Theme_EndCreds_PartyMusic.mp3</property>
    <property name="mlt_service">avformat-novalidate</property>
    <property name="seekable">1</property>
    <property name="audio_index">0</property>
    <property name="video_index">-1</property>
    <property name="mute_on_pause">0</property>
    <property name="shotcut:hash">27348aa37efd2e57461794b6e0737a31</property>
    <property name="shotcut:caption">Theme_EndCreds_PartyMusic.mp3</property>
    <property name="xml">was here</property>
    <filter id="filter208" out="00:00:05.867">
      <property name="window">75</property>
      <property name="max_gain">20dB</property>
      <property name="level">0</property>
      <property name="mlt_service">volume</property>
    </filter>
    <filter id="filter209" out="00:00:05.867">
      <property name="mlt_service">ladspa.1204</property>
      <property name="shotcut:filter">parametricEq</property>
      <property name="0">0</property>
      <property name="1">20</property>
      <property name="2">0.5</property>
      <property name="3">0</property>
      <property name="4">1911.6</property>
      <property name="5">1</property>
      <property name="6">0</property>
      <property name="7">700</property>
      <property name="8">1</property>
      <property name="9">0</property>
      <property name="10">5000</property>
      <property name="11">1</property>
      <property name="12">0</property>
      <property name="13">15000</property>
      <property name="14">0.5</property>
      <property name="instances">2</property>
    </filter>
    <filter id="filter210" out="00:00:05.867">
      <property name="mlt_service">ladspa.1204</property>
      <property name="shotcut:filter">3BandEq</property>
      <property name="0">0</property>
      <property name="1">200</property>
      <property name="2">0.5</property>
      <property name="3">0</property>
      <property name="4">1000</property>
      <property name="5">1</property>
      <property name="6">-17.9</property>
      <property name="7">1000</property>
      <property name="8">1</property>
      <property name="9">0</property>
      <property name="10">1000</property>
      <property name="11">1</property>
      <property name="12">-19.6</property>
      <property name="13">5000</property>
      <property name="14">0.5</property>
      <property name=".dummy"></property>
      <property name="instances">2</property>
    </filter>
  </chain>
  <chain id="chain59" out="00:01:16.467">
    <property name="length">00:01:16.500</property>
    <property name="eof">pause</property>
    <property name="resource">/Users/jacob/Documents/School/8th Grade (8Se)/Film Studies/DID_U_C_IT/clips/Theme_EndCreds_PartyMusic.mp3</property>
    <property name="mlt_service">avformat-novalidate</property>
    <property name="seekable">1</property>
    <property name="audio_index">0</property>
    <property name="video_index">-1</property>
    <property name="mute_on_pause">0</property>
    <property name="shotcut:hash">27348aa37efd2e57461794b6e0737a31</property>
    <property name="shotcut:caption">Theme_EndCreds_PartyMusic.mp3</property>
    <property name="xml">was here</property>
    <filter id="filter211" out="00:00:07.567">
      <property name="window">75</property>
      <property name="max_gain">20dB</property>
      <property name="level">6</property>
      <property name="mlt_service">volume</property>
    </filter>
    <filter id="filter212" out="00:00:07.567">
      <property name="mlt_service">ladspa.1204</property>
      <property name="shotcut:filter">parametricEq</property>
      <property name="0">0</property>
      <property name="1">20</property>
      <property name="2">0.5</property>
      <property name="3">0</property>
      <property name="4">1911.6</property>
      <property name="5">1</property>
      <property name="6">0</property>
      <property name="7">700</property>
      <property name="8">1</property>
      <property name="9">0</property>
      <property name="10">5000</property>
      <property name="11">1</property>
      <property name="12">0</property>
      <property name="13">15000</property>
      <property name="14">0.5</property>
      <property name="instances">2</property>
    </filter>
    <filter id="filter213" out="00:00:07.567">
      <property name="mlt_service">ladspa.1204</property>
      <property name="shotcut:filter">3BandEq</property>
      <property name="0">0</property>
      <property name="1">200</property>
      <property name="2">0.5</property>
      <property name="3">0</property>
      <property name="4">1000</property>
      <property name="5">1</property>
      <property name="6">-17.9</property>
      <property name="7">1000</property>
      <property name="8">1</property>
      <property name="9">0</property>
      <property name="10">1000</property>
      <property name="11">1</property>
      <property name="12">-19.6</property>
      <property name="13">5000</property>
      <property name="14">0.5</property>
      <property name=".dummy"></property>
      <property name="instances">2</property>
    </filter>
  </chain>
  <chain id="chain60" out="00:01:16.467">
    <property name="length">00:01:16.500</property>
    <property name="eof">pause</property>
    <property name="resource">/Users/jacob/Documents/School/8th Grade (8Se)/Film Studies/DID_U_C_IT/clips/Theme_EndCreds_PartyMusic.mp3</property>
    <property name="mlt_service">avformat-novalidate</property>
    <property name="seekable">1</property>
    <property name="audio_index">0</property>
    <property name="video_index">-1</property>
    <property name="mute_on_pause">0</property>
    <property name="shotcut:hash">27348aa37efd2e57461794b6e0737a31</property>
    <property name="shotcut:caption">Theme_EndCreds_PartyMusic.mp3</property>
    <property name="xml">was here</property>
    <filter id="filter214" in="00:00:01.700" out="00:00:05.867">
      <property name="window">75</property>
      <property name="max_gain">20dB</property>
      <property name="level">20</property>
      <property name="mlt_service">volume</property>
    </filter>
    <filter id="filter215" in="00:00:01.700" out="00:00:05.867">
      <property name="mlt_service">ladspa.1204</property>
      <property name="shotcut:filter">parametricEq</property>
      <property name="0">0</property>
      <property name="1">20</property>
      <property name="2">0.5</property>
      <property name="3">0</property>
      <property name="4">1911.6</property>
      <property name="5">1</property>
      <property name="6">0</property>
      <property name="7">700</property>
      <property name="8">1</property>
      <property name="9">0</property>
      <property name="10">5000</property>
      <property name="11">1</property>
      <property name="12">0</property>
      <property name="13">15000</property>
      <property name="14">0.5</property>
      <property name="instances">2</property>
    </filter>
    <filter id="filter216" in="00:00:01.700" out="00:00:05.867">
      <property name="mlt_service">ladspa.1204</property>
      <property name="shotcut:filter">3BandEq</property>
      <property name="0">0</property>
      <property name="1">200</property>
      <property name="2">0.5</property>
      <property name="3">0</property>
      <property name="4">1000</property>
      <property name="5">1</property>
      <property name="6">-17.9</property>
      <property name="7">1000</property>
      <property name="8">1</property>
      <property name="9">0</property>
      <property name="10">1000</property>
      <property name="11">1</property>
      <property name="12">-19.6</property>
      <property name="13">5000</property>
      <property name="14">0.5</property>
      <property name=".dummy"></property>
      <property name="instances">2</property>
    </filter>
  </chain>
  <chain id="chain61" out="00:01:16.467">
    <property name="length">00:01:16.500</property>
    <property name="eof">pause</property>
    <property name="resource">/Users/jacob/Documents/School/8th Grade (8Se)/Film Studies/DID_U_C_IT/clips/Theme_EndCreds_PartyMusic.mp3</property>
    <property name="mlt_service">avformat-novalidate</property>
    <property name="seekable">1</property>
    <property name="audio_index">0</property>
    <property name="video_index">-1</property>
    <property name="mute_on_pause">0</property>
    <property name="shotcut:hash">27348aa37efd2e57461794b6e0737a31</property>
    <property name="shotcut:caption">Theme_EndCreds_PartyMusic.mp3</property>
    <property name="xml">was here</property>
    <filter id="filter218" out="00:00:05.867">
      <property name="window">75</property>
      <property name="max_gain">20dB</property>
      <property name="level">8</property>
      <property name="mlt_service">volume</property>
    </filter>
    <filter id="filter219" out="00:00:05.867">
      <property name="mlt_service">ladspa.1204</property>
      <property name="shotcut:filter">parametricEq</property>
      <property name="0">0</property>
      <property name="1">20</property>
      <property name="2">0.5</property>
      <property name="3">0</property>
      <property name="4">1911.6</property>
      <property name="5">1</property>
      <property name="6">0</property>
      <property name="7">700</property>
      <property name="8">1</property>
      <property name="9">0</property>
      <property name="10">5000</property>
      <property name="11">1</property>
      <property name="12">0</property>
      <property name="13">15000</property>
      <property name="14">0.5</property>
      <property name="instances">2</property>
    </filter>
    <filter id="filter220" out="00:00:05.867">
      <property name="mlt_service">ladspa.1204</property>
      <property name="shotcut:filter">3BandEq</property>
      <property name="0">0</property>
      <property name="1">200</property>
      <property name="2">0.5</property>
      <property name="3">0</property>
      <property name="4">1000</property>
      <property name="5">1</property>
      <property name="6">-17.9</property>
      <property name="7">1000</property>
      <property name="8">1</property>
      <property name="9">0</property>
      <property name="10">1000</property>
      <property name="11">1</property>
      <property name="12">-19.6</property>
      <property name="13">5000</property>
      <property name="14">0.5</property>
      <property name=".dummy"></property>
      <property name="instances">2</property>
    </filter>
  </chain>
  <chain id="chain62" out="00:01:16.467">
    <property name="length">00:01:16.500</property>
    <property name="eof">pause</property>
    <property name="resource">/Users/jacob/Documents/School/8th Grade (8Se)/Film Studies/DID_U_C_IT/clips/Theme_EndCreds_PartyMusic.mp3</property>
    <property name="mlt_service">avformat-novalidate</property>
    <property name="seekable">1</property>
    <property name="audio_index">0</property>
    <property name="video_index">-1</property>
    <property name="mute_on_pause">0</property>
    <property name="shotcut:hash">27348aa37efd2e57461794b6e0737a31</property>
    <property name="shotcut:caption">Theme_EndCreds_PartyMusic.mp3</property>
    <property name="xml">was here</property>
    <filter id="filter221" out="00:00:05.867">
      <property name="window">75</property>
      <property name="max_gain">20dB</property>
      <property name="level">2</property>
      <property name="mlt_service">volume</property>
    </filter>
    <filter id="filter222" out="00:00:05.867">
      <property name="mlt_service">ladspa.1204</property>
      <property name="shotcut:filter">parametricEq</property>
      <property name="0">0</property>
      <property name="1">20</property>
      <property name="2">0.5</property>
      <property name="3">0</property>
      <property name="4">1911.6</property>
      <property name="5">1</property>
      <property name="6">0</property>
      <property name="7">700</property>
      <property name="8">1</property>
      <property name="9">0</property>
      <property name="10">5000</property>
      <property name="11">1</property>
      <property name="12">0</property>
      <property name="13">15000</property>
      <property name="14">0.5</property>
      <property name="instances">2</property>
    </filter>
    <filter id="filter223" out="00:00:05.867">
      <property name="mlt_service">ladspa.1204</property>
      <property name="shotcut:filter">3BandEq</property>
      <property name="0">0</property>
      <property name="1">200</property>
      <property name="2">0.5</property>
      <property name="3">0</property>
      <property name="4">1000</property>
      <property name="5">1</property>
      <property name="6">-17.9</property>
      <property name="7">1000</property>
      <property name="8">1</property>
      <property name="9">0</property>
      <property name="10">1000</property>
      <property name="11">1</property>
      <property name="12">-19.6</property>
      <property name="13">5000</property>
      <property name="14">0.5</property>
      <property name=".dummy"></property>
      <property name="instances">2</property>
    </filter>
  </chain>
  <chain id="chain63" out="00:01:16.467">
    <property name="length">00:01:16.500</property>
    <property name="eof">pause</property>
    <property name="resource">/Users/jacob/Documents/School/8th Grade (8Se)/Film Studies/DID_U_C_IT/clips/Theme_EndCreds_PartyMusic.mp3</property>
    <property name="mlt_service">avformat-novalidate</property>
    <property name="seekable">1</property>
    <property name="audio_index">0</property>
    <property name="video_index">-1</property>
    <property name="mute_on_pause">0</property>
    <property name="shotcut:hash">27348aa37efd2e57461794b6e0737a31</property>
    <property name="shotcut:caption">Theme_EndCreds_PartyMusic.mp3</property>
    <property name="xml">was here</property>
    <filter id="filter224" out="00:00:05.867">
      <property name="window">75</property>
      <property name="max_gain">20dB</property>
      <property name="level">0</property>
      <property name="mlt_service">volume</property>
    </filter>
    <filter id="filter225" out="00:00:05.867">
      <property name="mlt_service">ladspa.1204</property>
      <property name="shotcut:filter">parametricEq</property>
      <property name="0">0</property>
      <property name="1">20</property>
      <property name="2">0.5</property>
      <property name="3">0</property>
      <property name="4">1911.6</property>
      <property name="5">1</property>
      <property name="6">0</property>
      <property name="7">700</property>
      <property name="8">1</property>
      <property name="9">0</property>
      <property name="10">5000</property>
      <property name="11">1</property>
      <property name="12">0</property>
      <property name="13">15000</property>
      <property name="14">0.5</property>
      <property name="instances">2</property>
    </filter>
    <filter id="filter226" out="00:00:05.867">
      <property name="mlt_service">ladspa.1204</property>
      <property name="shotcut:filter">3BandEq</property>
      <property name="0">0</property>
      <property name="1">200</property>
      <property name="2">0.5</property>
      <property name="3">0</property>
      <property name="4">1000</property>
      <property name="5">1</property>
      <property name="6">-17.9</property>
      <property name="7">1000</property>
      <property name="8">1</property>
      <property name="9">0</property>
      <property name="10">1000</property>
      <property name="11">1</property>
      <property name="12">-19.6</property>
      <property name="13">5000</property>
      <property name="14">0.5</property>
      <property name=".dummy"></property>
      <property name="instances">2</property>
    </filter>
  </chain>
  <chain id="chain65" out="00:01:16.467">
    <property name="length">00:01:16.500</property>
    <property name="eof">pause</property>
    <property name="resource">/Users/jacob/Documents/School/8th Grade (8Se)/Film Studies/DID_U_C_IT/clips/Theme_EndCreds_PartyMusic.mp3</property>
    <property name="mlt_service">avformat-novalidate</property>
    <property name="seekable">1</property>
    <property name="audio_index">0</property>
    <property name="video_index">-1</property>
    <property name="mute_on_pause">0</property>
    <property name="shotcut:hash">27348aa37efd2e57461794b6e0737a31</property>
    <property name="shotcut:caption">Theme_EndCreds_PartyMusic.mp3</property>
    <property name="xml">was here</property>
    <filter id="filter230" out="00:00:05.867">
      <property name="window">75</property>
      <property name="max_gain">20dB</property>
      <property name="level">0</property>
      <property name="mlt_service">volume</property>
    </filter>
    <filter id="filter231" out="00:00:05.867">
      <property name="mlt_service">ladspa.1204</property>
      <property name="shotcut:filter">parametricEq</property>
      <property name="0">0</property>
      <property name="1">20</property>
      <property name="2">0.5</property>
      <property name="3">0</property>
      <property name="4">1911.6</property>
      <property name="5">1</property>
      <property name="6">0</property>
      <property name="7">700</property>
      <property name="8">1</property>
      <property name="9">0</property>
      <property name="10">5000</property>
      <property name="11">1</property>
      <property name="12">0</property>
      <property name="13">15000</property>
      <property name="14">0.5</property>
      <property name="instances">2</property>
    </filter>
    <filter id="filter232" out="00:00:05.867">
      <property name="mlt_service">ladspa.1204</property>
      <property name="shotcut:filter">3BandEq</property>
      <property name="0">0</property>
      <property name="1">200</property>
      <property name="2">0.5</property>
      <property name="3">0</property>
      <property name="4">1000</property>
      <property name="5">1</property>
      <property name="6">-17.9</property>
      <property name="7">1000</property>
      <property name="8">1</property>
      <property name="9">0</property>
      <property name="10">1000</property>
      <property name="11">1</property>
      <property name="12">-19.6</property>
      <property name="13">5000</property>
      <property name="14">0.5</property>
      <property name=".dummy"></property>
      <property name="instances">2</property>
    </filter>
  </chain>
  <chain id="chain66" out="00:01:16.467">
    <property name="length">00:01:16.500</property>
    <property name="eof">pause</property>
    <property name="resource">/Users/jacob/Documents/School/8th Grade (8Se)/Film Studies/DID_U_C_IT/clips/Theme_EndCreds_PartyMusic.mp3</property>
    <property name="mlt_service">avformat-novalidate</property>
    <property name="seekable">1</property>
    <property name="audio_index">0</property>
    <property name="video_index">-1</property>
    <property name="mute_on_pause">0</property>
    <property name="shotcut:hash">27348aa37efd2e57461794b6e0737a31</property>
    <property name="shotcut:caption">Theme_EndCreds_PartyMusic.mp3</property>
    <property name="xml">was here</property>
    <filter id="filter233" out="00:00:05.867">
      <property name="window">75</property>
      <property name="max_gain">20dB</property>
      <property name="level">0</property>
      <property name="mlt_service">volume</property>
    </filter>
    <filter id="filter234" out="00:00:05.867">
      <property name="mlt_service">ladspa.1204</property>
      <property name="shotcut:filter">parametricEq</property>
      <property name="0">0</property>
      <property name="1">20</property>
      <property name="2">0.5</property>
      <property name="3">0</property>
      <property name="4">1911.6</property>
      <property name="5">1</property>
      <property name="6">0</property>
      <property name="7">700</property>
      <property name="8">1</property>
      <property name="9">0</property>
      <property name="10">5000</property>
      <property name="11">1</property>
      <property name="12">0</property>
      <property name="13">15000</property>
      <property name="14">0.5</property>
      <property name="instances">2</property>
    </filter>
    <filter id="filter235" out="00:00:05.867">
      <property name="mlt_service">ladspa.1204</property>
      <property name="shotcut:filter">3BandEq</property>
      <property name="0">0</property>
      <property name="1">200</property>
      <property name="2">0.5</property>
      <property name="3">0</property>
      <property name="4">1000</property>
      <property name="5">1</property>
      <property name="6">-17.9</property>
      <property name="7">1000</property>
      <property name="8">1</property>
      <property name="9">0</property>
      <property name="10">1000</property>
      <property name="11">1</property>
      <property name="12">-19.6</property>
      <property name="13">5000</property>
      <property name="14">0.5</property>
      <property name=".dummy"></property>
      <property name="instances">2</property>
    </filter>
  </chain>
  <chain id="chain67" out="00:01:16.467">
    <property name="length">00:01:16.500</property>
    <property name="eof">pause</property>
    <property name="resource">/Users/jacob/Documents/School/8th Grade (8Se)/Film Studies/DID_U_C_IT/clips/Theme_EndCreds_PartyMusic.mp3</property>
    <property name="mlt_service">avformat-novalidate</property>
    <property name="seekable">1</property>
    <property name="audio_index">0</property>
    <property name="video_index">-1</property>
    <property name="mute_on_pause">0</property>
    <property name="shotcut:hash">27348aa37efd2e57461794b6e0737a31</property>
    <property name="shotcut:caption">Theme_EndCreds_PartyMusic.mp3</property>
    <property name="xml">was here</property>
    <filter id="filter236" out="00:00:05.867">
      <property name="window">75</property>
      <property name="max_gain">20dB</property>
      <property name="level">0</property>
      <property name="mlt_service">volume</property>
    </filter>
    <filter id="filter237" out="00:00:05.867">
      <property name="mlt_service">ladspa.1204</property>
      <property name="shotcut:filter">parametricEq</property>
      <property name="0">0</property>
      <property name="1">20</property>
      <property name="2">0.5</property>
      <property name="3">0</property>
      <property name="4">1911.6</property>
      <property name="5">1</property>
      <property name="6">0</property>
      <property name="7">700</property>
      <property name="8">1</property>
      <property name="9">0</property>
      <property name="10">5000</property>
      <property name="11">1</property>
      <property name="12">0</property>
      <property name="13">15000</property>
      <property name="14">0.5</property>
      <property name="instances">2</property>
    </filter>
    <filter id="filter238" out="00:00:05.867">
      <property name="mlt_service">ladspa.1204</property>
      <property name="shotcut:filter">3BandEq</property>
      <property name="0">0</property>
      <property name="1">200</property>
      <property name="2">0.5</property>
      <property name="3">0</property>
      <property name="4">1000</property>
      <property name="5">1</property>
      <property name="6">-17.9</property>
      <property name="7">1000</property>
      <property name="8">1</property>
      <property name="9">0</property>
      <property name="10">1000</property>
      <property name="11">1</property>
      <property name="12">-19.6</property>
      <property name="13">5000</property>
      <property name="14">0.5</property>
      <property name=".dummy"></property>
      <property name="instances">2</property>
    </filter>
  </chain>
  <chain id="chain68" out="00:01:16.467">
    <property name="length">00:01:16.500</property>
    <property name="eof">pause</property>
    <property name="resource">/Users/jacob/Documents/School/8th Grade (8Se)/Film Studies/DID_U_C_IT/clips/Theme_EndCreds_PartyMusic.mp3</property>
    <property name="mlt_service">avformat-novalidate</property>
    <property name="seekable">1</property>
    <property name="audio_index">0</property>
    <property name="video_index">-1</property>
    <property name="mute_on_pause">0</property>
    <property name="shotcut:hash">27348aa37efd2e57461794b6e0737a31</property>
    <property name="shotcut:caption">Theme_EndCreds_PartyMusic.mp3</property>
    <property name="xml">was here</property>
    <filter id="filter239" out="00:00:05.867">
      <property name="window">75</property>
      <property name="max_gain">20dB</property>
      <property name="level">0</property>
      <property name="mlt_service">volume</property>
    </filter>
    <filter id="filter240" out="00:00:05.867">
      <property name="mlt_service">ladspa.1204</property>
      <property name="shotcut:filter">parametricEq</property>
      <property name="0">0</property>
      <property name="1">20</property>
      <property name="2">0.5</property>
      <property name="3">0</property>
      <property name="4">1911.6</property>
      <property name="5">1</property>
      <property name="6">0</property>
      <property name="7">700</property>
      <property name="8">1</property>
      <property name="9">0</property>
      <property name="10">5000</property>
      <property name="11">1</property>
      <property name="12">0</property>
      <property name="13">15000</property>
      <property name="14">0.5</property>
      <property name="instances">2</property>
    </filter>
    <filter id="filter241" out="00:00:05.867">
      <property name="mlt_service">ladspa.1204</property>
      <property name="shotcut:filter">3BandEq</property>
      <property name="0">0</property>
      <property name="1">200</property>
      <property name="2">0.5</property>
      <property name="3">0</property>
      <property name="4">1000</property>
      <property name="5">1</property>
      <property name="6">-17.9</property>
      <property name="7">1000</property>
      <property name="8">1</property>
      <property name="9">0</property>
      <property name="10">1000</property>
      <property name="11">1</property>
      <property name="12">-19.6</property>
      <property name="13">5000</property>
      <property name="14">0.5</property>
      <property name=".dummy"></property>
      <property name="instances">2</property>
    </filter>
  </chain>
  <chain id="chain69" out="00:01:16.467">
    <property name="length">00:01:16.500</property>
    <property name="eof">pause</property>
    <property name="resource">/Users/jacob/Documents/School/8th Grade (8Se)/Film Studies/DID_U_C_IT/clips/Theme_EndCreds_PartyMusic.mp3</property>
    <property name="mlt_service">avformat-novalidate</property>
    <property name="seekable">1</property>
    <property name="audio_index">0</property>
    <property name="video_index">-1</property>
    <property name="mute_on_pause">0</property>
    <property name="shotcut:hash">27348aa37efd2e57461794b6e0737a31</property>
    <property name="shotcut:caption">Theme_EndCreds_PartyMusic.mp3</property>
    <property name="xml">was here</property>
    <filter id="filter242" out="00:00:05.867">
      <property name="window">75</property>
      <property name="max_gain">20dB</property>
      <property name="level">0</property>
      <property name="mlt_service">volume</property>
    </filter>
    <filter id="filter243" out="00:00:05.867">
      <property name="mlt_service">ladspa.1204</property>
      <property name="shotcut:filter">parametricEq</property>
      <property name="0">0</property>
      <property name="1">20</property>
      <property name="2">0.5</property>
      <property name="3">0</property>
      <property name="4">1911.6</property>
      <property name="5">1</property>
      <property name="6">0</property>
      <property name="7">700</property>
      <property name="8">1</property>
      <property name="9">0</property>
      <property name="10">5000</property>
      <property name="11">1</property>
      <property name="12">0</property>
      <property name="13">15000</property>
      <property name="14">0.5</property>
      <property name="instances">2</property>
    </filter>
    <filter id="filter244" out="00:00:05.867">
      <property name="mlt_service">ladspa.1204</property>
      <property name="shotcut:filter">3BandEq</property>
      <property name="0">0</property>
      <property name="1">200</property>
      <property name="2">0.5</property>
      <property name="3">0</property>
      <property name="4">1000</property>
      <property name="5">1</property>
      <property name="6">-17.9</property>
      <property name="7">1000</property>
      <property name="8">1</property>
      <property name="9">0</property>
      <property name="10">1000</property>
      <property name="11">1</property>
      <property name="12">-19.6</property>
      <property name="13">5000</property>
      <property name="14">0.5</property>
      <property name=".dummy"></property>
      <property name="instances">2</property>
    </filter>
  </chain>
  <chain id="chain70" out="00:01:16.467">
    <property name="length">00:01:16.500</property>
    <property name="eof">pause</property>
    <property name="resource">/Users/jacob/Documents/School/8th Grade (8Se)/Film Studies/DID_U_C_IT/clips/Theme_EndCreds_PartyMusic.mp3</property>
    <property name="mlt_service">avformat-novalidate</property>
    <property name="seekable">1</property>
    <property name="audio_index">0</property>
    <property name="video_index">-1</property>
    <property name="mute_on_pause">0</property>
    <property name="shotcut:hash">27348aa37efd2e57461794b6e0737a31</property>
    <property name="shotcut:caption">Theme_EndCreds_PartyMusic.mp3</property>
    <property name="xml">was here</property>
    <filter id="filter245" out="00:00:05.867">
      <property name="window">75</property>
      <property name="max_gain">20dB</property>
      <property name="level">0</property>
      <property name="mlt_service">volume</property>
    </filter>
    <filter id="filter246" out="00:00:05.867">
      <property name="mlt_service">ladspa.1204</property>
      <property name="shotcut:filter">parametricEq</property>
      <property name="0">0</property>
      <property name="1">20</property>
      <property name="2">0.5</property>
      <property name="3">0</property>
      <property name="4">1911.6</property>
      <property name="5">1</property>
      <property name="6">0</property>
      <property name="7">700</property>
      <property name="8">1</property>
      <property name="9">0</property>
      <property name="10">5000</property>
      <property name="11">1</property>
      <property name="12">0</property>
      <property name="13">15000</property>
      <property name="14">0.5</property>
      <property name="instances">2</property>
    </filter>
    <filter id="filter247" out="00:00:05.867">
      <property name="mlt_service">ladspa.1204</property>
      <property name="shotcut:filter">3BandEq</property>
      <property name="0">0</property>
      <property name="1">200</property>
      <property name="2">0.5</property>
      <property name="3">0</property>
      <property name="4">1000</property>
      <property name="5">1</property>
      <property name="6">-17.9</property>
      <property name="7">1000</property>
      <property name="8">1</property>
      <property name="9">0</property>
      <property name="10">1000</property>
      <property name="11">1</property>
      <property name="12">-19.6</property>
      <property name="13">5000</property>
      <property name="14">0.5</property>
      <property name=".dummy"></property>
      <property name="instances">2</property>
    </filter>
  </chain>
  <chain id="chain71" out="00:01:16.467">
    <property name="length">00:01:16.500</property>
    <property name="eof">pause</property>
    <property name="resource">/Users/jacob/Documents/School/8th Grade (8Se)/Film Studies/DID_U_C_IT/clips/Theme_EndCreds_PartyMusic.mp3</property>
    <property name="mlt_service">avformat-novalidate</property>
    <property name="seekable">1</property>
    <property name="audio_index">0</property>
    <property name="video_index">-1</property>
    <property name="mute_on_pause">0</property>
    <property name="shotcut:hash">27348aa37efd2e57461794b6e0737a31</property>
    <property name="shotcut:caption">Theme_EndCreds_PartyMusic.mp3</property>
    <property name="xml">was here</property>
    <filter id="filter248" out="00:00:05.867">
      <property name="window">75</property>
      <property name="max_gain">20dB</property>
      <property name="level">0</property>
      <property name="mlt_service">volume</property>
    </filter>
    <filter id="filter249" out="00:00:05.867">
      <property name="mlt_service">ladspa.1204</property>
      <property name="shotcut:filter">parametricEq</property>
      <property name="0">0</property>
      <property name="1">20</property>
      <property name="2">0.5</property>
      <property name="3">0</property>
      <property name="4">1911.6</property>
      <property name="5">1</property>
      <property name="6">0</property>
      <property name="7">700</property>
      <property name="8">1</property>
      <property name="9">0</property>
      <property name="10">5000</property>
      <property name="11">1</property>
      <property name="12">0</property>
      <property name="13">15000</property>
      <property name="14">0.5</property>
      <property name="instances">2</property>
    </filter>
    <filter id="filter250" out="00:00:05.867">
      <property name="mlt_service">ladspa.1204</property>
      <property name="shotcut:filter">3BandEq</property>
      <property name="0">0</property>
      <property name="1">200</property>
      <property name="2">0.5</property>
      <property name="3">0</property>
      <property name="4">1000</property>
      <property name="5">1</property>
      <property name="6">-17.9</property>
      <property name="7">1000</property>
      <property name="8">1</property>
      <property name="9">0</property>
      <property name="10">1000</property>
      <property name="11">1</property>
      <property name="12">-19.6</property>
      <property name="13">5000</property>
      <property name="14">0.5</property>
      <property name=".dummy"></property>
      <property name="instances">2</property>
    </filter>
  </chain>
  <chain id="chain72" out="00:01:16.467">
    <property name="length">00:01:16.500</property>
    <property name="eof">pause</property>
    <property name="resource">/Users/jacob/Documents/School/8th Grade (8Se)/Film Studies/DID_U_C_IT/clips/Theme_EndCreds_PartyMusic.mp3</property>
    <property name="mlt_service">avformat-novalidate</property>
    <property name="seekable">1</property>
    <property name="audio_index">0</property>
    <property name="video_index">-1</property>
    <property name="mute_on_pause">0</property>
    <property name="shotcut:hash">27348aa37efd2e57461794b6e0737a31</property>
    <property name="shotcut:caption">Theme_EndCreds_PartyMusic.mp3</property>
    <property name="xml">was here</property>
    <filter id="filter251" out="00:00:05.867">
      <property name="window">75</property>
      <property name="max_gain">20dB</property>
      <property name="level">0</property>
      <property name="mlt_service">volume</property>
    </filter>
    <filter id="filter252" out="00:00:05.867">
      <property name="mlt_service">ladspa.1204</property>
      <property name="shotcut:filter">parametricEq</property>
      <property name="0">0</property>
      <property name="1">20</property>
      <property name="2">0.5</property>
      <property name="3">0</property>
      <property name="4">1911.6</property>
      <property name="5">1</property>
      <property name="6">0</property>
      <property name="7">700</property>
      <property name="8">1</property>
      <property name="9">0</property>
      <property name="10">5000</property>
      <property name="11">1</property>
      <property name="12">0</property>
      <property name="13">15000</property>
      <property name="14">0.5</property>
      <property name="instances">2</property>
    </filter>
    <filter id="filter253" out="00:00:05.867">
      <property name="mlt_service">ladspa.1204</property>
      <property name="shotcut:filter">3BandEq</property>
      <property name="0">0</property>
      <property name="1">200</property>
      <property name="2">0.5</property>
      <property name="3">0</property>
      <property name="4">1000</property>
      <property name="5">1</property>
      <property name="6">-17.9</property>
      <property name="7">1000</property>
      <property name="8">1</property>
      <property name="9">0</property>
      <property name="10">1000</property>
      <property name="11">1</property>
      <property name="12">-19.6</property>
      <property name="13">5000</property>
      <property name="14">0.5</property>
      <property name=".dummy"></property>
      <property name="instances">2</property>
    </filter>
  </chain>
  <chain id="chain73" out="00:01:16.467">
    <property name="length">00:01:16.500</property>
    <property name="eof">pause</property>
    <property name="resource">/Users/jacob/Documents/School/8th Grade (8Se)/Film Studies/DID_U_C_IT/clips/Theme_EndCreds_PartyMusic.mp3</property>
    <property name="mlt_service">avformat-novalidate</property>
    <property name="seekable">1</property>
    <property name="audio_index">0</property>
    <property name="video_index">-1</property>
    <property name="mute_on_pause">0</property>
    <property name="shotcut:hash">27348aa37efd2e57461794b6e0737a31</property>
    <property name="shotcut:caption">Theme_EndCreds_PartyMusic.mp3</property>
    <property name="xml">was here</property>
    <filter id="filter254" out="00:00:05.867">
      <property name="window">75</property>
      <property name="max_gain">20dB</property>
      <property name="level">0</property>
      <property name="mlt_service">volume</property>
    </filter>
    <filter id="filter255" out="00:00:05.867">
      <property name="mlt_service">ladspa.1204</property>
      <property name="shotcut:filter">parametricEq</property>
      <property name="0">0</property>
      <property name="1">20</property>
      <property name="2">0.5</property>
      <property name="3">0</property>
      <property name="4">1911.6</property>
      <property name="5">1</property>
      <property name="6">0</property>
      <property name="7">700</property>
      <property name="8">1</property>
      <property name="9">0</property>
      <property name="10">5000</property>
      <property name="11">1</property>
      <property name="12">0</property>
      <property name="13">15000</property>
      <property name="14">0.5</property>
      <property name="instances">2</property>
    </filter>
    <filter id="filter256" out="00:00:05.867">
      <property name="mlt_service">ladspa.1204</property>
      <property name="shotcut:filter">3BandEq</property>
      <property name="0">0</property>
      <property name="1">200</property>
      <property name="2">0.5</property>
      <property name="3">0</property>
      <property name="4">1000</property>
      <property name="5">1</property>
      <property name="6">-17.9</property>
      <property name="7">1000</property>
      <property name="8">1</property>
      <property name="9">0</property>
      <property name="10">1000</property>
      <property name="11">1</property>
      <property name="12">-19.6</property>
      <property name="13">5000</property>
      <property name="14">0.5</property>
      <property name=".dummy"></property>
      <property name="instances">2</property>
    </filter>
  </chain>
  <chain id="chain74" out="00:01:16.467">
    <property name="length">00:01:16.500</property>
    <property name="eof">pause</property>
    <property name="resource">/Users/jacob/Documents/School/8th Grade (8Se)/Film Studies/DID_U_C_IT/clips/Theme_EndCreds_PartyMusic.mp3</property>
    <property name="mlt_service">avformat-novalidate</property>
    <property name="seekable">1</property>
    <property name="audio_index">0</property>
    <property name="video_index">-1</property>
    <property name="mute_on_pause">0</property>
    <property name="shotcut:hash">27348aa37efd2e57461794b6e0737a31</property>
    <property name="shotcut:caption">Theme_EndCreds_PartyMusic.mp3</property>
    <property name="xml">was here</property>
    <filter id="filter257" out="00:00:05.867">
      <property name="window">75</property>
      <property name="max_gain">20dB</property>
      <property name="level">0</property>
      <property name="mlt_service">volume</property>
    </filter>
    <filter id="filter258" out="00:00:05.867">
      <property name="mlt_service">ladspa.1204</property>
      <property name="shotcut:filter">parametricEq</property>
      <property name="0">0</property>
      <property name="1">20</property>
      <property name="2">0.5</property>
      <property name="3">0</property>
      <property name="4">1911.6</property>
      <property name="5">1</property>
      <property name="6">0</property>
      <property name="7">700</property>
      <property name="8">1</property>
      <property name="9">0</property>
      <property name="10">5000</property>
      <property name="11">1</property>
      <property name="12">0</property>
      <property name="13">15000</property>
      <property name="14">0.5</property>
      <property name="instances">2</property>
    </filter>
    <filter id="filter259" out="00:00:05.867">
      <property name="mlt_service">ladspa.1204</property>
      <property name="shotcut:filter">3BandEq</property>
      <property name="0">0</property>
      <property name="1">200</property>
      <property name="2">0.5</property>
      <property name="3">0</property>
      <property name="4">1000</property>
      <property name="5">1</property>
      <property name="6">-17.9</property>
      <property name="7">1000</property>
      <property name="8">1</property>
      <property name="9">0</property>
      <property name="10">1000</property>
      <property name="11">1</property>
      <property name="12">-19.6</property>
      <property name="13">5000</property>
      <property name="14">0.5</property>
      <property name=".dummy"></property>
      <property name="instances">2</property>
    </filter>
  </chain>
  <chain id="chain75" out="00:01:16.467">
    <property name="length">00:01:16.500</property>
    <property name="eof">pause</property>
    <property name="resource">/Users/jacob/Documents/School/8th Grade (8Se)/Film Studies/DID_U_C_IT/clips/Theme_EndCreds_PartyMusic.mp3</property>
    <property name="mlt_service">avformat-novalidate</property>
    <property name="seekable">1</property>
    <property name="audio_index">0</property>
    <property name="video_index">-1</property>
    <property name="mute_on_pause">0</property>
    <property name="shotcut:hash">27348aa37efd2e57461794b6e0737a31</property>
    <property name="shotcut:caption">Theme_EndCreds_PartyMusic.mp3</property>
    <property name="xml">was here</property>
    <filter id="filter260" out="00:00:05.867">
      <property name="window">75</property>
      <property name="max_gain">20dB</property>
      <property name="level">0</property>
      <property name="mlt_service">volume</property>
    </filter>
    <filter id="filter261" out="00:00:05.867">
      <property name="mlt_service">ladspa.1204</property>
      <property name="shotcut:filter">parametricEq</property>
      <property name="0">0</property>
      <property name="1">20</property>
      <property name="2">0.5</property>
      <property name="3">0</property>
      <property name="4">1911.6</property>
      <property name="5">1</property>
      <property name="6">0</property>
      <property name="7">700</property>
      <property name="8">1</property>
      <property name="9">0</property>
      <property name="10">5000</property>
      <property name="11">1</property>
      <property name="12">0</property>
      <property name="13">15000</property>
      <property name="14">0.5</property>
      <property name="instances">2</property>
    </filter>
    <filter id="filter262" out="00:00:05.867">
      <property name="mlt_service">ladspa.1204</property>
      <property name="shotcut:filter">3BandEq</property>
      <property name="0">0</property>
      <property name="1">200</property>
      <property name="2">0.5</property>
      <property name="3">0</property>
      <property name="4">1000</property>
      <property name="5">1</property>
      <property name="6">-17.9</property>
      <property name="7">1000</property>
      <property name="8">1</property>
      <property name="9">0</property>
      <property name="10">1000</property>
      <property name="11">1</property>
      <property name="12">-19.6</property>
      <property name="13">5000</property>
      <property name="14">0.5</property>
      <property name=".dummy"></property>
      <property name="instances">2</property>
    </filter>
  </chain>
  <chain id="chain76" out="00:01:16.467">
    <property name="length">00:01:16.500</property>
    <property name="eof">pause</property>
    <property name="resource">/Users/jacob/Documents/School/8th Grade (8Se)/Film Studies/DID_U_C_IT/clips/Theme_EndCreds_PartyMusic.mp3</property>
    <property name="mlt_service">avformat-novalidate</property>
    <property name="seekable">1</property>
    <property name="audio_index">0</property>
    <property name="video_index">-1</property>
    <property name="mute_on_pause">0</property>
    <property name="shotcut:hash">27348aa37efd2e57461794b6e0737a31</property>
    <property name="shotcut:caption">Theme_EndCreds_PartyMusic.mp3</property>
    <property name="xml">was here</property>
    <filter id="filter263" out="00:00:05.867">
      <property name="window">75</property>
      <property name="max_gain">20dB</property>
      <property name="level">0</property>
      <property name="mlt_service">volume</property>
    </filter>
    <filter id="filter264" out="00:00:05.867">
      <property name="mlt_service">ladspa.1204</property>
      <property name="shotcut:filter">parametricEq</property>
      <property name="0">0</property>
      <property name="1">20</property>
      <property name="2">0.5</property>
      <property name="3">0</property>
      <property name="4">1911.6</property>
      <property name="5">1</property>
      <property name="6">0</property>
      <property name="7">700</property>
      <property name="8">1</property>
      <property name="9">0</property>
      <property name="10">5000</property>
      <property name="11">1</property>
      <property name="12">0</property>
      <property name="13">15000</property>
      <property name="14">0.5</property>
      <property name="instances">2</property>
    </filter>
    <filter id="filter265" out="00:00:05.867">
      <property name="mlt_service">ladspa.1204</property>
      <property name="shotcut:filter">3BandEq</property>
      <property name="0">0</property>
      <property name="1">200</property>
      <property name="2">0.5</property>
      <property name="3">0</property>
      <property name="4">1000</property>
      <property name="5">1</property>
      <property name="6">-17.9</property>
      <property name="7">1000</property>
      <property name="8">1</property>
      <property name="9">0</property>
      <property name="10">1000</property>
      <property name="11">1</property>
      <property name="12">-19.6</property>
      <property name="13">5000</property>
      <property name="14">0.5</property>
      <property name=".dummy"></property>
      <property name="instances">2</property>
    </filter>
  </chain>
  <chain id="chain77" out="00:01:16.467">
    <property name="length">00:01:16.500</property>
    <property name="eof">pause</property>
    <property name="resource">/Users/jacob/Documents/School/8th Grade (8Se)/Film Studies/DID_U_C_IT/clips/Theme_EndCreds_PartyMusic.mp3</property>
    <property name="mlt_service">avformat-novalidate</property>
    <property name="seekable">1</property>
    <property name="audio_index">0</property>
    <property name="video_index">-1</property>
    <property name="mute_on_pause">0</property>
    <property name="shotcut:hash">27348aa37efd2e57461794b6e0737a31</property>
    <property name="shotcut:caption">Theme_EndCreds_PartyMusic.mp3</property>
    <property name="xml">was here</property>
    <filter id="filter266" out="00:00:05.867">
      <property name="window">75</property>
      <property name="max_gain">20dB</property>
      <property name="level">0</property>
      <property name="mlt_service">volume</property>
    </filter>
    <filter id="filter267" out="00:00:05.867">
      <property name="mlt_service">ladspa.1204</property>
      <property name="shotcut:filter">parametricEq</property>
      <property name="0">0</property>
      <property name="1">20</property>
      <property name="2">0.5</property>
      <property name="3">0</property>
      <property name="4">1911.6</property>
      <property name="5">1</property>
      <property name="6">0</property>
      <property name="7">700</property>
      <property name="8">1</property>
      <property name="9">0</property>
      <property name="10">5000</property>
      <property name="11">1</property>
      <property name="12">0</property>
      <property name="13">15000</property>
      <property name="14">0.5</property>
      <property name="instances">2</property>
    </filter>
    <filter id="filter268" out="00:00:05.867">
      <property name="mlt_service">ladspa.1204</property>
      <property name="shotcut:filter">3BandEq</property>
      <property name="0">0</property>
      <property name="1">200</property>
      <property name="2">0.5</property>
      <property name="3">0</property>
      <property name="4">1000</property>
      <property name="5">1</property>
      <property name="6">-17.9</property>
      <property name="7">1000</property>
      <property name="8">1</property>
      <property name="9">0</property>
      <property name="10">1000</property>
      <property name="11">1</property>
      <property name="12">-19.6</property>
      <property name="13">5000</property>
      <property name="14">0.5</property>
      <property name=".dummy"></property>
      <property name="instances">2</property>
    </filter>
  </chain>
  <chain id="chain78" out="00:01:16.467">
    <property name="length">00:01:16.500</property>
    <property name="eof">pause</property>
    <property name="resource">/Users/jacob/Documents/School/8th Grade (8Se)/Film Studies/DID_U_C_IT/clips/Theme_EndCreds_PartyMusic.mp3</property>
    <property name="mlt_service">avformat-novalidate</property>
    <property name="seekable">1</property>
    <property name="audio_index">0</property>
    <property name="video_index">-1</property>
    <property name="mute_on_pause">0</property>
    <property name="shotcut:hash">27348aa37efd2e57461794b6e0737a31</property>
    <property name="shotcut:caption">Theme_EndCreds_PartyMusic.mp3</property>
    <property name="xml">was here</property>
    <filter id="filter269" out="00:00:05.867">
      <property name="window">75</property>
      <property name="max_gain">20dB</property>
      <property name="level">0</property>
      <property name="mlt_service">volume</property>
    </filter>
    <filter id="filter270" out="00:00:05.867">
      <property name="mlt_service">ladspa.1204</property>
      <property name="shotcut:filter">parametricEq</property>
      <property name="0">0</property>
      <property name="1">20</property>
      <property name="2">0.5</property>
      <property name="3">0</property>
      <property name="4">1911.6</property>
      <property name="5">1</property>
      <property name="6">0</property>
      <property name="7">700</property>
      <property name="8">1</property>
      <property name="9">0</property>
      <property name="10">5000</property>
      <property name="11">1</property>
      <property name="12">0</property>
      <property name="13">15000</property>
      <property name="14">0.5</property>
      <property name="instances">2</property>
    </filter>
    <filter id="filter271" out="00:00:05.867">
      <property name="mlt_service">ladspa.1204</property>
      <property name="shotcut:filter">3BandEq</property>
      <property name="0">0</property>
      <property name="1">200</property>
      <property name="2">0.5</property>
      <property name="3">0</property>
      <property name="4">1000</property>
      <property name="5">1</property>
      <property name="6">-17.9</property>
      <property name="7">1000</property>
      <property name="8">1</property>
      <property name="9">0</property>
      <property name="10">1000</property>
      <property name="11">1</property>
      <property name="12">-19.6</property>
      <property name="13">5000</property>
      <property name="14">0.5</property>
      <property name=".dummy"></property>
      <property name="instances">2</property>
    </filter>
  </chain>
  <chain id="chain79" out="00:01:16.467">
    <property name="length">00:01:16.500</property>
    <property name="eof">pause</property>
    <property name="resource">/Users/jacob/Documents/School/8th Grade (8Se)/Film Studies/DID_U_C_IT/clips/Theme_EndCreds_PartyMusic.mp3</property>
    <property name="mlt_service">avformat-novalidate</property>
    <property name="seekable">1</property>
    <property name="audio_index">0</property>
    <property name="video_index">-1</property>
    <property name="mute_on_pause">0</property>
    <property name="shotcut:hash">27348aa37efd2e57461794b6e0737a31</property>
    <property name="shotcut:caption">Theme_EndCreds_PartyMusic.mp3</property>
    <property name="xml">was here</property>
    <filter id="filter272" out="00:00:05.867">
      <property name="window">75</property>
      <property name="max_gain">20dB</property>
      <property name="level">0</property>
      <property name="mlt_service">volume</property>
    </filter>
    <filter id="filter273" out="00:00:05.867">
      <property name="mlt_service">ladspa.1204</property>
      <property name="shotcut:filter">parametricEq</property>
      <property name="0">0</property>
      <property name="1">20</property>
      <property name="2">0.5</property>
      <property name="3">0</property>
      <property name="4">1911.6</property>
      <property name="5">1</property>
      <property name="6">0</property>
      <property name="7">700</property>
      <property name="8">1</property>
      <property name="9">0</property>
      <property name="10">5000</property>
      <property name="11">1</property>
      <property name="12">0</property>
      <property name="13">15000</property>
      <property name="14">0.5</property>
      <property name="instances">2</property>
    </filter>
    <filter id="filter274" out="00:00:05.867">
      <property name="mlt_service">ladspa.1204</property>
      <property name="shotcut:filter">3BandEq</property>
      <property name="0">0</property>
      <property name="1">200</property>
      <property name="2">0.5</property>
      <property name="3">0</property>
      <property name="4">1000</property>
      <property name="5">1</property>
      <property name="6">-17.9</property>
      <property name="7">1000</property>
      <property name="8">1</property>
      <property name="9">0</property>
      <property name="10">1000</property>
      <property name="11">1</property>
      <property name="12">-19.6</property>
      <property name="13">5000</property>
      <property name="14">0.5</property>
      <property name=".dummy"></property>
      <property name="instances">2</property>
    </filter>
  </chain>
  <chain id="chain80" out="00:01:16.467">
    <property name="length">00:01:16.500</property>
    <property name="eof">pause</property>
    <property name="resource">/Users/jacob/Documents/School/8th Grade (8Se)/Film Studies/DID_U_C_IT/clips/Theme_EndCreds_PartyMusic.mp3</property>
    <property name="mlt_service">avformat-novalidate</property>
    <property name="seekable">1</property>
    <property name="audio_index">0</property>
    <property name="video_index">-1</property>
    <property name="mute_on_pause">0</property>
    <property name="shotcut:hash">27348aa37efd2e57461794b6e0737a31</property>
    <property name="shotcut:caption">Theme_EndCreds_PartyMusic.mp3</property>
    <property name="xml">was here</property>
    <filter id="filter275" out="00:00:08.033">
      <property name="window">75</property>
      <property name="max_gain">20dB</property>
      <property name="level">0</property>
      <property name="mlt_service">volume</property>
    </filter>
    <filter id="filter276" out="00:00:08.033">
      <property name="mlt_service">ladspa.1204</property>
      <property name="shotcut:filter">parametricEq</property>
      <property name="0">0</property>
      <property name="1">20</property>
      <property name="2">0.5</property>
      <property name="3">0</property>
      <property name="4">1911.6</property>
      <property name="5">1</property>
      <property name="6">0</property>
      <property name="7">700</property>
      <property name="8">1</property>
      <property name="9">0</property>
      <property name="10">5000</property>
      <property name="11">1</property>
      <property name="12">0</property>
      <property name="13">15000</property>
      <property name="14">0.5</property>
      <property name="instances">2</property>
    </filter>
    <filter id="filter277" out="00:00:08.033">
      <property name="mlt_service">ladspa.1204</property>
      <property name="shotcut:filter">3BandEq</property>
      <property name="0">0</property>
      <property name="1">200</property>
      <property name="2">0.5</property>
      <property name="3">0</property>
      <property name="4">1000</property>
      <property name="5">1</property>
      <property name="6">-17.9</property>
      <property name="7">1000</property>
      <property name="8">1</property>
      <property name="9">0</property>
      <property name="10">1000</property>
      <property name="11">1</property>
      <property name="12">-19.6</property>
      <property name="13">5000</property>
      <property name="14">0.5</property>
      <property name=".dummy"></property>
      <property name="instances">2</property>
    </filter>
  </chain>
  <chain id="chain81" out="00:01:16.467">
    <property name="length">00:01:16.500</property>
    <property name="eof">pause</property>
    <property name="resource">/Users/jacob/Documents/School/8th Grade (8Se)/Film Studies/DID_U_C_IT/clips/Theme_EndCreds_PartyMusic.mp3</property>
    <property name="mlt_service">avformat-novalidate</property>
    <property name="seekable">1</property>
    <property name="audio_index">0</property>
    <property name="video_index">-1</property>
    <property name="mute_on_pause">0</property>
    <property name="shotcut:hash">27348aa37efd2e57461794b6e0737a31</property>
    <property name="shotcut:caption">Theme_EndCreds_PartyMusic.mp3</property>
    <property name="xml">was here</property>
    <filter id="filter278" out="00:00:05.867">
      <property name="window">75</property>
      <property name="max_gain">20dB</property>
      <property name="level">16</property>
      <property name="mlt_service">volume</property>
    </filter>
    <filter id="filter279" out="00:00:05.867">
      <property name="mlt_service">ladspa.1204</property>
      <property name="shotcut:filter">parametricEq</property>
      <property name="0">0</property>
      <property name="1">20</property>
      <property name="2">0.5</property>
      <property name="3">0</property>
      <property name="4">1911.6</property>
      <property name="5">1</property>
      <property name="6">0</property>
      <property name="7">700</property>
      <property name="8">1</property>
      <property name="9">0</property>
      <property name="10">5000</property>
      <property name="11">1</property>
      <property name="12">0</property>
      <property name="13">15000</property>
      <property name="14">0.5</property>
      <property name="instances">2</property>
    </filter>
    <filter id="filter280" out="00:00:05.867">
      <property name="mlt_service">ladspa.1204</property>
      <property name="shotcut:filter">3BandEq</property>
      <property name="0">0</property>
      <property name="1">200</property>
      <property name="2">0.5</property>
      <property name="3">0</property>
      <property name="4">1000</property>
      <property name="5">1</property>
      <property name="6">-17.9</property>
      <property name="7">1000</property>
      <property name="8">1</property>
      <property name="9">0</property>
      <property name="10">1000</property>
      <property name="11">1</property>
      <property name="12">-19.6</property>
      <property name="13">5000</property>
      <property name="14">0.5</property>
      <property name=".dummy"></property>
      <property name="instances">2</property>
    </filter>
  </chain>
  <tractor id="tractor1" in="00:00:00.000" out="00:00:00.100">
    <property name="shotcut:transition">lumaMix</property>
    <track producer="chain80" in="00:00:07.933" out="00:00:08.033"/>
    <track producer="chain81" in="00:00:00.000" out="00:00:00.100"/>
    <transition id="transition2" out="00:00:00.100">
      <property name="a_track">0</property>
      <property name="b_track">1</property>
      <property name="factory">loader</property>
      <property name="mlt_service">luma</property>
      <property name="alpha_over">1</property>
    </transition>
    <transition id="transition3" out="00:00:00.100">
      <property name="a_track">0</property>
      <property name="b_track">1</property>
      <property name="mlt_service">mix</property>
      <property name="start">-1</property>
      <property name="accepts_blanks">1</property>
    </transition>
  </tractor>
  <chain id="chain82" out="00:01:16.467">
    <property name="length">00:01:16.500</property>
    <property name="eof">pause</property>
    <property name="resource">/Users/jacob/Documents/School/8th Grade (8Se)/Film Studies/DID_U_C_IT/clips/Theme_EndCreds_PartyMusic.mp3</property>
    <property name="mlt_service">avformat-novalidate</property>
    <property name="seekable">1</property>
    <property name="audio_index">0</property>
    <property name="video_index">-1</property>
    <property name="mute_on_pause">0</property>
    <property name="shotcut:hash">27348aa37efd2e57461794b6e0737a31</property>
    <property name="shotcut:caption">Theme_EndCreds_PartyMusic.mp3</property>
    <property name="xml">was here</property>
    <filter id="filter281" out="00:00:05.867">
      <property name="window">75</property>
      <property name="max_gain">20dB</property>
      <property name="level">10</property>
      <property name="mlt_service">volume</property>
    </filter>
    <filter id="filter282" out="00:00:05.867">
      <property name="mlt_service">ladspa.1204</property>
      <property name="shotcut:filter">parametricEq</property>
      <property name="0">0</property>
      <property name="1">20</property>
      <property name="2">0.5</property>
      <property name="3">0</property>
      <property name="4">1911.6</property>
      <property name="5">1</property>
      <property name="6">0</property>
      <property name="7">700</property>
      <property name="8">1</property>
      <property name="9">0</property>
      <property name="10">5000</property>
      <property name="11">1</property>
      <property name="12">0</property>
      <property name="13">15000</property>
      <property name="14">0.5</property>
      <property name="instances">2</property>
    </filter>
    <filter id="filter283" out="00:00:05.867">
      <property name="mlt_service">ladspa.1204</property>
      <property name="shotcut:filter">3BandEq</property>
      <property name="0">0</property>
      <property name="1">200</property>
      <property name="2">0.5</property>
      <property name="3">0</property>
      <property name="4">1000</property>
      <property name="5">1</property>
      <property name="6">-17.9</property>
      <property name="7">1000</property>
      <property name="8">1</property>
      <property name="9">0</property>
      <property name="10">1000</property>
      <property name="11">1</property>
      <property name="12">-19.6</property>
      <property name="13">5000</property>
      <property name="14">0.5</property>
      <property name=".dummy"></property>
      <property name="instances">2</property>
    </filter>
  </chain>
  <chain id="chain83" out="00:01:16.467">
    <property name="length">00:01:16.500</property>
    <property name="eof">pause</property>
    <property name="resource">/Users/jacob/Documents/School/8th Grade (8Se)/Film Studies/DID_U_C_IT/clips/Theme_EndCreds_PartyMusic.mp3</property>
    <property name="mlt_service">avformat-novalidate</property>
    <property name="seekable">1</property>
    <property name="audio_index">0</property>
    <property name="video_index">-1</property>
    <property name="mute_on_pause">0</property>
    <property name="shotcut:hash">27348aa37efd2e57461794b6e0737a31</property>
    <property name="shotcut:caption">Theme_EndCreds_PartyMusic.mp3</property>
    <property name="xml">was here</property>
    <filter id="filter284" out="00:00:05.867">
      <property name="window">75</property>
      <property name="max_gain">20dB</property>
      <property name="level">16</property>
      <property name="mlt_service">volume</property>
    </filter>
    <filter id="filter285" out="00:00:05.867">
      <property name="mlt_service">ladspa.1204</property>
      <property name="shotcut:filter">parametricEq</property>
      <property name="0">0</property>
      <property name="1">20</property>
      <property name="2">0.5</property>
      <property name="3">0</property>
      <property name="4">1911.6</property>
      <property name="5">1</property>
      <property name="6">0</property>
      <property name="7">700</property>
      <property name="8">1</property>
      <property name="9">0</property>
      <property name="10">5000</property>
      <property name="11">1</property>
      <property name="12">0</property>
      <property name="13">15000</property>
      <property name="14">0.5</property>
      <property name="instances">2</property>
    </filter>
    <filter id="filter286" out="00:00:05.867">
      <property name="mlt_service">ladspa.1204</property>
      <property name="shotcut:filter">3BandEq</property>
      <property name="0">0</property>
      <property name="1">200</property>
      <property name="2">0.5</property>
      <property name="3">0</property>
      <property name="4">1000</property>
      <property name="5">1</property>
      <property name="6">-17.9</property>
      <property name="7">1000</property>
      <property name="8">1</property>
      <property name="9">0</property>
      <property name="10">1000</property>
      <property name="11">1</property>
      <property name="12">-19.6</property>
      <property name="13">5000</property>
      <property name="14">0.5</property>
      <property name=".dummy"></property>
      <property name="instances">2</property>
    </filter>
  </chain>
  <chain id="chain84" out="00:01:16.467">
    <property name="length">00:01:16.500</property>
    <property name="eof">pause</property>
    <property name="resource">/Users/jacob/Documents/School/8th Grade (8Se)/Film Studies/DID_U_C_IT/clips/Theme_EndCreds_PartyMusic.mp3</property>
    <property name="mlt_service">avformat-novalidate</property>
    <property name="seekable">1</property>
    <property name="audio_index">0</property>
    <property name="video_index">-1</property>
    <property name="mute_on_pause">0</property>
    <property name="shotcut:hash">27348aa37efd2e57461794b6e0737a31</property>
    <property name="shotcut:caption">Theme_EndCreds_PartyMusic.mp3</property>
    <property name="xml">was here</property>
    <filter id="filter287" out="00:00:05.867">
      <property name="window">75</property>
      <property name="max_gain">20dB</property>
      <property name="level">16</property>
      <property name="mlt_service">volume</property>
    </filter>
    <filter id="filter288" out="00:00:05.867">
      <property name="mlt_service">ladspa.1204</property>
      <property name="shotcut:filter">parametricEq</property>
      <property name="0">0</property>
      <property name="1">20</property>
      <property name="2">0.5</property>
      <property name="3">0</property>
      <property name="4">1911.6</property>
      <property name="5">1</property>
      <property name="6">0</property>
      <property name="7">700</property>
      <property name="8">1</property>
      <property name="9">0</property>
      <property name="10">5000</property>
      <property name="11">1</property>
      <property name="12">0</property>
      <property name="13">15000</property>
      <property name="14">0.5</property>
      <property name="instances">2</property>
    </filter>
    <filter id="filter289" out="00:00:05.867">
      <property name="mlt_service">ladspa.1204</property>
      <property name="shotcut:filter">3BandEq</property>
      <property name="0">0</property>
      <property name="1">200</property>
      <property name="2">0.5</property>
      <property name="3">0</property>
      <property name="4">1000</property>
      <property name="5">1</property>
      <property name="6">-17.9</property>
      <property name="7">1000</property>
      <property name="8">1</property>
      <property name="9">0</property>
      <property name="10">1000</property>
      <property name="11">1</property>
      <property name="12">-19.6</property>
      <property name="13">5000</property>
      <property name="14">0.5</property>
      <property name=".dummy"></property>
      <property name="instances">2</property>
    </filter>
  </chain>
  <chain id="chain85" out="00:01:16.467">
    <property name="length">00:01:16.500</property>
    <property name="eof">pause</property>
    <property name="resource">/Users/jacob/Documents/School/8th Grade (8Se)/Film Studies/DID_U_C_IT/clips/Theme_EndCreds_PartyMusic.mp3</property>
    <property name="mlt_service">avformat-novalidate</property>
    <property name="seekable">1</property>
    <property name="audio_index">0</property>
    <property name="video_index">-1</property>
    <property name="mute_on_pause">0</property>
    <property name="shotcut:hash">27348aa37efd2e57461794b6e0737a31</property>
    <property name="shotcut:caption">Theme_EndCreds_PartyMusic.mp3</property>
    <property name="xml">was here</property>
    <filter id="filter290" out="00:00:05.867">
      <property name="window">75</property>
      <property name="max_gain">20dB</property>
      <property name="level">16</property>
      <property name="mlt_service">volume</property>
    </filter>
    <filter id="filter291" out="00:00:05.867">
      <property name="mlt_service">ladspa.1204</property>
      <property name="shotcut:filter">parametricEq</property>
      <property name="0">0</property>
      <property name="1">20</property>
      <property name="2">0.5</property>
      <property name="3">0</property>
      <property name="4">1911.6</property>
      <property name="5">1</property>
      <property name="6">0</property>
      <property name="7">700</property>
      <property name="8">1</property>
      <property name="9">0</property>
      <property name="10">5000</property>
      <property name="11">1</property>
      <property name="12">0</property>
      <property name="13">15000</property>
      <property name="14">0.5</property>
      <property name="instances">2</property>
    </filter>
    <filter id="filter292" out="00:00:05.867">
      <property name="mlt_service">ladspa.1204</property>
      <property name="shotcut:filter">3BandEq</property>
      <property name="0">0</property>
      <property name="1">200</property>
      <property name="2">0.5</property>
      <property name="3">0</property>
      <property name="4">1000</property>
      <property name="5">1</property>
      <property name="6">-17.9</property>
      <property name="7">1000</property>
      <property name="8">1</property>
      <property name="9">0</property>
      <property name="10">1000</property>
      <property name="11">1</property>
      <property name="12">-19.6</property>
      <property name="13">5000</property>
      <property name="14">0.5</property>
      <property name=".dummy"></property>
      <property name="instances">2</property>
    </filter>
  </chain>
  <chain id="chain86" out="00:01:16.467">
    <property name="length">00:01:16.500</property>
    <property name="eof">pause</property>
    <property name="resource">/Users/jacob/Documents/School/8th Grade (8Se)/Film Studies/DID_U_C_IT/clips/Theme_EndCreds_PartyMusic.mp3</property>
    <property name="mlt_service">avformat-novalidate</property>
    <property name="seekable">1</property>
    <property name="audio_index">0</property>
    <property name="video_index">-1</property>
    <property name="mute_on_pause">0</property>
    <property name="shotcut:hash">27348aa37efd2e57461794b6e0737a31</property>
    <property name="shotcut:caption">Theme_EndCreds_PartyMusic.mp3</property>
    <property name="xml">was here</property>
    <filter id="filter293" out="00:00:05.867">
      <property name="window">75</property>
      <property name="max_gain">20dB</property>
      <property name="level">16</property>
      <property name="mlt_service">volume</property>
    </filter>
    <filter id="filter294" out="00:00:05.867">
      <property name="mlt_service">ladspa.1204</property>
      <property name="shotcut:filter">parametricEq</property>
      <property name="0">0</property>
      <property name="1">20</property>
      <property name="2">0.5</property>
      <property name="3">0</property>
      <property name="4">1911.6</property>
      <property name="5">1</property>
      <property name="6">0</property>
      <property name="7">700</property>
      <property name="8">1</property>
      <property name="9">0</property>
      <property name="10">5000</property>
      <property name="11">1</property>
      <property name="12">0</property>
      <property name="13">15000</property>
      <property name="14">0.5</property>
      <property name="instances">2</property>
    </filter>
    <filter id="filter295" out="00:00:05.867">
      <property name="mlt_service">ladspa.1204</property>
      <property name="shotcut:filter">3BandEq</property>
      <property name="0">0</property>
      <property name="1">200</property>
      <property name="2">0.5</property>
      <property name="3">0</property>
      <property name="4">1000</property>
      <property name="5">1</property>
      <property name="6">-17.9</property>
      <property name="7">1000</property>
      <property name="8">1</property>
      <property name="9">0</property>
      <property name="10">1000</property>
      <property name="11">1</property>
      <property name="12">-19.6</property>
      <property name="13">5000</property>
      <property name="14">0.5</property>
      <property name=".dummy"></property>
      <property name="instances">2</property>
    </filter>
  </chain>
  <chain id="chain87" out="00:01:16.467">
    <property name="length">00:01:16.500</property>
    <property name="eof">pause</property>
    <property name="resource">/Users/jacob/Documents/School/8th Grade (8Se)/Film Studies/DID_U_C_IT/clips/Theme_EndCreds_PartyMusic.mp3</property>
    <property name="mlt_service">avformat-novalidate</property>
    <property name="seekable">1</property>
    <property name="audio_index">0</property>
    <property name="video_index">-1</property>
    <property name="mute_on_pause">0</property>
    <property name="shotcut:hash">27348aa37efd2e57461794b6e0737a31</property>
    <property name="shotcut:caption">Theme_EndCreds_PartyMusic.mp3</property>
    <property name="xml">was here</property>
    <filter id="filter296" out="00:00:05.867">
      <property name="window">75</property>
      <property name="max_gain">20dB</property>
      <property name="level">16</property>
      <property name="mlt_service">volume</property>
    </filter>
    <filter id="filter297" out="00:00:05.867">
      <property name="mlt_service">ladspa.1204</property>
      <property name="shotcut:filter">parametricEq</property>
      <property name="0">0</property>
      <property name="1">20</property>
      <property name="2">0.5</property>
      <property name="3">0</property>
      <property name="4">1911.6</property>
      <property name="5">1</property>
      <property name="6">0</property>
      <property name="7">700</property>
      <property name="8">1</property>
      <property name="9">0</property>
      <property name="10">5000</property>
      <property name="11">1</property>
      <property name="12">0</property>
      <property name="13">15000</property>
      <property name="14">0.5</property>
      <property name="instances">2</property>
    </filter>
    <filter id="filter298" out="00:00:05.867">
      <property name="mlt_service">ladspa.1204</property>
      <property name="shotcut:filter">3BandEq</property>
      <property name="0">0</property>
      <property name="1">200</property>
      <property name="2">0.5</property>
      <property name="3">0</property>
      <property name="4">1000</property>
      <property name="5">1</property>
      <property name="6">-17.9</property>
      <property name="7">1000</property>
      <property name="8">1</property>
      <property name="9">0</property>
      <property name="10">1000</property>
      <property name="11">1</property>
      <property name="12">-19.6</property>
      <property name="13">5000</property>
      <property name="14">0.5</property>
      <property name=".dummy"></property>
      <property name="instances">2</property>
    </filter>
  </chain>
  <chain id="chain88" out="00:01:16.467">
    <property name="length">00:01:16.500</property>
    <property name="eof">pause</property>
    <property name="resource">/Users/jacob/Documents/School/8th Grade (8Se)/Film Studies/DID_U_C_IT/clips/Theme_EndCreds_PartyMusic.mp3</property>
    <property name="mlt_service">avformat-novalidate</property>
    <property name="seekable">1</property>
    <property name="audio_index">0</property>
    <property name="video_index">-1</property>
    <property name="mute_on_pause">0</property>
    <property name="shotcut:hash">27348aa37efd2e57461794b6e0737a31</property>
    <property name="shotcut:caption">Theme_EndCreds_PartyMusic.mp3</property>
    <property name="xml">was here</property>
    <filter id="filter299" out="00:00:05.867">
      <property name="window">75</property>
      <property name="max_gain">20dB</property>
      <property name="level">16</property>
      <property name="mlt_service">volume</property>
    </filter>
    <filter id="filter300" out="00:00:05.867">
      <property name="mlt_service">ladspa.1204</property>
      <property name="shotcut:filter">parametricEq</property>
      <property name="0">0</property>
      <property name="1">20</property>
      <property name="2">0.5</property>
      <property name="3">0</property>
      <property name="4">1911.6</property>
      <property name="5">1</property>
      <property name="6">0</property>
      <property name="7">700</property>
      <property name="8">1</property>
      <property name="9">0</property>
      <property name="10">5000</property>
      <property name="11">1</property>
      <property name="12">0</property>
      <property name="13">15000</property>
      <property name="14">0.5</property>
      <property name="instances">2</property>
    </filter>
    <filter id="filter301" out="00:00:05.867">
      <property name="mlt_service">ladspa.1204</property>
      <property name="shotcut:filter">3BandEq</property>
      <property name="0">0</property>
      <property name="1">200</property>
      <property name="2">0.5</property>
      <property name="3">0</property>
      <property name="4">1000</property>
      <property name="5">1</property>
      <property name="6">-17.9</property>
      <property name="7">1000</property>
      <property name="8">1</property>
      <property name="9">0</property>
      <property name="10">1000</property>
      <property name="11">1</property>
      <property name="12">-19.6</property>
      <property name="13">5000</property>
      <property name="14">0.5</property>
      <property name=".dummy"></property>
      <property name="instances">2</property>
    </filter>
  </chain>
  <chain id="chain89" out="00:01:16.467">
    <property name="length">00:01:16.500</property>
    <property name="eof">pause</property>
    <property name="resource">/Users/jacob/Documents/School/8th Grade (8Se)/Film Studies/DID_U_C_IT/clips/Theme_EndCreds_PartyMusic.mp3</property>
    <property name="mlt_service">avformat-novalidate</property>
    <property name="seekable">1</property>
    <property name="audio_index">0</property>
    <property name="video_index">-1</property>
    <property name="mute_on_pause">0</property>
    <property name="shotcut:hash">27348aa37efd2e57461794b6e0737a31</property>
    <property name="shotcut:caption">Theme_EndCreds_PartyMusic.mp3</property>
    <property name="xml">was here</property>
    <filter id="filter302" out="00:00:05.867">
      <property name="window">75</property>
      <property name="max_gain">20dB</property>
      <property name="level">16</property>
      <property name="mlt_service">volume</property>
    </filter>
    <filter id="filter303" out="00:00:05.867">
      <property name="mlt_service">ladspa.1204</property>
      <property name="shotcut:filter">parametricEq</property>
      <property name="0">0</property>
      <property name="1">20</property>
      <property name="2">0.5</property>
      <property name="3">0</property>
      <property name="4">1911.6</property>
      <property name="5">1</property>
      <property name="6">0</property>
      <property name="7">700</property>
      <property name="8">1</property>
      <property name="9">0</property>
      <property name="10">5000</property>
      <property name="11">1</property>
      <property name="12">0</property>
      <property name="13">15000</property>
      <property name="14">0.5</property>
      <property name="instances">2</property>
    </filter>
    <filter id="filter304" out="00:00:05.867">
      <property name="mlt_service">ladspa.1204</property>
      <property name="shotcut:filter">3BandEq</property>
      <property name="0">0</property>
      <property name="1">200</property>
      <property name="2">0.5</property>
      <property name="3">0</property>
      <property name="4">1000</property>
      <property name="5">1</property>
      <property name="6">-17.9</property>
      <property name="7">1000</property>
      <property name="8">1</property>
      <property name="9">0</property>
      <property name="10">1000</property>
      <property name="11">1</property>
      <property name="12">-19.6</property>
      <property name="13">5000</property>
      <property name="14">0.5</property>
      <property name=".dummy"></property>
      <property name="instances">2</property>
    </filter>
  </chain>
  <chain id="chain90" out="00:01:16.467">
    <property name="length">00:01:16.500</property>
    <property name="eof">pause</property>
    <property name="resource">/Users/jacob/Documents/School/8th Grade (8Se)/Film Studies/DID_U_C_IT/clips/Theme_EndCreds_PartyMusic.mp3</property>
    <property name="mlt_service">avformat-novalidate</property>
    <property name="seekable">1</property>
    <property name="audio_index">0</property>
    <property name="video_index">-1</property>
    <property name="mute_on_pause">0</property>
    <property name="shotcut:hash">27348aa37efd2e57461794b6e0737a31</property>
    <property name="shotcut:caption">Theme_EndCreds_PartyMusic.mp3</property>
    <property name="xml">was here</property>
    <filter id="filter305" out="00:00:05.400">
      <property name="window">75</property>
      <property name="max_gain">20dB</property>
      <property name="level">16</property>
      <property name="mlt_service">volume</property>
    </filter>
    <filter id="filter306" out="00:00:05.400">
      <property name="mlt_service">ladspa.1204</property>
      <property name="shotcut:filter">parametricEq</property>
      <property name="0">0</property>
      <property name="1">20</property>
      <property name="2">0.5</property>
      <property name="3">0</property>
      <property name="4">1911.6</property>
      <property name="5">1</property>
      <property name="6">0</property>
      <property name="7">700</property>
      <property name="8">1</property>
      <property name="9">0</property>
      <property name="10">5000</property>
      <property name="11">1</property>
      <property name="12">0</property>
      <property name="13">15000</property>
      <property name="14">0.5</property>
      <property name="instances">2</property>
    </filter>
    <filter id="filter307" out="00:00:05.400">
      <property name="mlt_service">ladspa.1204</property>
      <property name="shotcut:filter">3BandEq</property>
      <property name="0">0</property>
      <property name="1">200</property>
      <property name="2">0.5</property>
      <property name="3">0</property>
      <property name="4">1000</property>
      <property name="5">1</property>
      <property name="6">-17.9</property>
      <property name="7">1000</property>
      <property name="8">1</property>
      <property name="9">0</property>
      <property name="10">1000</property>
      <property name="11">1</property>
      <property name="12">-19.6</property>
      <property name="13">5000</property>
      <property name="14">0.5</property>
      <property name=".dummy"></property>
      <property name="instances">2</property>
    </filter>
  </chain>
  <producer id="producer20" in="00:00:00.000" out="00:01:35.633">
    <property name="length">00:01:35.667</property>
    <property name="eof">pause</property>
    <property name="resource">0.8:/Users/jacob/Documents/School/8th Grade (8Se)/Film Studies/DID_U_C_IT/clips/Theme_EndCreds_PartyMusic.mp3</property>
    <property name="aspect_ratio">1</property>
    <property name="seekable">1</property>
    <property name="audio_index">0</property>
    <property name="video_index">-1</property>
    <property name="mute_on_pause">1</property>
    <property name="warp_speed">0.8</property>
    <property name="warp_resource">/Users/jacob/Documents/School/8th Grade (8Se)/Film Studies/DID_U_C_IT/clips/Theme_EndCreds_PartyMusic.mp3</property>
    <property name="mlt_service">timewarp</property>
    <property name="shotcut:producer">avformat</property>
    <property name="video_delay">0</property>
    <property name="shotcut:hash">27348aa37efd2e57461794b6e0737a31</property>
    <property name="shotcut:caption">Theme_EndCreds_PartyMusic.mp3 (0.8x)</property>
    <property name="xml">was here</property>
    <filter id="filter311" out="00:00:09.233">
      <property name="window">75</property>
      <property name="max_gain">20dB</property>
      <property name="level">8</property>
      <property name="mlt_service">volume</property>
    </filter>
    <filter id="filter312" out="00:00:09.233">
      <property name="mlt_service">ladspa.1204</property>
      <property name="shotcut:filter">parametricEq</property>
      <property name="0">0</property>
      <property name="1">20</property>
      <property name="2">0.5</property>
      <property name="3">0</property>
      <property name="4">1911.6</property>
      <property name="5">1</property>
      <property name="6">0</property>
      <property name="7">700</property>
      <property name="8">1</property>
      <property name="9">0</property>
      <property name="10">5000</property>
      <property name="11">1</property>
      <property name="12">0</property>
      <property name="13">15000</property>
      <property name="14">0.5</property>
      <property name="instances">2</property>
    </filter>
    <filter id="filter313" out="00:00:09.233">
      <property name="mlt_service">ladspa.1204</property>
      <property name="shotcut:filter">3BandEq</property>
      <property name="0">0</property>
      <property name="1">200</property>
      <property name="2">0.5</property>
      <property name="3">0</property>
      <property name="4">1000</property>
      <property name="5">1</property>
      <property name="6">-17.9</property>
      <property name="7">1000</property>
      <property name="8">1</property>
      <property name="9">0</property>
      <property name="10">1000</property>
      <property name="11">1</property>
      <property name="12">-19.6</property>
      <property name="13">5000</property>
      <property name="14">0.5</property>
      <property name=".dummy"></property>
      <property name="instances">2</property>
    </filter>
  </producer>
  <playlist id="playlist3">
    <property name="shotcut:audio">1</property>
    <property name="shotcut:name">A2</property>
    <entry producer="chain12" in="00:02:28.067" out="00:02:43.300"/>
    <blank length="00:04:45.533"/>
    <entry producer="chain15" in="00:00:00.000" out="00:00:05.867"/>
    <entry producer="chain16" in="00:00:00.000" out="00:00:05.867"/>
    <entry producer="chain17" in="00:00:00.000" out="00:00:05.867"/>
    <entry producer="chain18" in="00:00:00.000" out="00:00:05.867"/>
    <entry producer="chain19" in="00:00:00.000" out="00:00:05.867"/>
    <entry producer="chain20" in="00:00:00.000" out="00:00:01.433"/>
    <entry producer="chain21" in="00:00:01.467" out="00:00:05.867"/>
    <entry producer="chain22" in="00:00:00.000" out="00:00:05.867"/>
    <blank length="00:00:00.033"/>
    <entry producer="chain23" in="00:00:00.000" out="00:00:05.867"/>
    <entry producer="chain24" in="00:00:00.000" out="00:00:05.867"/>
    <entry producer="chain25" in="00:00:00.000" out="00:00:05.867"/>
    <entry producer="chain26" in="00:00:00.000" out="00:00:05.867"/>
    <entry producer="chain27" in="00:00:00.000" out="00:00:07.867"/>
    <blank length="00:00:16.133"/>
    <entry producer="chain28" in="00:00:00.000" out="00:00:05.867"/>
    <entry producer="chain29" in="00:00:00.000" out="00:00:05.867"/>
    <entry producer="chain30" in="00:00:00.000" out="00:00:05.867"/>
    <entry producer="chain31" in="00:00:00.000" out="00:00:05.867"/>
    <entry producer="chain32" in="00:00:00.000" out="00:00:05.867"/>
    <entry producer="chain33" in="00:00:00.000" out="00:00:05.867"/>
    <entry producer="chain34" in="00:00:00.000" out="00:00:05.867"/>
    <entry producer="chain35" in="00:00:00.000" out="00:00:05.867"/>
    <entry producer="chain36" in="00:00:00.000" out="00:00:05.867"/>
    <entry producer="chain37" in="00:00:00.000" out="00:00:05.867"/>
    <entry producer="chain38" in="00:00:00.000" out="00:00:05.867"/>
    <entry producer="chain39" in="00:00:00.000" out="00:00:05.867"/>
    <entry producer="chain40" in="00:00:00.067" out="00:00:10.633"/>
    <blank length="00:00:00.033"/>
    <entry producer="chain41" in="00:00:00.067" out="00:00:01.867"/>
    <entry producer="chain42" in="00:00:01.900" out="00:00:07.567"/>
    <entry producer="chain43" in="00:00:01.900" out="00:00:07.600"/>
    <entry producer="chain44" in="00:00:01.900" out="00:00:07.967"/>
    <entry producer="chain46" in="00:00:00.133" out="00:00:05.867"/>
    <blank length="00:01:22.600"/>
    <entry producer="chain58" in="00:00:00.000" out="00:00:05.867"/>
    <entry producer="chain59" in="00:00:00.000" out="00:00:07.567"/>
    <blank length="00:00:00.033"/>
    <entry producer="chain60" in="00:00:01.733" out="00:00:05.867"/>
    <blank length="00:00:00.033"/>
    <entry producer="chain61" in="00:00:00.033" out="00:00:05.867"/>
    <entry producer="chain62" in="00:00:00.000" out="00:00:05.867"/>
    <entry producer="chain63" in="00:00:00.000" out="00:00:05.867"/>
    <blank length="00:00:28.267"/>
    <entry producer="chain65" in="00:00:00.000" out="00:00:05.867"/>
    <entry producer="chain66" in="00:00:00.000" out="00:00:05.867"/>
    <entry producer="chain67" in="00:00:00.000" out="00:00:05.867"/>
    <entry producer="chain68" in="00:00:00.000" out="00:00:05.867"/>
    <entry producer="chain69" in="00:00:00.000" out="00:00:05.867"/>
    <entry producer="chain70" in="00:00:00.000" out="00:00:05.867"/>
    <entry producer="chain71" in="00:00:00.000" out="00:00:05.867"/>
    <entry producer="chain72" in="00:00:00.000" out="00:00:05.867"/>
    <entry producer="chain73" in="00:00:00.000" out="00:00:05.867"/>
    <entry producer="chain74" in="00:00:00.000" out="00:00:05.867"/>
    <entry producer="chain75" in="00:00:00.000" out="00:00:05.867"/>
    <entry producer="chain76" in="00:00:00.000" out="00:00:05.867"/>
    <entry producer="chain77" in="00:00:00.000" out="00:00:05.867"/>
    <entry producer="chain78" in="00:00:00.000" out="00:00:05.867"/>
    <blank length="00:00:00.033"/>
    <entry producer="chain79" in="00:00:00.000" out="00:00:05.867"/>
    <entry producer="chain80" in="00:00:00.000" out="00:00:07.900"/>
    <entry producer="tractor1" in="00:00:00.000" out="00:00:00.100"/>
    <entry producer="chain81" in="00:00:00.133" out="00:00:05.867"/>
    <entry producer="chain82" in="00:00:00.133" out="00:00:05.867"/>
    <blank length="00:00:00.067"/>
    <entry producer="chain83" in="00:00:00.133" out="00:00:05.867"/>
    <entry producer="chain84" in="00:00:00.133" out="00:00:05.867"/>
    <entry producer="chain85" in="00:00:00.133" out="00:00:05.867"/>
    <entry producer="chain86" in="00:00:00.133" out="00:00:05.867"/>
    <entry producer="chain87" in="00:00:00.133" out="00:00:05.867"/>
    <entry producer="chain88" in="00:00:00.133" out="00:00:05.867"/>
    <entry producer="chain89" in="00:00:00.133" out="00:00:05.867"/>
    <entry producer="chain90" in="00:00:00.133" out="00:00:05.400"/>
    <blank length="00:00:04.133"/>
    <entry producer="producer20" in="00:00:00.167" out="00:00:09.233"/>
  </playlist>
  <playlist id="playlist4">
    <property name="shotcut:audio">1</property>
    <property name="shotcut:name">A3</property>
    <blank length="00:00:00.033"/>
  </playlist>
  <tractor id="tractor2" title="Shotcut version 22.03.30" in="00:00:00.000" out="00:13:51.033">
    <property name="shotcut">1</property>
    <property name="shotcut:projectAudioChannels">2</property>
    <property name="shotcut:projectFolder">1</property>
    <property name="shotcut:scaleFactor">1.87925</property>
    <track producer="background"/>
    <track producer="playlist0"/>
    <track producer="playlist1"/>
    <track producer="playlist2" hide="video"/>
    <track producer="playlist3" hide="video"/>
    <track producer="playlist4" hide="video"/>
    <transition id="transition4">
      <property name="a_track">0</property>
      <property name="b_track">1</property>
      <property name="mlt_service">mix</property>
      <property name="always_active">1</property>
      <property name="sum">1</property>
    </transition>
    <transition id="transition5">
      <property name="a_track">0</property>
      <property name="b_track">1</property>
      <property name="version">0.1</property>
      <property name="mlt_service">frei0r.cairoblend</property>
      <property name="threads">0</property>
      <property name="disable">1</property>
    </transition>
    <transition id="transition6">
      <property name="a_track">0</property>
      <property name="b_track">2</property>
      <property name="mlt_service">mix</property>
      <property name="always_active">1</property>
      <property name="sum">1</property>
    </transition>
    <transition id="transition7">
      <property name="a_track">1</property>
      <property name="b_track">2</property>
      <property name="version">0.1</property>
      <property name="mlt_service">frei0r.cairoblend</property>
      <property name="threads">0</property>
      <property name="disable">0</property>
    </transition>
    <transition id="transition8">
      <property name="a_track">0</property>
      <property name="b_track">3</property>
      <property name="mlt_service">mix</property>
      <property name="always_active">1</property>
      <property name="sum">1</property>
    </transition>
    <transition id="transition9">
      <property name="a_track">0</property>
      <property name="b_track">4</property>
      <property name="mlt_service">mix</property>
      <property name="always_active">1</property>
      <property name="sum">1</property>
    </transition>
    <transition id="transition10">
      <property name="a_track">0</property>
      <property name="b_track">5</property>
      <property name="mlt_service">mix</property>
      <property name="always_active">1</property>
      <property name="sum">1</property>
    </transition>
  </tractor>
</mlt>
